<?xml version="1.0" standalone="no"?>
<!DOCTYPE svg PUBLIC "-//W3C//DTD SVG 1.1//EN" "http://www.w3.org/Graphics/SVG/1.1/DTD/svg11.dtd" >
<svg xmlns="http://www.w3.org/2000/svg" xmlns:xlink="http://www.w3.org/1999/xlink" version="1.1">
<metadata>
Created by FontForge 20170731 at Wed Sep 20 01:01:42 2017
 By Aleksey,,,
Copyright 2016 Google Inc. All Rights Reserved.
</metadata>
<defs>
<font id="NotoSerifDisplay-Italic" horiz-adv-x="0" >
  <font-face 
    font-family="Noto Serif Disp"
    font-weight="400"
    font-style="italic"
    font-stretch="normal"
    units-per-em="1000"
    panose-1="2 2 5 2 8 5 5 9 2 4"
    ascent="800"
    descent="-200"
    x-height="536"
    cap-height="714"
    bbox="-811 -470 2796 1064"
    underline-thickness="50"
    underline-position="-175"
    slope="-12"
    unicode-range="U+000D-FFFD"
  />
<missing-glyph horiz-adv-x="600" 
d="M94 0v714h411v-714h-411zM145 51h309v612h-309v-612z" />
    <glyph glyph-name="f_f" unicode="ff" horiz-adv-x="620" 
d="M-82 -240q-15 0 -31.5 2.5t-26.5 5.5l2 10q9 -2 23.5 -4.5t27.5 -2.5q33 0 55.5 22t39 70.5t33.5 127.5l115 535h-92l1 6l93 4l5 23q21 97 69 146.5t128 49.5q64 0 89 -18t25 -41q0 -26 -17.5 -41.5t-52.5 -15.5q0 21 -2.5 46t-13 42.5t-34.5 17.5q-37 0 -56.5 -41.5
t-39.5 -134.5l-7 -33h203l7 33q13 56 37.5 101.5t63 72.5t93.5 27q64 0 96.5 -20.5t32.5 -53.5t-21.5 -49t-61.5 -16q1 53 -8 91t-40 38q-37 0 -58 -48t-39 -137l-8 -39h111l-2 -10h-111l-114 -534q-19 -90 -49 -140.5t-72 -71t-96 -20.5q-15 0 -31.5 2.5t-26.5 5.5l2 10
q8 -2 21.5 -4.5t24.5 -2.5q35 0 58 22t40.5 70.5t34.5 127.5l115 535h-204l-114 -534q-19 -89 -49 -139.5t-72 -71.5t-96 -21z" />
    <glyph glyph-name="f_i" unicode="fi" horiz-adv-x="583" 
d="M-88 -240q-15 0 -31.5 2.5t-26.5 5.5l2 10q8 -2 21.5 -4.5t24.5 -2.5q34 0 57.5 22t41 70.5t34.5 127.5l115 535h-92l1 6l92 4l13 55q20 85 74.5 132t153.5 47q76 0 115.5 -20.5t39.5 -53.5t-28 -49t-80 -16q0 35 -4 64.5t-15.5 47t-35.5 17.5q-52 0 -81 -39t-45 -121
l-13 -64h289l-68 -321q-2 -11 -6 -32t-6.5 -43t-2.5 -36q0 -73 42 -73q25 0 40 7.5t35 19.5l6 -8q-22 -20 -60 -40t-75 -20q-40 0 -61.5 28t-21.5 67q0 40 8 84t14 73l60 284h-195l-114 -534q-19 -89 -49 -139.5t-72 -71.5t-96 -21z" />
    <glyph glyph-name="f_l" unicode="fl" horiz-adv-x="592" 
d="M-82 -240q-15 0 -31.5 2.5t-26.5 5.5l2 10q8 -2 21.5 -4.5t24.5 -2.5q52 0 80 51t53 169l115 535h-92l1 6l92 4l13 55q20 85 74.5 132t153.5 47q25 0 52.5 -7t45.5 -18l70 15h22l-116 -545q-2 -11 -6 -32.5t-7 -44t-3 -35.5q0 -36 10 -54t34 -18q19 0 36.5 7.5t38.5 20.5
l5 -9q-22 -20 -60 -40t-75 -20q-40 0 -61.5 29t-21.5 72q0 21 4 49t9 55t9 47l92 435q1 40 -25 61.5t-62 21.5q-51 0 -80 -39.5t-45 -120.5l-13 -64h111l-2 -10h-111l-114 -534q-19 -88 -49 -139t-72 -72t-96 -21z" />
    <glyph glyph-name="f_f_i" unicode="ffi" horiz-adv-x="886" 
d="M-82 -240q-15 0 -31.5 2.5t-26.5 5.5l2 10q9 -2 23.5 -4.5t27.5 -2.5q33 0 55.5 22t39 70.5t33.5 127.5l115 535h-92l1 6l93 4l5 23q21 97 69 146.5t128 49.5q64 0 89 -18t25 -41q0 -26 -17.5 -41.5t-52.5 -15.5q0 21 -2.5 46t-13 42.5t-34.5 17.5q-37 0 -56.5 -41.5
t-39.5 -134.5l-7 -33h203l13 55q20 85 74.5 132t153.5 47q77 0 116 -20.5t39 -53.5t-28 -49t-80 -16q0 35 -5 64t-19 46.5t-42 17.5q-47 0 -72.5 -39t-42.5 -120l-13 -64h289l-68 -321q-3 -15 -9 -52t-6 -71q0 -26 9 -46t33 -20q17 0 36.5 9t39.5 22l5 -7q-22 -20 -59.5 -40
t-75.5 -20q-40 0 -61.5 28t-21.5 79q0 19 4 46t9 54t9 45l60 284h-195l-114 -534q-19 -89 -49 -139.5t-72 -71.5t-96 -21q-15 0 -31.5 2.5t-26.5 5.5l2 10q9 -2 23.5 -4.5t27.5 -2.5q34 0 56 22t38.5 70.5t33.5 127.5l115 535h-204l-114 -534q-19 -89 -49 -139.5t-72 -71.5
t-96 -21z" />
    <glyph glyph-name="f_f_l" unicode="ffl" horiz-adv-x="888" 
d="M-82 -240q-15 0 -31.5 2.5t-26.5 5.5l2 10q9 -2 24 -4.5t28 -2.5q34 0 55.5 22t38 70.5t33.5 127.5l115 535h-92l1 6l92 4l5 23q42 196 198 196q64 0 89 -18t25 -41q0 -26 -17.5 -41.5t-52.5 -15.5q0 21 -4 46t-15.5 42.5t-32.5 17.5q-37 0 -55.5 -41.5t-38.5 -134.5
l-7 -33h203l13 55q20 86 74 132.5t150 46.5q28 0 56 -7t46 -18l70 15h22l-116 -545q-3 -11 -6.5 -32.5t-6 -45.5t-2.5 -42q0 -32 10.5 -50.5t32.5 -18.5q18 0 37 9t38 23l5 -8q-22 -20 -59.5 -40t-75.5 -20q-40 0 -61.5 28t-21.5 77q0 21 4 48t9 53t9 46l92 435
q0 41 -25.5 61.5t-58.5 20.5q-57 0 -84 -39t-44 -120l-13 -64h111l-2 -10h-111l-114 -534q-19 -89 -49 -139.5t-72 -71.5t-96 -21q-15 0 -31.5 2.5t-26.5 5.5l2 10q9 -2 24 -4.5t28 -2.5q33 0 55 22t38.5 70.5t33.5 127.5l115 535h-204l-114 -534q-19 -89 -49 -139.5
t-72 -71.5t-96 -21z" />
    <glyph glyph-name=".notdef" horiz-adv-x="600" 
d="M94 0v714h411v-714h-411zM145 51h309v612h-309v-612z" />
    <glyph glyph-name=".null" 
 />
    <glyph glyph-name="nonmarkingreturn" horiz-adv-x="333" 
 />
    <glyph glyph-name="NULL" 
 />
    <glyph glyph-name="NULL" 
 />
    <glyph glyph-name="CR" unicode="&#xd;" horiz-adv-x="250" 
 />
    <glyph glyph-name="space" unicode=" " horiz-adv-x="250" 
 />
    <glyph glyph-name="exclam" unicode="!" horiz-adv-x="333" 
d="M141 201l59 513h116l-160 -513h-15zM112 -8q-21 0 -33 11t-12 36q0 35 18 63t51 28q20 0 32.5 -11t12.5 -37q0 -35 -17 -62.5t-52 -27.5z" />
    <glyph glyph-name="quotedbl" unicode="&#x22;" horiz-adv-x="280" 
d="M115 479l10 235h95l-90 -235h-15zM240 479l10 235h95l-90 -235h-15z" />
    <glyph glyph-name="numbersign" unicode="#" horiz-adv-x="559" 
d="M69 0l69 234h-116v10h118l76 254h-117v10h119l60 206h10l-60 -206h211l60 206h10l-60 -206h131v-10h-133l-76 -254h132v-10h-134l-69 -234h-10l69 234h-211l-69 -234h-10zM150 244h211l76 254h-211z" />
    <glyph glyph-name="dollar" unicode="$" horiz-adv-x="559" 
d="M209 -79l25 116q-63 0 -107 19t-67 49.5t-23 66.5q0 30 13.5 48t31.5 26t32 8q0 -54 14 -100.5t41.5 -76t66.5 -31.5l58 278l-34 17q-55 28 -85.5 67.5t-30.5 94.5q0 91 63 136t165 45l16 76h10l-16 -76q80 -2 122 -29.5t42 -70.5q0 -31 -19.5 -50t-61.5 -19
q0 31 -8.5 68t-27 63.5t-49.5 28.5l-57 -267l29 -15q67 -35 103 -71.5t36 -92.5q0 -61 -32 -104t-87.5 -66t-128.5 -23l-24 -115h-10zM314 412l55 263q-37 -1 -66.5 -22t-47.5 -56t-18 -80q0 -31 17.5 -58t59.5 -47zM245 46q47 2 80.5 24.5t52 58.5t18.5 78q0 35 -20 60.5
t-72 52.5z" />
    <glyph glyph-name="percent" unicode="%" horiz-adv-x="896" 
d="M204 281q-59 0 -94 39t-35 120q0 42 12.5 90.5t38 92.5t65 72t94.5 28q70 0 101.5 -44t31.5 -115q0 -39 -12.5 -87.5t-38.5 -93t-66.5 -73.5t-96.5 -29zM207 0l501 714h11l-501 -714h-11zM208 291q25 0 45.5 20t35.5 53t25.5 71.5t15.5 76.5t5 68q0 63 -11 98t-41 35
q-25 0 -45.5 -20t-36 -53t-26 -71.5t-16 -76.5t-5.5 -67q0 -64 12 -99t42 -35zM646 -8q-59 0 -94 39t-35 120q0 42 12.5 90.5t38 92.5t65 72t94.5 28q70 0 101.5 -44t31.5 -115q0 -39 -12.5 -87.5t-38.5 -93t-66.5 -73.5t-96.5 -29zM650 2q25 0 45.5 20t35.5 53t25.5 71.5
t15.5 76.5t5 68q0 63 -12 98t-42 35q-25 0 -45.5 -20t-35.5 -53t-25.5 -71.5t-15.5 -76.5t-5 -67q0 -64 12 -99t42 -35z" />
    <glyph glyph-name="ampersand" unicode="&#x26;" horiz-adv-x="750" 
d="M254 -10q-74 0 -123 25.5t-72.5 67.5t-23.5 94q0 65 29.5 106.5t79.5 66t112 37.5q-33 52 -46 90.5t-13 74.5q0 86 56 129t157 43q88 0 128.5 -37.5t40.5 -92.5q0 -53 -25 -85t-75.5 -54t-126.5 -45l149 -205q23 42 38.5 87.5t24.5 89.5l8 39h180l-2 -10h-9
q-31 0 -51.5 -9t-38 -30.5t-36.5 -60.5q-17 -33 -36 -73t-44 -79l55 -75q28 -38 45 -56t46 -18h9l-2 -10h-153l-60 83q-40 -41 -93.5 -67t-127.5 -26zM346 417q52 27 83.5 53.5t45 56.5t13.5 70q0 47 -21 82t-61 35q-113 0 -113 -151q0 -30 10.5 -64t42.5 -82zM264 0
q57 0 101.5 34.5t78.5 91.5l-182 253q-73 -36 -100.5 -81t-27.5 -119q0 -77 34 -128t96 -51z" />
    <glyph glyph-name="quotesingle" unicode="'" horiz-adv-x="155" 
d="M115 479l10 235h95l-90 -235h-15z" />
    <glyph glyph-name="parenleft" unicode="(" horiz-adv-x="346" 
d="M218 -128q-94 40 -135.5 125t-41.5 189q0 91 22.5 182.5t68 171.5t114 138t161.5 82l-2 -10q-64 -36 -110.5 -96t-77.5 -132t-49 -144.5t-25.5 -135t-7.5 -103.5q0 -57 5.5 -101t23.5 -81t56 -75z" />
    <glyph glyph-name="parenright" unicode=")" horiz-adv-x="346" 
d="M-44 -136l2 10q71 39 119.5 100t78 132t45.5 142.5t21.5 133.5t5.5 103q0 50 -3 96.5t-21 87.5t-61 73l2 10q94 -40 135.5 -125t41.5 -189q0 -91 -22.5 -182.5t-68 -171.5t-114 -138t-161.5 -82z" />
    <glyph glyph-name="asterisk" unicode="*" horiz-adv-x="500" 
d="M317 373l-85 18l70 163l-182 -75l-18 84l194 10l-173 88l51 70l135 -145l3 179l85 -18l-72 -164l183 75l18 -84l-195 -9l174 -87l-50 -68l-137 141z" />
    <glyph glyph-name="plus" unicode="+" horiz-adv-x="559" 
d="M288 143v204h-204v20h204v205h20v-205h205v-20h-205v-204h-20z" />
    <glyph glyph-name="comma" unicode="," horiz-adv-x="251" 
d="M-22 -146l1 10q55 15 80 38.5t25 60.5q0 23 -10 35.5t-22.5 21t-22.5 19t-10 30.5q0 29 18.5 44t43.5 15q31 0 54.5 -21.5t23.5 -60.5q0 -68 -43 -119t-138 -73z" />
    <glyph glyph-name="hyphen" unicode="-" horiz-adv-x="310" 
d="M24 263l4 20h260l-4 -20h-260z" />
    <glyph glyph-name="period" unicode="." horiz-adv-x="237" 
d="M70 -8q-21 0 -33 11t-12 36q0 35 18 63t51 28q20 0 32.5 -11t12.5 -37q0 -35 -17 -62.5t-52 -27.5z" />
    <glyph glyph-name="slash" unicode="/" horiz-adv-x="243" 
d="M-78 -121l411 881h10l-411 -881h-10z" />
    <glyph glyph-name="zero" unicode="0" horiz-adv-x="559" 
d="M247 -11q-86 0 -139.5 61.5t-53.5 180.5q0 62 11.5 130.5t35 133t59 116.5t84 83t110.5 31q53 0 96 -24t68.5 -74.5t25.5 -130.5q0 -61 -11 -130t-34 -135.5t-58 -121.5t-83.5 -87.5t-110.5 -32.5zM248 -1q42 0 74.5 33.5t56 89.5t38.5 124t22.5 138t7.5 131
q0 113 -23.5 156.5t-72.5 43.5q-42 0 -74.5 -33.5t-56 -89t-39 -123t-23 -137.5t-7.5 -130q0 -115 24.5 -159t72.5 -44z" />
    <glyph glyph-name="one" unicode="1" horiz-adv-x="559" 
d="M48 0l1 10h53q38 0 63 12.5t35 59.5l85 400q8 41 19 84t21 84h-1q-52 -58 -87.5 -86.5t-67.5 -28.5q-21 0 -31.5 15.5t-10.5 38.5q43 -1 73 3.5t54.5 17t49.5 36.5l74 72h58l-136 -640q-4 -16 -4 -28q0 -26 20 -33t52 -7h54l-2 -10h-372z" />
    <glyph glyph-name="two" unicode="2" horiz-adv-x="559" 
d="M8 0l21 81l238 212q67 61 103 108t49 91t13 92q0 70 -23.5 100t-67.5 30q-67 0 -100 -50t-43 -141q-31 0 -51 15t-20 49q0 35 25.5 66t74.5 51t118 20q94 0 141.5 -39t47.5 -107q0 -70 -55 -138t-173 -158l-265 -202h324q46 0 67.5 23t32.5 52l6 16h10l-40 -171h-433z
" />
    <glyph glyph-name="three" unicode="3" horiz-adv-x="559" 
d="M203 -10q-71 0 -114 15t-61.5 39t-18.5 51q0 35 22.5 54.5t53.5 19.5q0 -86 28 -127.5t94 -41.5q45 0 83 22t60.5 69t22.5 123q0 73 -35.5 113.5t-101.5 40.5h-43l2 10h32q57 0 102 26t71 74t26 115q0 63 -19.5 92t-61.5 29q-47 0 -76 -24.5t-45 -67t-25 -97.5
q-31 0 -52.5 13.5t-21.5 50.5q0 41 29.5 71.5t79.5 47t111 16.5q83 0 133.5 -37.5t50.5 -105.5q0 -78 -60 -134.5t-181 -71.5q89 -6 139.5 -46.5t50.5 -111.5q0 -63 -25 -106.5t-66 -70t-89 -38.5t-95 -12z" />
    <glyph glyph-name="four" unicode="4" horiz-adv-x="559" 
d="M152 0l1 10h44q34 0 61 12.5t37 59.5l24 114h-309l9 41l413 477h93l-98 -462h123l-12 -56h-123l-25 -118q-4 -16 -4 -28q0 -26 20 -33t52 -7h23l-2 -10h-327zM335 588l-290 -336h285l39 187q11 50 28.5 122t34.5 142q-22 -29 -45.5 -56t-51.5 -59z" />
    <glyph glyph-name="five" unicode="5" horiz-adv-x="559" 
d="M191 -10q-97 0 -136 29.5t-39 70.5q0 28 18 45t57 17q0 -68 20.5 -110t82.5 -42q79 0 128 60.5t49 189.5q0 48 -9.5 85.5t-34 59t-68.5 21.5q-31 0 -69 -13.5t-79 -47.5l-11 2l107 357h334l-27 -151h-10q2 13 3 27t1 20q0 10 -10 17t-37 7h-268l-79 -266q36 31 76.5 45
t74.5 14q96 0 153 -47.5t57 -136.5q0 -72 -34 -129.5t-97.5 -90.5t-152.5 -33z" />
    <glyph glyph-name="six" unicode="6" horiz-adv-x="559" 
d="M260 -10q-52 0 -94.5 27t-68 80.5t-25.5 134.5q0 93 23.5 181t68 158.5t107.5 111.5t143 41q76 0 114.5 -27t38.5 -63q0 -35 -23 -55t-64 -20q1 39 -3 74.5t-19 58t-46 22.5q-75 0 -131.5 -84t-92.5 -248q22 16 60.5 34t86.5 18q58 0 95.5 -24t55.5 -64t18 -87
q0 -69 -26.5 -130.5t-81 -100t-136.5 -38.5zM268 0q39 0 65 23t42 60.5t23 82t7 87.5q0 49 -7 87.5t-26 60t-54 21.5q-32 0 -70 -17.5t-63 -36.5q-7 -36 -12 -76t-5 -89q0 -101 23 -152t77 -51z" />
    <glyph glyph-name="seven" unicode="7" horiz-adv-x="559" 
d="M128 0l426 634h-351q-55 0 -69 -51l-14 -50h-10l43 181h447l-6 -29l-391 -685h-75z" />
    <glyph glyph-name="eight" unicode="8" horiz-adv-x="559" 
d="M244 -10q-98 0 -155 48.5t-57 123.5q0 56 26 93t72.5 61t109.5 43q-56 37 -82 81t-26 91q0 54 24.5 97.5t77 69.5t137.5 26q89 0 136.5 -41.5t47.5 -104.5q0 -78 -48.5 -120.5t-135.5 -71.5q64 -37 100.5 -80t36.5 -104q0 -73 -35 -120t-94.5 -69.5t-134.5 -22.5z
M359 392q63 41 85 85.5t22 107.5q0 34 -8.5 63.5t-30.5 47.5t-62 18q-69 0 -103 -45t-34 -118q0 -47 28.5 -84.5t102.5 -74.5zM257 0q71 0 113.5 43t42.5 123q0 40 -16 70.5t-52 58t-96 58.5q-37 -24 -64 -50t-42 -63t-15 -94q0 -62 30.5 -104t98.5 -42z" />
    <glyph glyph-name="nine" unicode="9" horiz-adv-x="559" 
d="M199 -10q-61 0 -95 13.5t-48 34t-14 41.5q0 25 15.5 41.5t43.5 16.5q1 -31 9 -63t30.5 -53t66.5 -21q77 0 125.5 89t88.5 254q-23 -25 -56 -45t-80 -20q-89 0 -137 52t-48 134q0 76 33 135t89 92t124 33q83 0 135.5 -61t52.5 -176q0 -50 -11 -115t-35 -132t-63.5 -123.5
t-95 -91.5t-130.5 -35zM298 291q38 0 69 20t57 49q5 36 9 80t4 84q0 90 -22 140t-72 50q-38 0 -65.5 -21.5t-44.5 -58.5t-25 -81.5t-8 -91.5q0 -89 23 -129.5t75 -40.5z" />
    <glyph glyph-name="colon" unicode=":" horiz-adv-x="286" 
d="M174 403q-21 0 -33 10.5t-12 36.5q0 35 18 63t51 28q20 0 32.5 -11t12.5 -37q0 -35 -17 -62.5t-52 -27.5zM84 -8q-21 0 -33 11t-12 36q0 35 18 63t51 28q20 0 32.5 -11t12.5 -37q0 -35 -17 -62.5t-52 -27.5z" />
    <glyph glyph-name="semicolon" unicode=";" horiz-adv-x="286" 
d="M174 403q-21 0 -33 10.5t-12 36.5q0 35 18 63t51 28q20 0 32.5 -11t12.5 -37q0 -35 -17 -62.5t-52 -27.5zM-8 -146l1 10q55 15 80 38.5t25 60.5q0 23 -10 35.5t-22.5 21t-22.5 19t-10 30.5q0 29 18.5 44t43.5 15q31 0 54.5 -21.5t23.5 -60.5q0 -68 -43 -119t-138 -73z
" />
    <glyph glyph-name="less" unicode="&#x3c;" horiz-adv-x="559" 
d="M488 119l-429 228v20l429 228v-23l-407 -215l407 -215v-23z" />
    <glyph glyph-name="equal" unicode="=" horiz-adv-x="559" 
d="M87 455v20h423v-20h-423zM87 239v20h423v-20h-423z" />
    <glyph glyph-name="greater" unicode="&#x3e;" horiz-adv-x="559" 
d="M108 119v23l407 215l-407 215v23l429 -228v-20z" />
    <glyph glyph-name="question" unicode="?" horiz-adv-x="500" 
d="M193 201l13 128q58 5 102.5 40t70 88t25.5 114q0 68 -23 105.5t-74 37.5q-42 0 -67 -25.5t-38 -67t-19 -89.5q-72 0 -72 60q0 35 24 65t69.5 48.5t108.5 18.5q87 0 138 -40.5t51 -113.5q0 -64 -34.5 -113.5t-91 -83t-122.5 -46.5l-46 -126h-15zM168 -8q-21 0 -33 11
t-12 36q0 35 18 63t51 28q20 0 32.5 -11t12.5 -37q0 -35 -17 -62.5t-52 -27.5z" />
    <glyph glyph-name="at" unicode="@" horiz-adv-x="921" 
d="M432 -142q-107 0 -190 39.5t-130 119.5t-47 201q0 106 34 196.5t96 157.5t147.5 104.5t187.5 37.5q112 0 187 -43t113 -116t38 -163q0 -96 -31 -167t-79 -109.5t-99 -38.5q-25 0 -51.5 12t-45 42.5t-18.5 86.5h-2q-20 -72 -59 -106.5t-91 -34.5q-56 0 -92.5 40t-36.5 122
q0 43 14.5 93t43.5 95t73.5 73.5t105.5 28.5q40 0 61 -12.5t32 -32.5l72 36h10l-51 -254q-7 -32 -11 -58t-4 -46q0 -39 16 -56.5t42 -17.5q37 0 69 33t51.5 101t19.5 173q0 108 -36 176.5t-100 100.5t-147 32q-73 0 -141 -31.5t-122 -92.5t-85.5 -151.5t-31.5 -208.5
q0 -99 23.5 -166.5t64.5 -108t94.5 -58.5t113.5 -18q68 0 137.5 24t135.5 73l6 -9q-133 -99 -287 -99zM416 95q44 0 76 41t47 119l42 224q-5 13 -22.5 26t-45.5 13q-34 0 -60.5 -21.5t-45.5 -56.5t-31 -77t-17.5 -84t-5.5 -77q0 -60 17 -83.5t46 -23.5z" />
    <glyph glyph-name="A" unicode="A" horiz-adv-x="700" 
d="M-62 0l2 10h19q19 0 33 6t27.5 22.5t32.5 49.5l363 626h64l94 -651q5 -31 17.5 -42t41.5 -11h13l-2 -10h-272l2 10h23q77 0 77 51q0 8 -0.5 17.5t-1.5 16.5l-21 164h-288l-91 -157q-11 -18 -15 -32t-4 -24q0 -36 56 -36h69l-2 -10h-237zM286 473l-118 -204h281l-25 195
q-4 30 -9 71t-9 79t-5 60q-11 -22 -32 -58t-43.5 -75t-39.5 -68z" />
    <glyph glyph-name="B" unicode="B" horiz-adv-x="639" 
d="M-19 0l2 10h13q34 0 61 12.5t37 59.5l117 554q4 16 4 28q0 26 -21.5 33t-50.5 7h-13l2 10h259q115 0 174.5 -38t59.5 -112q0 -62 -31 -102t-84 -61t-119 -26v-1q192 -9 192 -152q0 -105 -73 -163.5t-215 -58.5h-314zM257 379h77q68 0 108 26t57 69.5t17 95.5
q0 65 -33 99.5t-97 34.5h-60zM179 10h77q82 0 130 28.5t68.5 78t20.5 113.5q0 66 -34.5 102.5t-111.5 36.5h-74z" />
    <glyph glyph-name="C" unicode="C" horiz-adv-x="636" 
d="M337 -10q-131 0 -203.5 70t-72.5 198q0 89 29 172.5t83.5 149.5t130.5 105t169 39q89 0 137 -30.5t48 -80.5q0 -36 -26 -57t-66 -21q0 27 -0.5 58t-9 58.5t-29 45t-59.5 17.5q-55 0 -101.5 -29t-83 -78t-61.5 -110.5t-38.5 -127.5t-13.5 -127q0 -116 45 -179t133 -63
q75 0 114 39.5t64 106.5q20 -10 20 -33q0 -27 -21.5 -55.5t-68 -48t-119.5 -19.5z" />
    <glyph glyph-name="D" unicode="D" horiz-adv-x="723" 
d="M-19 0l2 10h13q34 0 61 12.5t37 59.5l117 554q1 7 2.5 14.5t1.5 13.5q0 27 -22.5 33.5t-49.5 6.5h-13l2 10h280q135 0 209.5 -69.5t74.5 -202.5q0 -89 -26 -169t-77 -141.5t-125.5 -96.5t-171.5 -35h-315zM178 11h87q101 0 173 56.5t110.5 156.5t38.5 229
q0 130 -46 190.5t-136 60.5h-79z" />
    <glyph glyph-name="E" unicode="E" horiz-adv-x="621" 
d="M-19 0l2 10h13q33 0 59.5 11t36.5 56l118 555q3 14 3 24q0 32 -20.5 40t-49.5 8h-13l2 10h504l-32 -175h-10q1 7 3.5 28t2.5 34q0 27 -5 50.5t-22.5 38t-56.5 14.5h-190l-69 -325h241l-2 -10h-241l-76 -359h216q44 0 71 16t43.5 44t27.5 62l14 43h10l-44 -175h-536z" />
    <glyph glyph-name="F" unicode="F" horiz-adv-x="586" 
d="M-19 0l2 10h13q33 0 59.5 11.5t37.5 55.5l118 559q4 16 4 28q0 26 -20.5 33t-51.5 7h-13l2 10h504l-32 -175h-10q2 17 4 35t2 28q0 28 -6.5 51t-28.5 37t-68 14h-170l-75 -348h241l-2 -10h-241l-55 -264q-3 -14 -3 -25q0 -31 14.5 -39t34.5 -8h33l-2 -10h-291z" />
    <glyph glyph-name="G" unicode="G" horiz-adv-x="714" 
d="M345 -10q-141 0 -212.5 72t-71.5 196q0 97 31 181.5t88 148.5t136 100t175 36q107 0 159 -32t52 -76q0 -39 -28 -59t-68 -20q0 51 -8 91t-35 63t-83 23q-66 0 -122.5 -38t-98.5 -104.5t-65.5 -151.5t-23.5 -178q0 -72 14.5 -126.5t53 -85t109.5 -30.5q33 0 65 4t54 10
l50 238q4 16 4 28q0 26 -21.5 33t-50.5 7h-9l2 10h266l-2 -10h-4q-28 0 -51.5 -12.5t-33.5 -59.5l-45 -212q-55 -23 -108 -34.5t-118 -11.5z" />
    <glyph glyph-name="H" unicode="H" horiz-adv-x="775" 
d="M-19 0l2 10h13q34 0 61 12.5t37 59.5l117 554q4 16 4 28q0 26 -20.5 33t-51.5 7h-13l2 10h291l-2 -10h-13q-34 0 -60.5 -12.5t-36.5 -59.5l-54 -254h325l55 258q4 16 4 28q0 26 -20.5 33t-51.5 7h-13l2 10h291l-2 -10h-13q-34 0 -60.5 -12.5t-36.5 -59.5l-117 -554
q-4 -16 -4 -28q0 -26 20 -33t52 -7h12l-2 -10h-291l2 10h13q34 0 61 12.5t37 59.5l59 286h-325l-60 -290q-4 -16 -4 -28q0 -26 20 -33t52 -7h13l-3 -10h-291z" />
    <glyph glyph-name="I" unicode="I" horiz-adv-x="349" 
d="M-19 0l1 10h13q34 0 61 12.5t37 59.5l118 554q4 16 4 28q0 26 -20.5 33t-51.5 7h-13l2 10h291l-2 -10h-13q-34 0 -60.5 -12.5t-36.5 -59.5l-118 -554q-4 -16 -4 -28q0 -26 20.5 -33t51.5 -7h13l-2 -10h-291z" />
    <glyph glyph-name="J" unicode="J" horiz-adv-x="357" 
d="M-73 -240q-27 0 -45.5 3t-36.5 8l3 10q13 -5 31.5 -7t33.5 -2q37 0 66 19.5t50.5 67t37.5 132.5l137 645q4 16 4 28q0 26 -20 33t-52 7h-13l2 10h291l-2 -10h-13q-34 0 -60.5 -12.5t-36.5 -59.5l-137 -640q-25 -118 -81.5 -175t-158.5 -57z" />
    <glyph glyph-name="K" unicode="K" horiz-adv-x="702" 
d="M-19 0l2 10h13q34 0 61 12.5t37 59.5l117 554q4 16 4 28q0 26 -20.5 33t-51.5 7h-13l2 10h291l-2 -10h-13q-34 0 -60 -12.5t-37 -59.5l-74 -338l317 291q32 30 46 47.5t14 37.5q0 19 -18.5 26.5t-60.5 7.5l2 10h221l-2 -10q-32 0 -71 -23.5t-80 -61.5l-196 -184l129 -313
q22 -54 39 -83t49 -29h3l-2 -10h-14q-60 0 -94 8.5t-53 29t-33 55.5l-106 266l-93 -80l-40 -201q-4 -16 -4 -28q0 -26 20 -33t52 -7h12l-2 -10h-291z" />
    <glyph glyph-name="L" unicode="L" horiz-adv-x="620" 
d="M-18 0l2 10h13q33 0 59.5 12.5t36.5 59.5l118 554q4 16 4 28q0 26 -20.5 33t-51.5 7h-13l2 10h291l-2 -10h-13q-33 0 -59.5 -11.5t-36.5 -56.5l-134 -626h219q39 0 66.5 18t45.5 48t28 64l22 75h10l-52 -215h-535z" />
    <glyph glyph-name="M" unicode="M" horiz-adv-x="920" 
d="M-18 0l2 10h13q28 0 52.5 4t42.5 18.5t26 44.5l119 559q4 16 4 28q0 26 -27.5 33t-70.5 7h-13l2 10h204l125 -612l358 612h175l-2 -10h-13q-34 0 -60.5 -12.5t-36.5 -59.5l-118 -554q-4 -16 -4 -28q0 -26 20 -33t52 -7h13l-2 -10h-266l2 10h3q32 0 54 10.5t31 52.5
l122 570l-376 -643h-29l-132 659l-123 -581q-4 -16 -4 -28q0 -26 27 -33t69 -7h13l-2 -10h-250z" />
    <glyph glyph-name="N" unicode="N" horiz-adv-x="744" 
d="M-18 0l2 10h13q28 0 51.5 4.5t40.5 20t24 47.5l118 554q4 16 4 28q0 26 -25.5 33t-66.5 7h-13l2 10h195l255 -576l106 498q2 7 3 15.5t1 12.5q0 26 -29 33t-74 7h-13l2 10h251l-2 -10h-13q-27 0 -51 -4t-41.5 -19.5t-24.5 -48.5l-134 -632h-30l-288 652l-123 -574
q-4 -16 -4 -28q0 -26 29 -33t74 -7h13l-2 -10h-250z" />
    <glyph glyph-name="O" unicode="O" horiz-adv-x="742" 
d="M323 -11q-74 0 -133.5 31.5t-94 93.5t-34.5 152q0 58 16 121t48.5 123t80.5 108.5t112 77.5t143 29q69 0 128 -29t95 -89.5t36 -156.5q0 -55 -15.5 -118t-47 -123.5t-79 -110.5t-111.5 -79.5t-144 -29.5zM329 -1q58 0 103.5 32t79 84.5t55.5 116t32.5 127.5t10.5 118
q0 93 -20.5 144.5t-56 72.5t-80.5 21q-58 0 -104 -32t-79.5 -84.5t-55.5 -116t-33 -127.5t-11 -117q0 -94 21 -146t57 -72.5t81 -20.5z" />
    <glyph glyph-name="P" unicode="P" horiz-adv-x="619" 
d="M-18 0l2 10h13q33 0 59.5 12.5t36.5 59.5l118 554q4 16 4 28q0 26 -20.5 33t-51.5 7h-13l2 10h256q105 0 166.5 -49t61.5 -144q0 -38 -12 -80t-44.5 -79t-93 -60.5t-156.5 -23.5h-74l-43 -200q-4 -16 -4 -28q0 -26 14.5 -33t37.5 -7h33l-2 -10h-290zM238 288h53
q81 0 129 31.5t69 88t21 130.5q0 86 -32 126t-106 40h-46z" />
    <glyph glyph-name="Q" unicode="Q" horiz-adv-x="741" 
d="M460 -226q-72 0 -113 29t-59 79t-20 112q-60 10 -107 44t-73.5 91.5t-26.5 136.5q0 58 16 121t48.5 123t80.5 108.5t112 77.5t143 29q69 0 128 -29t95 -89.5t36 -156.5q0 -52 -13.5 -110t-41 -115t-68.5 -106t-96 -82.5t-125 -43.5q4 -110 32 -156.5t81 -46.5
q21 0 37.5 3t30.5 7l2 -10q-19 -6 -41.5 -11t-57.5 -5zM329 -1q58 0 103.5 31t79 82.5t55.5 114.5t32.5 128t10.5 122q0 88 -19.5 140t-54 75t-80.5 23q-58 0 -104 -31t-80.5 -82.5t-57 -114.5t-33.5 -128t-11 -121q0 -89 19 -141.5t55 -75t85 -22.5z" />
    <glyph glyph-name="R" unicode="R" horiz-adv-x="659" 
d="M-18 0l2 10h13q32 0 58.5 11t36.5 56l119 559l2.5 15t1.5 13q0 26 -20.5 33t-51.5 7h-13l2 10h262q229 0 229 -170q0 -49 -17.5 -83t-45.5 -57t-61 -37t-64 -23l70 -223q17 -55 32.5 -83t48.5 -28h8l-2 -10h-13q-59 0 -94.5 9.5t-56 35t-32.5 72.5l-58 216h-90l-55 -255
q-4 -16 -4 -28q0 -26 20.5 -33t51.5 -7h33l-2 -10h-310zM250 343h77q87 0 138.5 45.5t51.5 155.5q0 88 -30.5 124t-92.5 36h-68z" />
    <glyph glyph-name="S" unicode="S" horiz-adv-x="544" 
d="M229 -10q-73 0 -122.5 19.5t-74.5 52t-25 71.5q0 38 24 57t53 19q0 -57 13.5 -104.5t45 -76t86.5 -28.5q81 0 120 45.5t39 122.5q0 30 -9 54t-36 48t-81 55q-63 36 -102.5 83t-39.5 123q0 55 29 98.5t83.5 69t130.5 25.5q87 0 138.5 -30t51.5 -78q0 -31 -18.5 -50
t-59.5 -19q0 27 -2.5 56t-12.5 54.5t-33 41t-64 15.5q-60 0 -102 -40.5t-42 -125.5q0 -37 13.5 -62t41.5 -46t69 -45q75 -43 111.5 -89t36.5 -106q0 -100 -70 -155t-192 -55z" />
    <glyph glyph-name="T" unicode="T" horiz-adv-x="613" 
d="M98 0l2 10h13q87 0 103 72l132 622h-82q-50 0 -82.5 -12t-53 -41t-33.5 -79l-9 -33h-10l43 175h561l-31 -175h-10q5 31 7 48.5t2 29.5q0 49 -27 68t-90 19h-84l-132 -622q-3 -12 -3 -21q0 -51 74 -51h13l-2 -10h-301z" />
    <glyph glyph-name="U" unicode="U" horiz-adv-x="713" 
d="M329 -10q-109 0 -168 45t-59 128q0 16 3.5 44t7.5 45l81 384q4 16 4 28q0 26 -20 33t-52 7h-13l2 10h291l-1 -10h-13q-33 0 -60.5 -12.5t-37.5 -59.5l-82 -385q-5 -25 -8.5 -49.5t-3.5 -50.5q0 -71 34 -109t98 -38q82 0 134.5 27.5t81.5 74t41 104.5l92 430q4 16 4 28
q0 26 -20.5 33t-51.5 7h-13l2 10h200l-1 -10h-13q-33 0 -60.5 -12.5t-37.5 -59.5l-91 -428q-21 -100 -86 -157t-184 -57z" />
    <glyph glyph-name="V" unicode="V" horiz-adv-x="675" 
d="M250 0l-89 651q-5 31 -18 42t-42 11h-13l3 10h272l-2 -10h-23q-32 0 -52 -10t-20 -39q0 -8 0.5 -18.5t1.5 -17.5l44 -357q7 -50 11.5 -93t8.5 -78q20 37 42 79t49 92l189 350q19 35 19 54q0 38 -71 38h-40l2 10h244l-3 -10h-19q-35 0 -60 -14t-52 -64l-339 -626h-43z" />
    <glyph glyph-name="W" unicode="W" horiz-adv-x="1045" 
d="M224 0l-55 651q-3 31 -17 42t-43 11h-13l2 10h272l-2 -10h-23q-32 0 -52 -13.5t-20 -37.5q0 -8 0.5 -17.5t1.5 -16.5l27 -352q3 -46 5 -74.5t3.5 -46.5t2 -32t1.5 -30q16 35 33.5 70.5t44.5 91.5l219 461h42l53 -433q7 -60 12 -108t7 -76q15 32 34.5 74t46.5 98l168 350
q9 19 13 30.5t4 25.5q0 19 -13.5 27.5t-45.5 8.5h-32l2 10h224l-3 -10h-19q-24 0 -43 -5t-35.5 -21.5t-33.5 -51.5l-301 -626h-62l-66 582l-278 -582h-61z" />
    <glyph glyph-name="X" unicode="X" horiz-adv-x="660" 
d="M-49 0l2 10h4q35 0 67 13t71 59l217 256l-109 315q-10 29 -28.5 40t-49.5 11h-13l2 10h271l-2 -10h-23q-25 0 -35 -7t-10 -21q0 -10 4.5 -24t11.5 -36l60 -198l160 196q15 17 24 31t9 30q0 29 -65 29h-19l2 10h219l-2 -10h-9q-34 0 -66 -16t-67 -59l-182 -222l119 -344
q11 -31 28 -42t41 -11h13l-2 -10h-270l2 10h11q30 0 46 10t16 25q0 14 -4 27.5t-13 41.5l-66 213l-186 -220q-17 -20 -28 -34.5t-11 -30.5q0 -18 17.5 -25t57.5 -7h24l-2 -10h-237z" />
    <glyph glyph-name="Y" unicode="Y" horiz-adv-x="625" 
d="M104 0l2 10h23q33 0 59.5 11t36.5 56l46 216l-109 358q-9 29 -20 41t-40 12h-13l2 10h270l-2 -10h-50q-39 0 -39 -27q0 -13 3 -26.5t8 -31.5l55 -202l16 -58l16 -58q16 24 33.5 48t34.5 48l150 211q31 42 31 65q0 16 -11 23.5t-38 7.5h-63l2 10h217l-2 -10h-19
q-23 0 -43 -19t-48 -57l-240 -337l-46 -213q-4 -16 -4 -28q0 -26 20 -33t52 -7h23l-2 -10h-311z" />
    <glyph glyph-name="Z" unicode="Z" horiz-adv-x="605" 
d="M-20 0l2 10l525 694h-239q-68 0 -101.5 -32.5t-50.5 -85.5l-14 -47h-10l42 175h494l-2 -10l-526 -694h261q54 0 86.5 17t51.5 46t30 67l11 35h10l-42 -175h-528z" />
    <glyph glyph-name="bracketleft" unicode="[" horiz-adv-x="314" 
d="M-24 -128l189 888h223l-2 -10h-43q-34 0 -60.5 -12.5t-36.5 -59.5l-156 -728q-4 -16 -4 -28q0 -26 20 -33t52 -7h43l-2 -10h-223z" />
    <glyph glyph-name="backslash" unicode="\" horiz-adv-x="240" 
d="M147 -121l-42 881h9l43 -881h-10z" />
    <glyph glyph-name="bracketright" unicode="]" horiz-adv-x="313" 
d="M-53 -128l2 10h43q33 0 59.5 12.5t36.5 59.5l156 728q4 16 4 28q0 26 -20 33t-52 7h-43l2 10h223l-189 -888h-222z" />
    <glyph glyph-name="asciicircum" unicode="^" horiz-adv-x="559" 
d="M81 261l184 453h24l186 -453h-22l-176 433l-174 -433h-22z" />
    <glyph glyph-name="underscore" unicode="_" horiz-adv-x="459" 
d="M-87 -123l4 20h468l-4 -20h-468z" />
    <glyph glyph-name="grave" unicode="`" horiz-adv-x="259" 
d="M281 606q-21 20 -49 49t-52.5 56t-35.5 45l2 10h90q9 -34 26 -76t31 -74l-2 -10h-10z" />
    <glyph glyph-name="a" unicode="a" horiz-adv-x="580" 
d="M162 -10q-44 0 -73 24t-42.5 65.5t-13.5 93.5q0 47 12.5 98.5t37.5 100t61 88t83 63t104 23.5q41 0 65 -11.5t43 -29.5l53 30h32l-68 -320q-2 -11 -6 -32t-6.5 -43t-2.5 -36q0 -80 41 -80q16 0 35 9t41 25l6 -8q-14 -13 -38 -27t-51 -23.5t-52 -9.5q-36 0 -57 22t-21 61
q0 20 2 36.5t6 41.5h-1q-35 -77 -82.5 -119t-107.5 -42zM205 17q27 0 52 20t46.5 50.5t36 63t19.5 56.5l60 292q-11 18 -32 27t-44 9q-41 0 -73.5 -25t-58 -65.5t-42.5 -89.5t-25.5 -97.5t-8.5 -88.5q0 -82 20 -117t50 -35z" />
    <glyph glyph-name="b" unicode="b" horiz-adv-x="563" 
d="M232 -10q-65 0 -109 41l-53 -34h-32l139 653q5 20 7 32.5t2 20.5q0 30 -21 38.5t-49 8.5h-8l2 10h189l-48 -225q-4 -19 -10.5 -44.5t-13.5 -49.5t-11 -38h2q37 67 80.5 105t104.5 38q59 0 93 -46t34 -135q0 -61 -20 -126.5t-58.5 -122t-94 -91.5t-125.5 -35zM225 1
q41 0 73.5 25.5t57 68t40.5 93.5t24 102t8 93q0 74 -15 108.5t-45 34.5t-57 -20.5t-48 -50.5t-35 -60t-18 -49l-67 -309q13 -16 33.5 -26t48.5 -10z" />
    <glyph glyph-name="c" unicode="c" horiz-adv-x="481" 
d="M234 -10q-90 0 -142.5 51.5t-52.5 155.5q0 55 17 116t53 114t92.5 86t135.5 33q75 0 110.5 -29.5t35.5 -66.5q0 -28 -24.5 -49t-67.5 -21q1 9 1.5 19.5t0.5 20.5q0 53 -15 84.5t-51 31.5q-43 0 -77 -33.5t-58 -87t-36.5 -113.5t-12.5 -113q0 -89 24 -138.5t81 -49.5
q40 0 66.5 17t44 45.5t30.5 61.5q18 -7 18 -25q0 -22 -18.5 -47.5t-56.5 -44t-98 -18.5z" />
    <glyph glyph-name="d" unicode="d" horiz-adv-x="580" 
d="M162 -10q-44 0 -73 24t-42.5 65.5t-13.5 93.5q0 47 12.5 98.5t37.5 100t61 88t83 63t104 23.5q28 0 52 -7t43 -17q2 14 5 27t7 29l18 80q3 14 5.5 27t2.5 24q0 25 -18 33t-47 8h-13l2 10h184l-116 -545q-2 -11 -6 -32t-6.5 -43t-2.5 -36q0 -80 42 -80q17 0 37 10t39 24
l5 -8q-14 -13 -38 -27t-51 -23.5t-52 -9.5q-36 0 -57 22t-21 61q0 13 2.5 33t7.5 45h-3q-34 -77 -82.5 -119t-107.5 -42zM205 17q24 0 47.5 17t44.5 44t36.5 58.5t21.5 60.5l67 312q-13 10 -34.5 17.5t-47.5 7.5q-40 0 -72.5 -24.5t-57.5 -65.5t-41.5 -89.5t-25 -97
t-8.5 -88.5q0 -82 20 -117t50 -35z" />
    <glyph glyph-name="e" unicode="e" horiz-adv-x="479" 
d="M233 -10q-53 0 -97.5 23t-71 68.5t-26.5 115.5q0 55 19 116t57 114t93.5 86t128.5 33q63 0 98 -30.5t35 -84.5q0 -48 -37.5 -89.5t-102.5 -67.5t-147 -26h-35q-5 -30 -5 -59q0 -90 25.5 -139.5t74.5 -49.5q57 0 91 35t52 90q21 -6 21 -30q0 -19 -18.5 -44t-56.5 -43
t-98 -18zM149 258h27q88 0 139 49t51 131q0 97 -54 97q-30 0 -56 -24.5t-47 -65.5t-36 -90t-24 -97z" />
    <glyph glyph-name="f" unicode="f" horiz-adv-x="317" 
d="M-88 -240q-15 0 -31.5 2.5t-26.5 5.5l2 10q8 -2 21.5 -4.5t24.5 -2.5q35 0 58.5 22t40.5 70.5t34 127.5l115 535h-92l1 6l92 4l11 55q16 85 62 132t128 47q64 0 96.5 -20.5t32.5 -53.5t-21.5 -49t-61.5 -16q1 53 -8 91t-40 38q-38 0 -56 -36t-36 -124l-13 -64h111l-2 -10
h-111l-114 -534q-19 -90 -49 -140.5t-72 -71t-96 -20.5z" />
    <glyph glyph-name="g" unicode="g" horiz-adv-x="556" 
d="M170 -240q-218 0 -218 128q0 60 52 94t140 36q-45 15 -61 37.5t-16 47.5q0 30 25.5 58t81.5 38q-82 31 -82 124q0 35 14 74t42.5 73t72.5 55t103 21q30 0 56.5 -8t46.5 -24q19 29 46.5 50t61.5 21q25 0 37.5 -13t12.5 -33q0 -22 -12.5 -42t-46.5 -20q0 24 -9.5 40.5
t-32.5 16.5q-28 0 -49 -26q36 -39 36 -95q0 -34 -13.5 -72.5t-41.5 -73t-71.5 -56.5t-102.5 -22q-15 0 -29.5 1.5t-28.5 5.5q-28 -10 -42.5 -24t-14.5 -36q0 -20 18.5 -28t50.5 -11l90 -9q74 -8 114.5 -39.5t40.5 -91.5q0 -90 -68 -143.5t-203 -53.5zM248 199q35 0 60 22.5
t41 57.5t23.5 74t7.5 73q0 110 -59 110q-37 0 -63.5 -22t-42.5 -56.5t-23.5 -71.5t-7.5 -67q0 -64 17 -92t47 -28zM172 -230q66 0 106 21.5t58 55.5t18 71q0 40 -22 60t-71 25l-102 10q-51 -6 -88.5 -34.5t-37.5 -82.5q0 -56 30 -91t109 -35z" />
    <glyph glyph-name="h" unicode="h" horiz-adv-x="595" 
d="M456 -10q-44 0 -67.5 28t-23.5 72q0 46 19 135l17 78q5 20 13 58t8 73q0 18 -4 37.5t-15.5 33t-34.5 13.5q-28 0 -55.5 -20t-50.5 -50t-38.5 -62.5t-20.5 -56.5l-70 -329h-93l137 650q5 20 7 34t2 19q0 30 -21 38.5t-49 8.5h-8l2 10h184l-39 -184q-11 -53 -22.5 -100
t-16.5 -66h4q42 66 87.5 100.5t103.5 34.5q59 0 83 -33.5t24 -77.5q0 -25 -6.5 -54.5t-11.5 -55.5l-26 -118q-6 -28 -9.5 -55t-3.5 -50q0 -74 52 -74q23 0 59 28l6 -8q-24 -20 -53.5 -38.5t-68.5 -18.5z" />
    <glyph glyph-name="i" unicode="i" horiz-adv-x="302" 
d="M220 636q-20 0 -33 11.5t-13 38.5q0 33 14 49t36 16q20 0 33 -10.5t13 -39.5q0 -38 -16 -51.5t-34 -13.5zM151 -10q-40 0 -61.5 29t-21.5 74q0 21 4 48.5t9 54t9 46.5l46 216q3 15 3 26q0 27 -16.5 34.5t-44.5 7.5h-13l2 10h179l-68 -321q-2 -11 -6 -32t-6.5 -43
t-2.5 -36q0 -73 43 -73q22 0 39 7.5t35 19.5l6 -8q-22 -20 -60 -40t-75 -20z" />
    <glyph glyph-name="j" unicode="j" horiz-adv-x="291" 
d="M225 636q-20 0 -33 11t-13 39q0 33 13.5 49t36.5 16q19 0 32.5 -10.5t13.5 -39.5q0 -40 -16 -52.5t-34 -12.5zM-82 -240q-15 0 -31.5 2.5t-26.5 5.5l2 10q8 -2 21.5 -4.5t24.5 -2.5q52 0 82 51t52 170l99 466q3 15 3 26q0 27 -16.5 34.5t-44.5 7.5h-13l2 10h179
l-115 -544q-19 -89 -49.5 -139.5t-72.5 -71.5t-96 -21z" />
    <glyph glyph-name="k" unicode="k" horiz-adv-x="576" 
d="M511 -7q-55 1 -87 9t-52.5 29.5t-40.5 63.5l-86 179l-67 -58l-45 -216h-93l137 650q9 40 9 53q0 30 -21 38.5t-49 8.5h-8l2 10h184l-39 -184q-5 -23 -12.5 -58.5t-16.5 -77t-18 -82t-16 -74t-11 -52.5l206 178q43 37 58 54t15 34q0 13 -17.5 20.5t-70.5 7.5l2 10h221
l-2 -10q-40 0 -82.5 -30t-94.5 -75l-103 -89l110 -213q19 -35 31.5 -61.5t27 -40.5t38.5 -14l-2 -10h-7z" />
    <glyph glyph-name="l" unicode="l" horiz-adv-x="306" 
d="M156 -10q-40 0 -61.5 28t-21.5 67q0 21 4 50t9 58t9 49l89 416q3 14 4.5 27t1.5 18q0 30 -21 38.5t-49 8.5h-12l2 10h189l-116 -545q-3 -11 -6.5 -32t-6.5 -43t-3 -36q0 -37 10 -55t36 -18q17 0 35 7.5t37 19.5l5 -8q-22 -20 -59 -40t-75 -20z" />
    <glyph glyph-name="m" unicode="m" horiz-adv-x="898" 
d="M759 -10q-44 0 -67.5 28t-23.5 72q0 46 19 135l17 78q4 20 12.5 57.5t8.5 69.5q0 16 -2.5 35t-15.5 33t-43 14q-26 0 -49.5 -16t-43 -38.5t-33 -44t-19.5 -32.5l-39 -175q-3 -14 -8 -43t-9.5 -62.5t-8 -61.5t-3.5 -39h-95q0 12 3.5 39.5t8.5 62t11 67.5t11 56l17 78
q5 20 13 57.5t8 69.5q0 20 -5 39t-18.5 31t-40.5 12t-52 -18.5t-46 -44.5t-34 -50t-15 -35l-78 -364h-93l91 434q3 14 4.5 27t1.5 18q0 30 -20.5 38.5t-49.5 8.5h-8l2 10h185l-27 -126h2q42 66 86.5 100.5t103.5 34.5t83 -33.5t24 -77.5q0 -6 -0.5 -12t-1.5 -12h2
q42 66 87 100.5t103 34.5q59 0 83 -33.5t24 -77.5q0 -25 -6.5 -54.5t-11.5 -55.5l-26 -118q-6 -28 -9.5 -55t-3.5 -50q0 -35 11.5 -54t35.5 -19q31 0 65 27l5 -8q-24 -20 -53.5 -38.5t-68.5 -18.5z" />
    <glyph glyph-name="n" unicode="n" horiz-adv-x="601" 
d="M462 -10q-44 0 -67.5 28t-23.5 72q0 46 19 135l17 78q5 20 13 57.5t8 68.5q0 17 -4 36t-17.5 33t-40.5 14t-52.5 -18t-46.5 -44t-34.5 -50t-15.5 -36l-78 -364h-93l91 434q3 14 4.5 27t1.5 18q0 30 -20.5 38.5t-49.5 8.5h-8l2 10h185l-27 -126h2q42 66 87 100.5t103 34.5
q59 0 83 -33.5t24 -77.5q0 -25 -6.5 -54.5t-11.5 -55.5l-26 -118q-6 -28 -9.5 -57t-3.5 -54q0 -66 47 -66q32 0 64 26l6 -8q-24 -20 -53.5 -38.5t-68.5 -18.5z" />
    <glyph glyph-name="o" unicode="o" horiz-adv-x="564" 
d="M230 -10q-85 0 -138.5 51.5t-53.5 155.5q0 55 18 116t55 114t93 86t132 33q52 0 95.5 -21t69 -67t25.5 -119q0 -43 -11 -90.5t-34 -93.5t-58 -83t-83 -59.5t-110 -22.5zM232 0q41 0 72 23.5t53.5 62.5t37 86t21 95t6.5 89q0 97 -23 138.5t-69 41.5q-40 0 -71 -23.5
t-53.5 -62.5t-36.5 -86.5t-20.5 -95.5t-6.5 -89q0 -98 24.5 -138.5t65.5 -40.5z" />
    <glyph glyph-name="p" unicode="p" horiz-adv-x="568" 
d="M-6 -240l140 666q4 20 6.5 34t2.5 19q0 30 -20.5 38.5t-49.5 8.5h-8l2 10h177l-24 -133h2q20 39 46.5 71.5t60.5 52t79 19.5q61 0 94 -46.5t33 -134.5q0 -43 -12 -93.5t-35.5 -100.5t-59 -91t-83.5 -65.5t-108 -24.5q-29 0 -51 7.5t-43 21.5q-4 -15 -6 -26t-6 -28
l-21 -93q-2 -6 -5.5 -25.5t-3.5 -30.5q0 -30 20.5 -38t49.5 -8h13l-2 -10h-188zM234 1q38 0 69.5 24.5t55.5 64.5t40.5 88.5t25 97.5t8.5 90q0 37 -5 71.5t-20.5 56.5t-44.5 22q-27 0 -52 -18t-45.5 -45.5t-34 -55.5t-17.5 -48l-68 -319q12 -8 32.5 -18.5t55.5 -10.5z" />
    <glyph glyph-name="q" unicode="q" horiz-adv-x="549" 
d="M269 -240l42 200q3 17 9.5 45t14 58.5t13 54.5t7.5 33h-2q-19 -41 -45.5 -78t-62 -60t-83.5 -23q-58 0 -93.5 46.5t-35.5 136.5q0 47 12.5 98.5t37.5 100t61 88t83 63t104 23.5q37 0 63 -8.5t42 -21.5l56 30h35l-145 -684q-3 -14 -4.5 -27t-1.5 -18q0 -30 20 -38.5
t49 -8.5h8l-2 -10h-182zM210 18q24 0 48 18t44.5 46t34.5 59.5t20 58.5l64 308q-13 11 -31.5 19t-46.5 8q-43 0 -76.5 -26t-58 -68t-41 -91.5t-24.5 -97.5t-8 -84q0 -81 21 -115.5t54 -34.5z" />
    <glyph glyph-name="r" unicode="r" horiz-adv-x="478" 
d="M56 0l91 434q3 14 4.5 27t1.5 18q0 30 -25.5 38.5t-54.5 8.5h-8l2 10h183l-23 -144h2q19 41 42 76t54 56.5t78 21.5q42 0 62 -19.5t20 -49.5q0 -35 -20.5 -55.5t-64.5 -20.5q1 8 1 15.5v14.5q0 37 -10.5 59t-39.5 22q-21 0 -42 -18.5t-39.5 -46.5t-31 -57.5t-17.5 -51.5
l-72 -338h-93z" />
    <glyph glyph-name="s" unicode="s" horiz-adv-x="464" 
d="M190 -10q-75 0 -120 30t-45 83q0 27 12.5 41t28.5 19.5t28 5.5q-1 -8 -1.5 -16.5t-0.5 -15.5q0 -57 24 -97t78 -40q53 0 84.5 31t31.5 85q0 46 -23 73t-78 52q-55 26 -88 60.5t-33 94.5q0 64 52 106.5t141 42.5q55 0 89 -14t50.5 -36t16.5 -45q0 -32 -21.5 -47t-53.5 -15
q1 8 1.5 15t0.5 15q0 49 -20.5 83t-69.5 34q-56 0 -77.5 -32.5t-21.5 -72.5q0 -46 24.5 -71t77.5 -49q55 -25 87.5 -61t32.5 -94q0 -73 -55.5 -119t-151.5 -46z" />
    <glyph glyph-name="t" unicode="t" horiz-adv-x="367" 
d="M183 -10q-109 0 -109 117q0 18 3 41.5t7 42.5l71 335h-76l2 10q55 0 89 12t56 39t41 72h10l-26 -123h121l-2 -10h-121l-71 -332q-5 -25 -8.5 -47.5t-3.5 -38.5q0 -45 18 -64.5t51 -19.5q19 0 40.5 6.5t37.5 16.5l5 -9q-30 -21 -64 -34.5t-71 -13.5z" />
    <glyph glyph-name="u" unicode="u" horiz-adv-x="601" 
d="M457 -10q-40 0 -62 28t-22 67q0 11 1 27t3 32h-3q-26 -44 -53.5 -78.5t-62.5 -54.5t-81 -20q-59 0 -83 33.5t-24 77.5q0 25 6 54.5t12 55.5l46 207q3 14 6 33t3 27q0 30 -20.5 38.5t-49.5 8.5h-8l2 10h186l-66 -299q-4 -18 -8.5 -41.5t-8 -46.5t-3.5 -37q0 -42 12.5 -67
t46.5 -25q24 0 49.5 18t48.5 47t39 60.5t22 58.5l71 332h97l-69 -321q-2 -11 -6 -32t-6.5 -43t-2.5 -36q0 -78 45 -78q16 0 31 6.5t34 20.5l5 -7q-22 -20 -56 -38t-71 -18z" />
    <glyph glyph-name="v" unicode="v" horiz-adv-x="508" 
d="M163 -9l-75 482q-5 31 -19 42t-39 11h-10l2 10h150l46 -296q10 -62 17 -121t11 -91h1q55 56 101.5 120.5t75 126t28.5 110.5q0 44 -28 60t-74 16q0 41 22 60.5t46 19.5q32 0 50 -21.5t18 -71.5q0 -47 -17.5 -98t-46 -101.5t-62 -97t-67.5 -85.5t-61 -66z" />
    <glyph glyph-name="w" unicode="w" horiz-adv-x="813" 
d="M446 -10q0 48 -2.5 113t-5.5 137t-5.5 141t-3.5 124q-10 -27 -28.5 -70t-42.5 -95t-49.5 -105.5t-49 -101.5t-41.5 -83.5t-26 -49.5l-75 -9l-8 463q-1 46 -15 59t-39 13h-10l3 10h150q1 -51 2 -113.5t2 -129t1 -130t-1 -116.5h2q24 43 53.5 102.5t60 126.5t59.5 132
t51 119l83 4q3 -29 5.5 -75t5 -102t4.5 -115t3 -114.5t1 -99.5h2q61 75 112 145t82 130.5t31 108.5q0 35 -18.5 52.5t-54.5 25.5q3 24 18.5 41.5t40.5 17.5t39 -18.5t14 -56.5q0 -59 -34 -130.5t-95 -156t-142 -185.5z" />
    <glyph glyph-name="x" unicode="x" horiz-adv-x="537" 
d="M-22 0l2 10h13q23 0 42.5 4t39.5 18t43 45l126 171l-78 206q-15 40 -26.5 56t-36.5 16h-13l2 10h143l75 -220l151 220h96l-3 -10h-13q-27 0 -58 -13.5t-63 -57.5l-106 -150l81 -223q11 -30 18 -45.5t17 -21t29 -5.5h13l-2 -10h-144l-79 237l-169 -237h-100z" />
    <glyph glyph-name="y" unicode="y" horiz-adv-x="520" 
d="M-65 -240q-53 0 -94 18l3 10q12 -4 30.5 -7.5t53.5 -3.5q99 0 174.5 43t127.5 119l-151 534q-8 30 -19 41.5t-40 11.5h-10l2 10h151l73 -270q5 -20 13.5 -53.5t18 -70.5t16.5 -67t10 -43h1q32 48 62.5 100t55.5 102.5t39.5 93t14.5 71.5q0 33 -21.5 52.5t-78.5 19.5
q0 36 20.5 55t44.5 19q32 0 50 -21t18 -63q0 -78 -48 -180t-128 -224q-49 -76 -90.5 -132t-83.5 -92.5t-93.5 -54.5t-121.5 -18z" />
    <glyph glyph-name="z" unicode="z" horiz-adv-x="501" 
d="M-1 0l2 10l364 516h-130q-55 0 -88 -28.5t-52 -93.5l-3 -10h-10l40 142h350l-2 -10l-382 -516h175q47 0 76 13.5t47 42t34 73.5l8 23h10l-39 -162h-400z" />
    <glyph glyph-name="braceleft" unicode="{" horiz-adv-x="428" 
d="M232 -128q-58 0 -88.5 26t-30.5 75q0 10 1.5 20.5t3.5 21.5l36 169q3 14 4 22t1 16q0 50 -27.5 69t-68.5 21l2 10q33 2 63 12.5t51 36t30 72.5l37 173q10 44 26 76.5t51 50t98 17.5h66l-2 -10h-30q-48 0 -73 -29.5t-36 -85.5l-40 -195q-12 -50 -50.5 -81.5t-106.5 -41.5
v-2q109 -15 109 -92q0 -7 -1 -15t-3 -16l-37 -172q-3 -13 -5 -27t-2 -31q0 -35 13.5 -57.5t46.5 -22.5h30l-2 -10h-66z" />
    <glyph glyph-name="bar" unicode="|" horiz-adv-x="559" 
d="M269 -240v1000h20v-1000h-20z" />
    <glyph glyph-name="braceright" unicode="}" horiz-adv-x="427" 
d="M-39 -128l2 10h30q50 0 75 35.5t37 102.5l37 173q11 49 47 81t100 43v2q-99 17 -99 91q0 8 1 15.5t3 15.5l37 171q3 14 5 28t2 29q0 37 -15 59t-45 22h-30l2 10h66q58 0 88.5 -26t30.5 -75q0 -10 -1.5 -20.5t-3.5 -21.5l-37 -174q-4 -16 -4 -32q0 -50 26.5 -68.5
t68.5 -20.5l-2 -10q-33 -2 -62.5 -12.5t-50.5 -36.5t-30 -73l-37 -174q-10 -44 -26.5 -76.5t-51 -50t-97.5 -17.5h-66z" />
    <glyph glyph-name="asciitilde" unicode="~" horiz-adv-x="559" 
d="M83 277q5 23 10.5 50t16.5 52t30 41t49 16q35 0 62 -21t52 -46q25 -26 50 -49t55 -23t46 22.5t24.5 55t15.5 61.5h19q-3 -18 -9 -45t-17.5 -53t-31 -43.5t-49.5 -17.5q-38 0 -65.5 25.5t-53.5 54.5q-23 25 -45.5 42t-51.5 17q-42 0 -58.5 -39t-28.5 -100h-20z" />
    <glyph glyph-name="uni00A0" unicode="&#xa0;" horiz-adv-x="250" 
 />
    <glyph glyph-name="exclamdown" unicode="&#xa1;" horiz-adv-x="332" 
d="M191 333l-59 -513h-116l160 513h15zM220 542q21 0 33 -11t12 -36q0 -35 -18 -63t-51 -28q-20 0 -32.5 11t-12.5 37q0 35 17 62.5t52 27.5z" />
    <glyph glyph-name="cent" unicode="&#xa2;" horiz-adv-x="559" 
d="M243 0l19 87q-84 5 -132 56t-48 151q0 56 17 116.5t53 113.5t92.5 86t135.5 33l15 71h10l-15 -71q70 -2 103 -31t33 -65q0 -29 -24.5 -49.5t-67.5 -20.5q1 9 1.5 19.5t0.5 20.5q0 46 -11 76t-38 38l-113 -532q8 -1 17 -1q40 0 66.5 17t44 45t30.5 62q18 -7 18 -25
q0 -22 -18.5 -47.5t-56.5 -44t-98 -18.5h-5l-19 -87h-10zM186 286q0 -78 18 -126t61 -59l113 532h-8q-43 0 -77 -33.5t-58 -87t-36.5 -113.5t-12.5 -113z" />
    <glyph glyph-name="sterling" unicode="&#xa3;" horiz-adv-x="559" 
d="M336 -10q-27 0 -47 7t-39.5 16.5t-42.5 16.5t-56 7t-59.5 -7t-52.5 -20l-21 -11l-4 9l35 20q33 19 62.5 53t48 82.5t18.5 111.5q0 17 -3 38t-7 44h-103l2 10h99q-5 31 -10.5 63t-5.5 58q0 112 67 174t177 62q81 0 123.5 -29t42.5 -69q0 -38 -21.5 -58.5t-61.5 -20.5
q1 83 -20 125t-72 42q-71 0 -109 -56.5t-38 -151.5q0 -39 5.5 -72.5t10.5 -66.5h164l-2 -10h-160q2 -17 4 -35t2 -38q0 -54 -25.5 -97t-61 -76t-67.5 -56l1 -2q29 15 47.5 26t35 17t40.5 6q30 0 60.5 -13.5t60 -27t57.5 -13.5q29 0 47.5 10.5t41.5 30.5l7 -7
q-16 -16 -43 -38t-60 -38t-67 -16z" />
    <glyph glyph-name="currency" unicode="&#xa4;" horiz-adv-x="559" 
d="M125 143l-42 42l65 66q-33 47 -33 107q0 61 34 107l-66 66l42 42l65 -66q22 17 49.5 26t58.5 9q29 0 56.5 -9t49.5 -26l67 67l42 -43l-66 -66q17 -23 26 -50t9 -57t-9 -57t-26 -50l66 -66l-41 -42l-67 66q-23 -16 -50 -25t-57 -9q-61 0 -107 34zM298 230q36 0 65 17.5
t46 46.5t17 64q0 36 -17 65t-46 46.5t-65 17.5q-35 0 -64 -17.5t-46 -46.5t-17 -65q0 -35 17 -64t46 -46.5t64 -17.5z" />
    <glyph glyph-name="yen" unicode="&#xa5;" horiz-adv-x="559" 
d="M69 0l2 10h23q33 0 59.5 11t36.5 56l23 111h-139l2 10h139l22 103h-139l2 10h136l-85 340q-7 30 -15.5 41.5t-37.5 11.5h-4l2 10h234l-2 -10h-4q-34 0 -53.5 -6.5t-19.5 -27.5q0 -25 11 -72l30 -132q9 -38 17.5 -76.5t17.5 -76.5q18 29 39 61t34 52l116 179
q13 20 21 35.5t8 31.5t-16 24t-54 8h-36l2 10h204l-2 -10h-9q-17 0 -30 -6t-27 -23t-35 -49l-205 -315h140l-2 -10h-141l-22 -103h141l-2 -10h-141l-23 -110q-4 -16 -4 -28q0 -26 20.5 -33t51.5 -7h23l-2 -10h-307z" />
    <glyph glyph-name="brokenbar" unicode="&#xa6;" horiz-adv-x="559" 
d="M268 360v400h20v-400h-20zM268 -240v400h20v-400h-20z" />
    <glyph glyph-name="section" unicode="&#xa7;" horiz-adv-x="544" 
d="M190 -115q-75 0 -122.5 30.5t-47.5 82.5q0 27 11 41t25.5 19.5t26.5 5.5q0 -46 10 -84t35 -61.5t69 -23.5q43 0 76 19.5t51 52.5t18 73q0 25 -8.5 46t-39 45.5t-95.5 60.5q-64 35 -87.5 73t-23.5 80q0 52 29 84.5t65 52.5q-11 16 -20.5 40.5t-9.5 56.5q0 57 28.5 97.5
t77 62t107.5 21.5q73 0 115.5 -30t42.5 -70t-20.5 -54.5t-60.5 -14.5q0 45 -6 80.5t-26 56.5t-62 21q-28 0 -55.5 -14.5t-45.5 -44.5t-18 -76q0 -32 11.5 -54t40.5 -42t80 -48q65 -35 93.5 -71.5t28.5 -80.5q0 -45 -28 -81t-67 -61q10 -14 19 -34.5t9 -51.5
q0 -56 -26.5 -103t-77 -74.5t-122.5 -27.5zM382 184q10 19 18 40t8 48q0 26 -21.5 54.5t-81.5 61.5q-36 20 -65.5 40t-52.5 47q-13 -16 -21 -36.5t-8 -48.5q0 -36 25 -63.5t91 -63.5q30 -18 58.5 -37.5t49.5 -41.5z" />
    <glyph glyph-name="dieresis" unicode="&#xa8;" horiz-adv-x="577" 
d="M470 632q-20 0 -31.5 12t-11.5 38q0 28 12.5 45.5t34.5 17.5q19 0 31 -12.5t12 -37.5q0 -35 -15 -49t-32 -14zM280 632q-20 0 -31.5 12t-11.5 38q0 28 12.5 45.5t34.5 17.5q19 0 31 -12.5t12 -37.5q0 -35 -15 -49t-32 -14z" />
    <glyph glyph-name="copyright" unicode="&#xa9;" horiz-adv-x="845" 
d="M441 -10q-80 0 -147 27t-116.5 76.5t-76.5 117t-27 147.5t27 147t76 116t116.5 76.5t147.5 27.5t147.5 -27t117 -76.5t76.5 -117t27 -147.5t-27 -147t-76.5 -116.5t-117 -76.5t-147.5 -27zM443 0q77 0 141.5 26.5t112 75t74 113.5t26.5 143q0 77 -26.5 142.5t-74 113.5
t-112.5 74.5t-143 26.5q-77 0 -142 -26.5t-112.5 -74.5t-74 -113t-26.5 -143q0 -80 27 -145.5t76 -113t114 -73.5t140 -26zM443 129q-103 0 -154.5 62.5t-51.5 166.5q0 106 56.5 166.5t164.5 60.5q60 0 100 -19t40 -52q0 -24 -20.5 -37t-49.5 -13q0 57 -21.5 83.5
t-67.5 26.5q-63 0 -90.5 -52t-27.5 -164q0 -114 35 -166.5t100 -52.5q47 0 79.5 26.5t46.5 77.5q17 -6 17 -28q0 -21 -20 -41t-55 -32.5t-81 -12.5z" />
    <glyph glyph-name="ordfeminine" unicode="&#xaa;" horiz-adv-x="403" 
d="M170 381q-46 0 -67 31.5t-21 78.5q0 35 13.5 74t40 73.5t64.5 56t87 21.5q25 0 43 -6t31 -15l37 14h22l-47 -185q-2 -10 -6 -32t-4 -33q0 -46 24 -46q12 0 23 6.5t22 14.5l5 -8q-13 -14 -36.5 -29.5t-52.5 -15.5q-24 0 -38.5 14t-14.5 41q0 8 1 21t3 28h-2
q-23 -47 -55 -75.5t-72 -28.5zM215 411q15 0 29.5 14t26 34t15.5 38l51 193q-7 9 -19 12.5t-26 3.5q-31 0 -54 -22t-38.5 -55.5t-23 -69.5t-7.5 -65q0 -44 13.5 -63.5t32.5 -19.5z" />
    <glyph glyph-name="guillemotleft" unicode="&#xab;" horiz-adv-x="514" 
d="M375 80l-149 185l2 10l228 185h15l-155 -194l74 -186h-15zM192 80l-149 185l2 10l228 185h15l-155 -194l74 -186h-15z" />
    <glyph glyph-name="logicalnot" unicode="&#xac;" horiz-adv-x="559" 
d="M468 120v235h-405v20h425v-255h-20z" />
    <glyph glyph-name="uni00AD" unicode="&#xad;" horiz-adv-x="310" 
d="M24 263l4 20h260l-4 -20h-260z" />
    <glyph glyph-name="registered" unicode="&#xae;" horiz-adv-x="845" 
d="M441 -10q-80 0 -147 27t-116.5 76.5t-76.5 117t-27 147.5t27 147t76 116t116.5 76.5t147.5 27.5t147.5 -27t117 -76.5t76.5 -117t27 -147.5t-27 -147t-76.5 -116.5t-117 -76.5t-147.5 -27zM443 0q77 0 141.5 26.5t112 75t74 113.5t26.5 143q0 77 -26.5 142.5t-74 113.5
t-112.5 74.5t-143 26.5q-77 0 -142 -26.5t-112.5 -74.5t-74 -113t-26.5 -143q0 -80 27 -145.5t76 -113t114 -73.5t140 -26zM249 141v10h13q20 0 34.5 6t14.5 29v342q0 23 -14.5 29t-34.5 6h-13v10h183q172 0 172 -117q0 -50 -28 -75t-68 -37l97 -156q13 -21 25 -29t28 -8
v-10h-109l-119 201h-41v-156q0 -23 14.5 -29t34.5 -6h14v-10h-203zM389 352h42q51 0 72.5 24.5t21.5 81.5t-22.5 81t-74.5 24h-39v-211z" />
    <glyph glyph-name="overscore" unicode="&#xaf;" horiz-adv-x="459" 
d="M102 773l5 20h469l-5 -20h-469z" />
    <glyph glyph-name="degree" unicode="&#xb0;" horiz-adv-x="400" 
d="M264 421q-67 0 -109 42t-42 109t42 109.5t109 42.5t109.5 -42.5t42.5 -109.5t-42.5 -109t-109.5 -42zM266 441q58 0 94 37.5t36 95.5t-36 94t-94 36t-95.5 -36t-37.5 -94t37 -95.5t96 -37.5z" />
    <glyph glyph-name="plusminus" unicode="&#xb1;" horiz-adv-x="559" 
d="M252 143v204h-204v20h204v205h20v-205h205v-20h-205v-204h-20zM48 15v20h429v-20h-429z" />
    <glyph glyph-name="uni00B2" unicode="&#xb2;" horiz-adv-x="400" 
d="M73 386l5 30l155 128q41 34 65 63.5t33.5 60t9.5 68.5q0 17 -3 35t-13.5 30.5t-33.5 12.5q-28 0 -44.5 -17.5t-24.5 -46t-12 -61.5q-30 0 -47 13.5t-17 34.5q0 37 40.5 62t111.5 25q60 0 95.5 -26t35.5 -69q0 -39 -20.5 -68t-52.5 -54t-68 -50l-161 -114h206
q23 0 36 12.5t18 28.5l7 21h10l-28 -119h-303z" />
    <glyph glyph-name="uni00B3" unicode="&#xb3;" horiz-adv-x="400" 
d="M214 380q-63 0 -97 21t-34 56q0 27 16.5 40.5t40.5 13.5q0 -53 15 -87t62 -34q43 0 71 28.5t28 95.5q0 37 -19 64.5t-68 27.5h-33l2 10h34q48 0 80 33t32 97q0 26 -9 47t-38 21q-38 0 -57 -35t-26 -82q-30 0 -48 9t-18 33q0 35 40.5 60t112.5 25q69 0 102 -27t33 -64
q0 -53 -44 -81.5t-109 -39.5v-2q56 -5 90.5 -28.5t34.5 -70.5q0 -62 -54 -96.5t-140 -34.5z" />
    <glyph glyph-name="acute" unicode="&#xb4;" horiz-adv-x="241" 
d="M112 606l2 10q26 32 53 74t47 76h93l-3 -10q-16 -18 -48 -45t-67.5 -56t-64.5 -49h-12z" />
    <glyph glyph-name="uni00B5" unicode="&#xb5;" horiz-adv-x="604" 
d="M63 -240q-29 0 -47 16t-18 56t14 93t35 126.5t42 173.5l67 311h94l-64 -298q-6 -28 -12 -61t-6 -62q0 -51 15 -80.5t53 -29.5q36 0 66 23.5t50 57.5t27 66l81 384h94l-80 -374q-4 -20 -8 -42.5t-4 -39.5q0 -26 10 -41.5t29 -15.5q13 0 28.5 7t28.5 15l5 -9
q-20 -14 -49 -30t-67 -16q-39 0 -59.5 26.5t-21.5 69.5h-2q-27 -44 -62.5 -70t-83.5 -26q-62 0 -101.5 31t-39.5 114q-11 -49 -17.5 -84t-6.5 -71q0 -51 22.5 -87t72.5 -46q-4 -44 -28 -65.5t-57 -21.5z" />
    <glyph glyph-name="paragraph" unicode="&#xb6;" horiz-adv-x="617" 
d="M177 -111v10h13q34 0 58 12.5t24 59.5v415h-71q-59 0 -92 27.5t-47 72t-14 96.5q0 80 35 129t120 49h381v-10h-13q-34 0 -58 -12.5t-24 -59.5v-707q0 -47 24 -59.5t58 -12.5h13v-10h-156v861h-95v-861h-156z" />
    <glyph glyph-name="periodcentered" unicode="&#xb7;" horiz-adv-x="286" 
d="M149 287q-21 0 -33 10.5t-12 36.5q0 35 18 63t51 28q20 0 32.5 -11t12.5 -37q0 -35 -17 -62.5t-52 -27.5z" />
    <glyph glyph-name="cedilla" unicode="&#xb8;" horiz-adv-x="333" 
d="M113 -240q-26 0 -43.5 3t-31.5 8l3 11q26 -8 50 -8q33 0 54.5 16t32 41t10.5 53q0 46 -37 57l27 59h10l-20 -45q47 -9 74 -29t27 -53q0 -56 -45 -84.5t-111 -28.5z" />
    <glyph glyph-name="uni00B9" unicode="&#xb9;" horiz-adv-x="400" 
d="M99 387l2 10h46q17 0 30.5 6.5t18.5 31.5l71 336h-1q-32 -37 -50 -52.5t-43 -15.5q-17 0 -25 11.5t-7 29.5q30 0 55 5.5t55.5 22t75.5 47.5h40l-75 -355q-2 -11 -4.5 -22.5t-2.5 -19.5q0 -16 10.5 -20.5t24.5 -4.5h46l-2 -10h-265z" />
    <glyph glyph-name="ordmasculine" unicode="&#xba;" horiz-adv-x="394" 
d="M226 381q-62 0 -100 32t-38 93q0 34 13 70.5t39 68.5t64 52t89 20q56 0 96 -29.5t40 -93.5q0 -32 -12 -68.5t-37 -69.5t-63.5 -54t-90.5 -21zM226 391q33 0 54 22t33 56t17 70.5t5 66.5q0 50 -8.5 75.5t-40.5 25.5q-31 0 -52 -21t-34 -54t-18.5 -69.5t-5.5 -67.5
q0 -52 9.5 -78t40.5 -26z" />
    <glyph glyph-name="guillemotright" unicode="&#xbb;" horiz-adv-x="521" 
d="M230 80l152 194l-71 186h15l148 -185l-2 -10l-227 -185h-15zM40 80l152 194l-71 186h15l148 -185l-2 -10l-227 -185h-15z" />
    <glyph glyph-name="onequarter" unicode="&#xbc;" horiz-adv-x="980" 
d="M78 287l2 10h46q17 0 30.5 6.5t18.5 31.5l71 336h-1q-32 -37 -50 -52.5t-43 -15.5q-17 0 -25 11.5t-7 29.5q30 0 55 5.5t55.5 22t75.5 47.5h40l-75 -355q-2 -11 -4.5 -22.5t-2.5 -19.5q0 -16 10.5 -20.5t24.5 -4.5h46l-2 -10h-265zM269 0l509 714h11l-509 -714h-11z
M654 0l2 10h28q16 0 30 6.5t19 31.5l17 79h-181l6 30l246 275h83l-56 -262h96l-9 -43h-96l-14 -67q-4 -19 -4 -25q0 -16 10.5 -20.5t24.5 -4.5h20l-2 -10h-220zM602 170h157l37 173q7 29 16 64q-7 -9 -19.5 -23t-32.5 -37z" />
    <glyph glyph-name="onehalf" unicode="&#xbd;" horiz-adv-x="980" 
d="M78 287l2 10h46q17 0 30.5 6.5t18.5 31.5l71 336h-1q-32 -37 -50 -52.5t-43 -15.5q-17 0 -25 11.5t-7 29.5q30 0 55 5.5t55.5 22t75.5 47.5h40l-75 -355q-2 -11 -4.5 -22.5t-2.5 -19.5q0 -16 10.5 -20.5t24.5 -4.5h46l-2 -10h-265zM249 0l509 714h11l-509 -714h-11z
M571 -1l5 30l155 128q41 34 65 63.5t33.5 60t9.5 68.5q0 17 -3 35t-13.5 30.5t-33.5 12.5q-28 0 -44.5 -17.5t-24.5 -46t-12 -61.5q-30 0 -47 13.5t-17 34.5q0 37 40.5 62t111.5 25q60 0 95.5 -26t35.5 -69q0 -39 -20.5 -68t-52.5 -54t-68 -50l-161 -114h206q23 0 36 12.5
t18 28.5l7 21h10l-28 -119h-303z" />
    <glyph glyph-name="threequarters" unicode="&#xbe;" horiz-adv-x="980" 
d="M192 277q-63 0 -97 21t-34 56q0 27 16.5 40.5t40.5 13.5q0 -53 15 -87t62 -34q43 0 71 28.5t28 95.5q0 37 -19 64.5t-68 27.5h-33l2 10h34q48 0 80 33t32 97q0 26 -9 47t-38 21q-38 0 -57 -35t-26 -82q-30 0 -48 9t-18 33q0 35 40.5 60t112.5 25q69 0 102 -27t33 -64
q0 -53 -44 -81.5t-109 -39.5v-2q56 -5 90.5 -28.5t34.5 -70.5q0 -62 -54 -96.5t-140 -34.5zM269 0l509 714h11l-509 -714h-11zM654 0l2 10h28q16 0 30 6.5t19 31.5l17 79h-181l6 30l246 275h83l-56 -262h96l-9 -43h-96l-14 -67q-4 -19 -4 -25q0 -16 10.5 -20.5t24.5 -4.5h20
l-2 -10h-220zM602 170h157l37 173q7 29 16 64q-7 -9 -19.5 -23t-32.5 -37z" />
    <glyph glyph-name="questiondown" unicode="&#xbf;" horiz-adv-x="501" 
d="M308 337l-13 -128q-58 -5 -102.5 -40t-70 -88t-25.5 -114q0 -68 23 -105.5t74 -37.5q42 0 67 25.5t38 67t19 89.5q72 0 72 -60q0 -35 -24 -65t-69.5 -48.5t-108.5 -18.5q-87 0 -138 40.5t-51 113.5q0 64 34.5 113.5t91 83t122.5 46.5l46 126h15zM333 546q21 0 33 -11
t12 -36q0 -35 -18 -63t-51 -28q-20 0 -32.5 11t-12.5 37q0 35 17 62.5t52 27.5z" />
    <glyph glyph-name="Agrave" unicode="&#xc0;" horiz-adv-x="700" 
d="M-62 0l2 10h19q19 0 33 6t27.5 22.5t32.5 49.5l363 626h64l94 -651q5 -31 17.5 -42t41.5 -11h13l-2 -10h-272l2 10h23q77 0 77 51q0 8 -0.5 17.5t-1.5 16.5l-21 164h-288l-91 -157q-11 -18 -15 -32t-4 -24q0 -36 56 -36h69l-2 -10h-237zM286 473l-118 -204h281l-25 195
q-4 30 -9 71t-9 79t-5 60q-11 -22 -32 -58t-43.5 -75t-39.5 -68zM494 784q-21 20 -49 49t-52.5 56t-35.5 45l2 10h90q9 -34 26 -76t31 -74l-2 -10h-10z" />
    <glyph glyph-name="Aacute" unicode="&#xc1;" horiz-adv-x="700" 
d="M-62 0l2 10h19q19 0 33 6t27.5 22.5t32.5 49.5l363 626h64l94 -651q5 -31 17.5 -42t41.5 -11h13l-2 -10h-272l2 10h23q77 0 77 51q0 8 -0.5 17.5t-1.5 16.5l-21 164h-288l-91 -157q-11 -18 -15 -32t-4 -24q0 -36 56 -36h69l-2 -10h-237zM286 473l-118 -204h281l-25 195
q-4 30 -9 71t-9 79t-5 60q-11 -22 -32 -58t-43.5 -75t-39.5 -68zM380 774l2 10q26 32 53 74t47 76h93l-3 -10q-16 -18 -48 -45t-67.5 -56t-64.5 -49h-12z" />
    <glyph glyph-name="Acircumflex" unicode="&#xc2;" horiz-adv-x="700" 
d="M-62 0l2 10h19q19 0 33 6t27.5 22.5t32.5 49.5l363 626h64l94 -651q5 -31 17.5 -42t41.5 -11h13l-2 -10h-272l2 10h23q77 0 77 51q0 8 -0.5 17.5t-1.5 16.5l-21 164h-288l-91 -157q-11 -18 -15 -32t-4 -24q0 -36 56 -36h69l-2 -10h-237zM286 473l-118 -204h281l-25 195
q-4 30 -9 71t-9 79t-5 60q-11 -22 -32 -58t-43.5 -75t-39.5 -68zM297 784l2 10q21 20 48 46t52.5 53.5t42.5 50.5h75q6 -23 19.5 -50.5t29 -53.5t28.5 -46l-2 -10h-10q-31 18 -60.5 45.5t-51.5 54.5q-35 -27 -79 -54.5t-84 -45.5h-10z" />
    <glyph glyph-name="Atilde" unicode="&#xc3;" horiz-adv-x="700" 
d="M-62 0l2 10h19q19 0 33 6t27.5 22.5t32.5 49.5l363 626h64l94 -651q5 -31 17.5 -42t41.5 -11h13l-2 -10h-272l2 10h23q77 0 77 51q0 8 -0.5 17.5t-1.5 16.5l-21 164h-288l-91 -157q-11 -18 -15 -32t-4 -24q0 -36 56 -36h69l-2 -10h-237zM286 473l-118 -204h281l-25 195
q-4 30 -9 71t-9 79t-5 60q-11 -22 -32 -58t-43.5 -75t-39.5 -68zM513 784q-29 0 -48 9.5t-35 22t-35.5 22t-49.5 9.5q-33 0 -47 -16.5t-24 -36.5h-10q13 46 45 82t86 36q29 0 48 -9.5t35 -22t36 -22t50 -9.5q32 0 45.5 16.5t23.5 36.5h10q-13 -46 -45 -82t-85 -36z" />
    <glyph glyph-name="Adieresis" unicode="&#xc4;" horiz-adv-x="700" 
d="M-62 0l2 10h19q19 0 33 6t27.5 22.5t32.5 49.5l363 626h64l94 -651q5 -31 17.5 -42t41.5 -11h13l-2 -10h-272l2 10h23q77 0 77 51q0 8 -0.5 17.5t-1.5 16.5l-21 164h-288l-91 -157q-11 -18 -15 -32t-4 -24q0 -36 56 -36h69l-2 -10h-237zM286 473l-118 -204h281l-25 195
q-4 30 -9 71t-9 79t-5 60q-11 -22 -32 -58t-43.5 -75t-39.5 -68zM553 810q-20 0 -31.5 12t-11.5 38q0 28 12.5 45.5t34.5 17.5q19 0 31 -12.5t12 -37.5q0 -35 -15 -49t-32 -14zM363 810q-20 0 -31.5 12t-11.5 38q0 28 12.5 45.5t34.5 17.5q19 0 31 -12.5t12 -37.5
q0 -35 -15 -49t-32 -14z" />
    <glyph glyph-name="Aring" unicode="&#xc5;" horiz-adv-x="705" 
d="M-56 0l2 10h19q19 0 33 6t27.5 22.5t32.5 49.5l345 594q-30 11 -48 36t-18 63q0 53 35 81t85 28t85 -28t35 -81q0 -44 -24 -70.5t-62 -34.5l88 -613q5 -31 17.5 -42t41.5 -11h13l-2 -10h-272l2 10h23q77 0 77 51q0 8 -0.5 17.5t-1.5 16.5l-21 164h-288l-91 -157
q-11 -18 -15 -32t-4 -24q0 -36 56 -36h69l-2 -10h-237zM457 682q48 0 78 25t30 74t-30 74t-78 25t-78 -25t-30 -74t30 -74t78 -25zM292 473l-118 -204h281l-25 195q-4 30 -9 71t-9 79t-5 60q-11 -22 -32 -58t-43.5 -75t-39.5 -68z" />
    <glyph glyph-name="AE" unicode="&#xc6;" horiz-adv-x="943" 
d="M-62 0l2 10h21q19 0 33.5 6t30 23t39.5 49l456 616h-130l2 10h566l-32 -175h-10q1 7 3.5 28t2.5 30q0 29 -6.5 53.5t-29 39t-70.5 14.5h-168l-69 -324h251l-2 -10h-251l-76 -360h193q51 0 83.5 17t51.5 44.5t30 60.5l14 43h10l-44 -175h-536l2 10h13q33 0 60.5 11.5
t36.5 55.5l38 182h-249l-116 -157q-27 -37 -27 -59q0 -17 11.5 -25t39.5 -8h74l-2 -10h-246zM212 269h243l91 435h-16q-31 -44 -75.5 -106.5t-91.5 -124.5z" />
    <glyph glyph-name="Ccedilla" unicode="&#xc7;" horiz-adv-x="636" 
d="M337 -10q-131 0 -203.5 70t-72.5 198q0 89 29 172.5t83.5 149.5t130.5 105t169 39q89 0 137 -30.5t48 -80.5q0 -36 -26 -57t-66 -21q0 27 -0.5 58t-9 58.5t-29 45t-59.5 17.5q-55 0 -101.5 -29t-83 -78t-61.5 -110.5t-38.5 -127.5t-13.5 -127q0 -116 45 -179t133 -63
q75 0 114 39.5t64 106.5q20 -10 20 -33q0 -27 -21.5 -55.5t-68 -48t-119.5 -19.5zM241 -240q-26 0 -43.5 3t-31.5 8l3 11q26 -8 50 -8q33 0 54.5 16t32 41t10.5 53q0 46 -37 57l27 59h10l-20 -45q47 -9 74 -29t27 -53q0 -56 -45 -84.5t-111 -28.5z" />
    <glyph glyph-name="Egrave" unicode="&#xc8;" horiz-adv-x="621" 
d="M-19 0l2 10h13q33 0 59.5 11t36.5 56l118 555q3 14 3 24q0 32 -20.5 40t-49.5 8h-13l2 10h504l-32 -175h-10q1 7 3.5 28t2.5 34q0 27 -5 50.5t-22.5 38t-56.5 14.5h-190l-69 -325h241l-2 -10h-241l-76 -359h216q44 0 71 16t43.5 44t27.5 62l14 43h10l-44 -175h-536z
M450 771q-21 20 -49 49t-52.5 56t-35.5 45l2 10h90q9 -34 26 -76t31 -74l-2 -10h-10z" />
    <glyph glyph-name="Eacute" unicode="&#xc9;" horiz-adv-x="621" 
d="M-19 0l2 10h13q33 0 59.5 11t36.5 56l118 555q3 14 3 24q0 32 -20.5 40t-49.5 8h-13l2 10h504l-32 -175h-10q1 7 3.5 28t2.5 34q0 27 -5 50.5t-22.5 38t-56.5 14.5h-190l-69 -325h241l-2 -10h-241l-76 -359h216q44 0 71 16t43.5 44t27.5 62l14 43h10l-44 -175h-536z
M386 771l2 10q26 32 53 74t47 76h93l-3 -10q-16 -18 -48 -45t-67.5 -56t-64.5 -49h-12z" />
    <glyph glyph-name="Ecircumflex" unicode="&#xca;" horiz-adv-x="621" 
d="M-19 0l2 10h13q33 0 59.5 11t36.5 56l118 555q3 14 3 24q0 32 -20.5 40t-49.5 8h-13l2 10h504l-32 -175h-10q1 7 3.5 28t2.5 34q0 27 -5 50.5t-22.5 38t-56.5 14.5h-190l-69 -325h241l-2 -10h-241l-76 -359h216q44 0 71 16t43.5 44t27.5 62l14 43h10l-44 -175h-536z
M296 771l2 10q21 20 48 46t52.5 53.5t42.5 50.5h75q6 -23 19.5 -50.5t29 -53.5t28.5 -46l-2 -10h-10q-31 18 -60.5 45.5t-51.5 54.5q-35 -27 -79 -54.5t-84 -45.5h-10z" />
    <glyph glyph-name="Edieresis" unicode="&#xcb;" horiz-adv-x="621" 
d="M-19 0l2 10h13q33 0 59.5 11t36.5 56l118 555q3 14 3 24q0 32 -20.5 40t-49.5 8h-13l2 10h504l-32 -175h-10q1 7 3.5 28t2.5 34q0 27 -5 50.5t-22.5 38t-56.5 14.5h-190l-69 -325h241l-2 -10h-241l-76 -359h216q44 0 71 16t43.5 44t27.5 62l14 43h10l-44 -175h-536z
M533 797q-20 0 -31.5 12t-11.5 38q0 28 12.5 45.5t34.5 17.5q19 0 31 -12.5t12 -37.5q0 -35 -15 -49t-32 -14zM343 797q-20 0 -31.5 12t-11.5 38q0 28 12.5 45.5t34.5 17.5q19 0 31 -12.5t12 -37.5q0 -35 -15 -49t-32 -14z" />
    <glyph glyph-name="Igrave" unicode="&#xcc;" horiz-adv-x="349" 
d="M-19 0l1 10h13q34 0 61 12.5t37 59.5l118 554q4 16 4 28q0 26 -20.5 33t-51.5 7h-13l2 10h291l-2 -10h-13q-34 0 -60.5 -12.5t-36.5 -59.5l-118 -554q-4 -16 -4 -28q0 -26 20.5 -33t51.5 -7h13l-2 -10h-291zM327 771q-21 20 -49 49t-52.5 56t-35.5 45l2 10h90
q9 -34 26 -76t31 -74l-2 -10h-10z" />
    <glyph glyph-name="Iacute" unicode="&#xcd;" horiz-adv-x="349" 
d="M-19 0l1 10h13q34 0 61 12.5t37 59.5l118 554q4 16 4 28q0 26 -20.5 33t-51.5 7h-13l2 10h291l-2 -10h-13q-34 0 -60.5 -12.5t-36.5 -59.5l-118 -554q-4 -16 -4 -28q0 -26 20.5 -33t51.5 -7h13l-2 -10h-291zM234 771l2 10q26 32 53 74t47 76h93l-3 -10q-16 -18 -48 -45
t-67.5 -56t-64.5 -49h-12z" />
    <glyph glyph-name="Icircumflex" unicode="&#xce;" horiz-adv-x="349" 
d="M-19 0l1 10h13q34 0 61 12.5t37 59.5l118 554q4 16 4 28q0 26 -20.5 33t-51.5 7h-13l2 10h291l-2 -10h-13q-34 0 -60.5 -12.5t-36.5 -59.5l-118 -554q-4 -16 -4 -28q0 -26 20.5 -33t51.5 -7h13l-2 -10h-291zM134 771l2 10q21 20 48 46t52.5 53.5t42.5 50.5h75
q6 -23 19.5 -50.5t29 -53.5t28.5 -46l-2 -10h-10q-31 18 -60.5 45.5t-51.5 54.5q-35 -27 -79 -54.5t-84 -45.5h-10z" />
    <glyph glyph-name="Idieresis" unicode="&#xcf;" horiz-adv-x="349" 
d="M-19 0l1 10h13q34 0 61 12.5t37 59.5l118 554q4 16 4 28q0 26 -20.5 33t-51.5 7h-13l2 10h291l-2 -10h-13q-34 0 -60.5 -12.5t-36.5 -59.5l-118 -554q-4 -16 -4 -28q0 -26 20.5 -33t51.5 -7h13l-2 -10h-291zM395 810q-20 0 -31.5 12t-11.5 38q0 28 12.5 45.5t34.5 17.5
q19 0 31 -12.5t12 -37.5q0 -35 -15 -49t-32 -14zM205 810q-20 0 -31.5 12t-11.5 38q0 28 12.5 45.5t34.5 17.5q19 0 31 -12.5t12 -37.5q0 -35 -15 -49t-32 -14z" />
    <glyph glyph-name="Eth" unicode="&#xd0;" horiz-adv-x="725" 
d="M-19 0l2 10h13q34 0 61 12.5t37 59.5l61 288h-99l2 10h99l54 256q1 7 2.5 14.5t1.5 13.5q0 27 -22.5 33.5t-49.5 6.5h-13l2 10h280q135 0 209.5 -69.5t74.5 -202.5q0 -89 -26 -169t-77 -141.5t-125.5 -96.5t-171.5 -35h-315zM178 11h87q101 0 173 56.5t110.5 156.5
t38.5 229q0 130 -46 190.5t-136 60.5h-79l-69 -324h167l-2 -10h-167z" />
    <glyph glyph-name="Ntilde" unicode="&#xd1;" horiz-adv-x="744" 
d="M-18 0l2 10h13q28 0 51.5 4.5t40.5 20t24 47.5l118 554q4 16 4 28q0 26 -25.5 33t-66.5 7h-13l2 10h195l255 -576l106 498q2 7 3 15.5t1 12.5q0 26 -29 33t-74 7h-13l2 10h251l-2 -10h-13q-27 0 -51 -4t-41.5 -19.5t-24.5 -48.5l-134 -632h-30l-288 652l-123 -574
q-4 -16 -4 -28q0 -26 29 -33t74 -7h13l-2 -10h-250zM563 784q-29 0 -48 9.5t-35 22t-35.5 22t-49.5 9.5q-33 0 -47 -16.5t-24 -36.5h-10q13 46 45 82t86 36q29 0 48 -9.5t35 -22t36 -22t50 -9.5q32 0 45.5 16.5t23.5 36.5h10q-13 -46 -45 -82t-85 -36z" />
    <glyph glyph-name="Ograve" unicode="&#xd2;" horiz-adv-x="742" 
d="M323 -11q-74 0 -133.5 31.5t-94 93.5t-34.5 152q0 58 16 121t48.5 123t80.5 108.5t112 77.5t143 29q69 0 128 -29t95 -89.5t36 -156.5q0 -55 -15.5 -118t-47 -123.5t-79 -110.5t-111.5 -79.5t-144 -29.5zM329 -1q58 0 103.5 32t79 84.5t55.5 116t32.5 127.5t10.5 118
q0 93 -20.5 144.5t-56 72.5t-80.5 21q-58 0 -104 -32t-79.5 -84.5t-55.5 -116t-33 -127.5t-11 -117q0 -94 21 -146t57 -72.5t81 -20.5zM540 784q-21 20 -49 49t-52.5 56t-35.5 45l2 10h90q9 -34 26 -76t31 -74l-2 -10h-10z" />
    <glyph glyph-name="Oacute" unicode="&#xd3;" horiz-adv-x="742" 
d="M323 -11q-74 0 -133.5 31.5t-94 93.5t-34.5 152q0 58 16 121t48.5 123t80.5 108.5t112 77.5t143 29q69 0 128 -29t95 -89.5t36 -156.5q0 -55 -15.5 -118t-47 -123.5t-79 -110.5t-111.5 -79.5t-144 -29.5zM329 -1q58 0 103.5 32t79 84.5t55.5 116t32.5 127.5t10.5 118
q0 93 -20.5 144.5t-56 72.5t-80.5 21q-58 0 -104 -32t-79.5 -84.5t-55.5 -116t-33 -127.5t-11 -117q0 -94 21 -146t57 -72.5t81 -20.5zM426 774l2 10q26 32 53 74t47 76h93l-3 -10q-16 -18 -48 -45t-67.5 -56t-64.5 -49h-12z" />
    <glyph glyph-name="Ocircumflex" unicode="&#xd4;" horiz-adv-x="742" 
d="M323 -11q-74 0 -133.5 31.5t-94 93.5t-34.5 152q0 58 16 121t48.5 123t80.5 108.5t112 77.5t143 29q69 0 128 -29t95 -89.5t36 -156.5q0 -55 -15.5 -118t-47 -123.5t-79 -110.5t-111.5 -79.5t-144 -29.5zM329 -1q58 0 103.5 32t79 84.5t55.5 116t32.5 127.5t10.5 118
q0 93 -20.5 144.5t-56 72.5t-80.5 21q-58 0 -104 -32t-79.5 -84.5t-55.5 -116t-33 -127.5t-11 -117q0 -94 21 -146t57 -72.5t81 -20.5zM343 784l2 10q21 20 48 46t52.5 53.5t42.5 50.5h75q6 -23 19.5 -50.5t29 -53.5t28.5 -46l-2 -10h-10q-31 18 -60.5 45.5t-51.5 54.5
q-35 -27 -79 -54.5t-84 -45.5h-10z" />
    <glyph glyph-name="Otilde" unicode="&#xd5;" horiz-adv-x="742" 
d="M323 -11q-74 0 -133.5 31.5t-94 93.5t-34.5 152q0 58 16 121t48.5 123t80.5 108.5t112 77.5t143 29q69 0 128 -29t95 -89.5t36 -156.5q0 -55 -15.5 -118t-47 -123.5t-79 -110.5t-111.5 -79.5t-144 -29.5zM329 -1q58 0 103.5 32t79 84.5t55.5 116t32.5 127.5t10.5 118
q0 93 -20.5 144.5t-56 72.5t-80.5 21q-58 0 -104 -32t-79.5 -84.5t-55.5 -116t-33 -127.5t-11 -117q0 -94 21 -146t57 -72.5t81 -20.5zM559 784q-29 0 -48 9.5t-35 22t-35.5 22t-49.5 9.5q-33 0 -47 -16.5t-24 -36.5h-10q13 46 45 82t86 36q29 0 48 -9.5t35 -22t36 -22
t50 -9.5q32 0 45.5 16.5t23.5 36.5h10q-13 -46 -45 -82t-85 -36z" />
    <glyph glyph-name="Odieresis" unicode="&#xd6;" horiz-adv-x="742" 
d="M323 -11q-74 0 -133.5 31.5t-94 93.5t-34.5 152q0 58 16 121t48.5 123t80.5 108.5t112 77.5t143 29q69 0 128 -29t95 -89.5t36 -156.5q0 -55 -15.5 -118t-47 -123.5t-79 -110.5t-111.5 -79.5t-144 -29.5zM329 -1q58 0 103.5 32t79 84.5t55.5 116t32.5 127.5t10.5 118
q0 93 -20.5 144.5t-56 72.5t-80.5 21q-58 0 -104 -32t-79.5 -84.5t-55.5 -116t-33 -127.5t-11 -117q0 -94 21 -146t57 -72.5t81 -20.5zM599 810q-20 0 -31.5 12t-11.5 38q0 28 12.5 45.5t34.5 17.5q19 0 31 -12.5t12 -37.5q0 -35 -15 -49t-32 -14zM409 810q-20 0 -31.5 12
t-11.5 38q0 28 12.5 45.5t34.5 17.5q19 0 31 -12.5t12 -37.5q0 -35 -15 -49t-32 -14z" />
    <glyph glyph-name="multiply" unicode="&#xd7;" horiz-adv-x="559" 
d="M101 145l-14 14l198 198l-198 198l14 14l198 -198l197 198l14 -14l-198 -198l198 -198l-14 -14l-197 198z" />
    <glyph glyph-name="Oslash" unicode="&#xd8;" horiz-adv-x="742" 
d="M92 -40l61 84q-42 35 -67 90.5t-25 131.5q0 58 16 121t48.5 123t80.5 108.5t112 77.5t143 29q43 0 82.5 -11t72.5 -34l54 75h12l-58 -80q43 -33 69.5 -88.5t26.5 -136.5q0 -55 -15.5 -118t-47 -123.5t-79 -110.5t-111.5 -79.5t-144 -29.5q-95 0 -162 50l-57 -79h-12z
M170 238q0 -46 5.5 -81t14.5 -62l393 541q-20 44 -54 61.5t-76 17.5q-58 0 -104 -32t-79.5 -84.5t-55.5 -116t-33 -127.5t-11 -117zM329 -1q58 0 103.5 32t79 84.5t55.5 116t32.5 127.5t10.5 118q0 48 -5.5 85t-16.5 64l-393 -541q21 -49 56 -67.5t78 -18.5z" />
    <glyph glyph-name="Ugrave" unicode="&#xd9;" horiz-adv-x="713" 
d="M329 -10q-109 0 -168 45t-59 128q0 16 3.5 44t7.5 45l81 384q4 16 4 28q0 26 -20 33t-52 7h-13l2 10h291l-1 -10h-13q-33 0 -60.5 -12.5t-37.5 -59.5l-82 -385q-5 -25 -8.5 -49.5t-3.5 -50.5q0 -71 34 -109t98 -38q82 0 134.5 27.5t81.5 74t41 104.5l92 430q4 16 4 28
q0 26 -20.5 33t-51.5 7h-13l2 10h200l-1 -10h-13q-33 0 -60.5 -12.5t-37.5 -59.5l-91 -428q-21 -100 -86 -157t-184 -57zM531 784q-21 20 -49 49t-52.5 56t-35.5 45l2 10h90q9 -34 26 -76t31 -74l-2 -10h-10z" />
    <glyph glyph-name="Uacute" unicode="&#xda;" horiz-adv-x="713" 
d="M329 -10q-109 0 -168 45t-59 128q0 16 3.5 44t7.5 45l81 384q4 16 4 28q0 26 -20 33t-52 7h-13l2 10h291l-1 -10h-13q-33 0 -60.5 -12.5t-37.5 -59.5l-82 -385q-5 -25 -8.5 -49.5t-3.5 -50.5q0 -71 34 -109t98 -38q82 0 134.5 27.5t81.5 74t41 104.5l92 430q4 16 4 28
q0 26 -20.5 33t-51.5 7h-13l2 10h200l-1 -10h-13q-33 0 -60.5 -12.5t-37.5 -59.5l-91 -428q-21 -100 -86 -157t-184 -57zM417 774l2 10q26 32 53 74t47 76h93l-3 -10q-16 -18 -48 -45t-67.5 -56t-64.5 -49h-12z" />
    <glyph glyph-name="Ucircumflex" unicode="&#xdb;" horiz-adv-x="713" 
d="M329 -10q-109 0 -168 45t-59 128q0 16 3.5 44t7.5 45l81 384q4 16 4 28q0 26 -20 33t-52 7h-13l2 10h291l-1 -10h-13q-33 0 -60.5 -12.5t-37.5 -59.5l-82 -385q-5 -25 -8.5 -49.5t-3.5 -50.5q0 -71 34 -109t98 -38q82 0 134.5 27.5t81.5 74t41 104.5l92 430q4 16 4 28
q0 26 -20.5 33t-51.5 7h-13l2 10h200l-1 -10h-13q-33 0 -60.5 -12.5t-37.5 -59.5l-91 -428q-21 -100 -86 -157t-184 -57zM334 784l2 10q21 20 48 46t52.5 53.5t42.5 50.5h75q6 -23 19.5 -50.5t29 -53.5t28.5 -46l-2 -10h-10q-31 18 -60.5 45.5t-51.5 54.5q-35 -27 -79 -54.5
t-84 -45.5h-10z" />
    <glyph glyph-name="Udieresis" unicode="&#xdc;" horiz-adv-x="713" 
d="M329 -10q-109 0 -168 45t-59 128q0 16 3.5 44t7.5 45l81 384q4 16 4 28q0 26 -20 33t-52 7h-13l2 10h291l-1 -10h-13q-33 0 -60.5 -12.5t-37.5 -59.5l-82 -385q-5 -25 -8.5 -49.5t-3.5 -50.5q0 -71 34 -109t98 -38q82 0 134.5 27.5t81.5 74t41 104.5l92 430q4 16 4 28
q0 26 -20.5 33t-51.5 7h-13l2 10h200l-1 -10h-13q-33 0 -60.5 -12.5t-37.5 -59.5l-91 -428q-21 -100 -86 -157t-184 -57zM590 810q-20 0 -31.5 12t-11.5 38q0 28 12.5 45.5t34.5 17.5q19 0 31 -12.5t12 -37.5q0 -35 -15 -49t-32 -14zM400 810q-20 0 -31.5 12t-11.5 38
q0 28 12.5 45.5t34.5 17.5q19 0 31 -12.5t12 -37.5q0 -35 -15 -49t-32 -14z" />
    <glyph glyph-name="Yacute" unicode="&#xdd;" horiz-adv-x="625" 
d="M104 0l2 10h23q33 0 59.5 11t36.5 56l46 216l-109 358q-9 29 -20 41t-40 12h-13l2 10h270l-2 -10h-50q-39 0 -39 -27q0 -13 3 -26.5t8 -31.5l55 -202l16 -58l16 -58q16 24 33.5 48t34.5 48l150 211q31 42 31 65q0 16 -11 23.5t-38 7.5h-63l2 10h217l-2 -10h-19
q-23 0 -43 -19t-48 -57l-240 -337l-46 -213q-4 -16 -4 -28q0 -26 20 -33t52 -7h23l-2 -10h-311zM364 774l2 10q26 32 53 74t47 76h93l-3 -10q-16 -18 -48 -45t-67.5 -56t-64.5 -49h-12z" />
    <glyph glyph-name="Thorn" unicode="&#xde;" horiz-adv-x="604" 
d="M-20 0l2 10h13q33 0 59.5 12.5t36.5 59.5l118 554q4 16 4 28q0 26 -20.5 33t-51.5 7h-13l2 10h301l-2 -10h-23q-34 0 -60.5 -12.5t-36.5 -59.5l-9 -42h59q105 0 166.5 -46t61.5 -141q0 -38 -13.5 -81t-47 -81.5t-93 -62.5t-152.5 -24h-74l-16 -76q-4 -16 -4 -28
q0 -26 20.5 -33t51.5 -7h23l-2 -10h-300zM209 164h53q61 0 103 22t67.5 57.5t37 77t11.5 81.5q0 99 -36 138.5t-102 39.5h-46z" />
    <glyph glyph-name="germandbls" unicode="&#xdf;" horiz-adv-x="627" 
d="M-78 -240q-15 0 -31.5 2.5t-26.5 5.5l2 10q8 -2 21.5 -4.5t24.5 -2.5q52 0 81 50.5t52 169.5l114 535h-81l2 10h81l7 30q16 74 51.5 117.5t86.5 62.5t112 19q94 0 138 -42t44 -111q0 -17 -1.5 -39.5t-5.5 -44.5h-86q-61 0 -90 -31t-29 -80q0 -35 17.5 -58t67.5 -53
q49 -29 71.5 -66.5t22.5 -83.5q0 -79 -50 -122.5t-143 -43.5q-71 0 -111 27t-40 74q0 31 19.5 48.5t48.5 17.5q0 -37 4.5 -73.5t22.5 -60t58 -23.5q53 0 79 32.5t26 84.5q0 39 -14.5 68.5t-63.5 59.5q-46 29 -73 62t-27 81q0 76 51 113t148 37q5 24 8 45t3 38
q0 61 -21.5 97.5t-79.5 36.5q-61 0 -96.5 -46.5t-50.5 -128.5l-126 -588q-19 -89 -49 -139.5t-72 -71.5t-96 -21z" />
    <glyph glyph-name="agrave" unicode="&#xe0;" horiz-adv-x="580" 
d="M162 -10q-44 0 -73 24t-42.5 65.5t-13.5 93.5q0 47 12.5 98.5t37.5 100t61 88t83 63t104 23.5q41 0 65 -11.5t43 -29.5l53 30h32l-68 -320q-2 -11 -6 -32t-6.5 -43t-2.5 -36q0 -80 41 -80q16 0 35 9t41 25l6 -8q-14 -13 -38 -27t-51 -23.5t-52 -9.5q-36 0 -57 22t-21 61
q0 20 2 36.5t6 41.5h-1q-35 -77 -82.5 -119t-107.5 -42zM205 17q27 0 52 20t46.5 50.5t36 63t19.5 56.5l60 292q-11 18 -32 27t-44 9q-41 0 -73.5 -25t-58 -65.5t-42.5 -89.5t-25.5 -97.5t-8.5 -88.5q0 -82 20 -117t50 -35zM402 606q-21 20 -49 49t-52.5 56t-35.5 45l2 10
h90q9 -34 26 -76t31 -74l-2 -10h-10z" />
    <glyph glyph-name="aacute" unicode="&#xe1;" horiz-adv-x="580" 
d="M162 -10q-44 0 -73 24t-42.5 65.5t-13.5 93.5q0 47 12.5 98.5t37.5 100t61 88t83 63t104 23.5q41 0 65 -11.5t43 -29.5l53 30h32l-68 -320q-2 -11 -6 -32t-6.5 -43t-2.5 -36q0 -80 41 -80q16 0 35 9t41 25l6 -8q-14 -13 -38 -27t-51 -23.5t-52 -9.5q-36 0 -57 22t-21 61
q0 20 2 36.5t6 41.5h-1q-35 -77 -82.5 -119t-107.5 -42zM205 17q27 0 52 20t46.5 50.5t36 63t19.5 56.5l60 292q-11 18 -32 27t-44 9q-41 0 -73.5 -25t-58 -65.5t-42.5 -89.5t-25.5 -97.5t-8.5 -88.5q0 -82 20 -117t50 -35zM288 596l2 10q26 32 53 74t47 76h93l-3 -10
q-16 -18 -48 -45t-67.5 -56t-64.5 -49h-12z" />
    <glyph glyph-name="acircumflex" unicode="&#xe2;" horiz-adv-x="580" 
d="M162 -10q-44 0 -73 24t-42.5 65.5t-13.5 93.5q0 47 12.5 98.5t37.5 100t61 88t83 63t104 23.5q41 0 65 -11.5t43 -29.5l53 30h32l-68 -320q-2 -11 -6 -32t-6.5 -43t-2.5 -36q0 -80 41 -80q16 0 35 9t41 25l6 -8q-14 -13 -38 -27t-51 -23.5t-52 -9.5q-36 0 -57 22t-21 61
q0 20 2 36.5t6 41.5h-1q-35 -77 -82.5 -119t-107.5 -42zM205 17q27 0 52 20t46.5 50.5t36 63t19.5 56.5l60 292q-11 18 -32 27t-44 9q-41 0 -73.5 -25t-58 -65.5t-42.5 -89.5t-25.5 -97.5t-8.5 -88.5q0 -82 20 -117t50 -35zM205 606l2 10q21 20 48 46t52.5 53.5t42.5 50.5
h75q6 -23 19.5 -50.5t29 -53.5t28.5 -46l-2 -10h-10q-31 18 -60.5 45.5t-51.5 54.5q-35 -27 -79 -54.5t-84 -45.5h-10z" />
    <glyph glyph-name="atilde" unicode="&#xe3;" horiz-adv-x="580" 
d="M162 -10q-44 0 -73 24t-42.5 65.5t-13.5 93.5q0 47 12.5 98.5t37.5 100t61 88t83 63t104 23.5q41 0 65 -11.5t43 -29.5l53 30h32l-68 -320q-2 -11 -6 -32t-6.5 -43t-2.5 -36q0 -80 41 -80q16 0 35 9t41 25l6 -8q-14 -13 -38 -27t-51 -23.5t-52 -9.5q-36 0 -57 22t-21 61
q0 20 2 36.5t6 41.5h-1q-35 -77 -82.5 -119t-107.5 -42zM205 17q27 0 52 20t46.5 50.5t36 63t19.5 56.5l60 292q-11 18 -32 27t-44 9q-41 0 -73.5 -25t-58 -65.5t-42.5 -89.5t-25.5 -97.5t-8.5 -88.5q0 -82 20 -117t50 -35zM421 606q-29 0 -48 9.5t-35 22t-35.5 22
t-49.5 9.5q-33 0 -47 -16.5t-24 -36.5h-10q13 46 45 82t86 36q29 0 48 -9.5t35 -22t36 -22t50 -9.5q32 0 45.5 16.5t23.5 36.5h10q-13 -46 -45 -82t-85 -36z" />
    <glyph glyph-name="adieresis" unicode="&#xe4;" horiz-adv-x="580" 
d="M162 -10q-44 0 -73 24t-42.5 65.5t-13.5 93.5q0 47 12.5 98.5t37.5 100t61 88t83 63t104 23.5q41 0 65 -11.5t43 -29.5l53 30h32l-68 -320q-2 -11 -6 -32t-6.5 -43t-2.5 -36q0 -80 41 -80q16 0 35 9t41 25l6 -8q-14 -13 -38 -27t-51 -23.5t-52 -9.5q-36 0 -57 22t-21 61
q0 20 2 36.5t6 41.5h-1q-35 -77 -82.5 -119t-107.5 -42zM205 17q27 0 52 20t46.5 50.5t36 63t19.5 56.5l60 292q-11 18 -32 27t-44 9q-41 0 -73.5 -25t-58 -65.5t-42.5 -89.5t-25.5 -97.5t-8.5 -88.5q0 -82 20 -117t50 -35zM461 632q-20 0 -31.5 12t-11.5 38q0 28 12.5 45.5
t34.5 17.5q19 0 31 -12.5t12 -37.5q0 -35 -15 -49t-32 -14zM271 632q-20 0 -31.5 12t-11.5 38q0 28 12.5 45.5t34.5 17.5q19 0 31 -12.5t12 -37.5q0 -35 -15 -49t-32 -14z" />
    <glyph glyph-name="aring" unicode="&#xe5;" horiz-adv-x="580" 
d="M162 -10q-44 0 -73 24t-42.5 65.5t-13.5 93.5q0 47 12.5 98.5t37.5 100t61 88t83 63t104 23.5q41 0 65 -11.5t43 -29.5l53 30h32l-68 -320q-2 -11 -6 -32t-6.5 -43t-2.5 -36q0 -80 41 -80q16 0 35 9t41 25l6 -8q-14 -13 -38 -27t-51 -23.5t-52 -9.5q-36 0 -57 22t-21 61
q0 20 2 36.5t6 41.5h-1q-35 -77 -82.5 -119t-107.5 -42zM205 17q27 0 52 20t46.5 50.5t36 63t19.5 56.5l60 292q-11 18 -32 27t-44 9q-41 0 -73.5 -25t-58 -65.5t-42.5 -89.5t-25.5 -97.5t-8.5 -88.5q0 -82 20 -117t50 -35zM373 596q-50 0 -85 28t-35 81t35 81t85 28t85 -28
t35 -81t-35 -81t-85 -28zM373 606q48 0 78 25t30 74t-30 74t-78 25t-78 -25t-30 -74t30 -74t78 -25z" />
    <glyph glyph-name="ae" unicode="&#xe6;" horiz-adv-x="813" 
d="M194 -10q-62 0 -106.5 48.5t-44.5 150.5q0 43 11 92t33.5 96t57 85t82 61t108.5 23q37 0 71.5 -13.5t72.5 -57.5q36 33 82 52t100 19q63 0 98 -30t35 -85q0 -48 -37.5 -89.5t-103 -67t-148.5 -25.5h-33q-5 -28 -5 -60q0 -90 20.5 -139.5t74.5 -49.5q58 0 95 35.5t60 89.5
q14 -7 14 -25q0 -22 -18.5 -47.5t-56.5 -44t-98 -18.5q-73 0 -123.5 37t-67.5 120h-1q-32 -88 -73.5 -122.5t-98.5 -34.5zM473 259h11q58 0 105 22t74.5 64.5t27.5 101.5q0 41 -11.5 65t-39.5 24q-33 0 -61 -24.5t-50 -65.5t-36.5 -90t-19.5 -97zM233 8q35 0 70.5 40
t60.5 125v37q0 80 31 148.5t77 110.5q-31 35 -57.5 47t-55.5 12q-43 0 -77 -24.5t-59.5 -64t-43 -86.5t-26 -93t-8.5 -82q0 -87 22.5 -128.5t65.5 -41.5z" />
    <glyph glyph-name="ccedilla" unicode="&#xe7;" horiz-adv-x="481" 
d="M234 -10q-90 0 -142.5 51.5t-52.5 155.5q0 55 17 116t53 114t92.5 86t135.5 33q75 0 110.5 -29.5t35.5 -66.5q0 -28 -24.5 -49t-67.5 -21q1 9 1.5 19.5t0.5 20.5q0 53 -15 84.5t-51 31.5q-43 0 -77 -33.5t-58 -87t-36.5 -113.5t-12.5 -113q0 -89 24 -138.5t81 -49.5
q40 0 66.5 17t44 45.5t30.5 61.5q18 -7 18 -25q0 -22 -18.5 -47.5t-56.5 -44t-98 -18.5zM161 -240q-26 0 -43.5 3t-31.5 8l3 11q26 -8 50 -8q33 0 54.5 16t32 41t10.5 53q0 46 -37 57l27 59h10l-20 -45q47 -9 74 -29t27 -53q0 -56 -45 -84.5t-111 -28.5z" />
    <glyph glyph-name="egrave" unicode="&#xe8;" horiz-adv-x="479" 
d="M233 -10q-53 0 -97.5 23t-71 68.5t-26.5 115.5q0 55 19 116t57 114t93.5 86t128.5 33q63 0 98 -30.5t35 -84.5q0 -48 -37.5 -89.5t-102.5 -67.5t-147 -26h-35q-5 -30 -5 -59q0 -90 25.5 -139.5t74.5 -49.5q57 0 91 35t52 90q21 -6 21 -30q0 -19 -18.5 -44t-56.5 -43
t-98 -18zM149 258h27q88 0 139 49t51 131q0 97 -54 97q-30 0 -56 -24.5t-47 -65.5t-36 -90t-24 -97zM384 606q-21 20 -49 49t-52.5 56t-35.5 45l2 10h90q9 -34 26 -76t31 -74l-2 -10h-10z" />
    <glyph glyph-name="eacute" unicode="&#xe9;" horiz-adv-x="479" 
d="M233 -10q-53 0 -97.5 23t-71 68.5t-26.5 115.5q0 55 19 116t57 114t93.5 86t128.5 33q63 0 98 -30.5t35 -84.5q0 -48 -37.5 -89.5t-102.5 -67.5t-147 -26h-35q-5 -30 -5 -59q0 -90 25.5 -139.5t74.5 -49.5q57 0 91 35t52 90q21 -6 21 -30q0 -19 -18.5 -44t-56.5 -43
t-98 -18zM149 258h27q88 0 139 49t51 131q0 97 -54 97q-30 0 -56 -24.5t-47 -65.5t-36 -90t-24 -97zM270 596l2 10q26 32 53 74t47 76h93l-3 -10q-16 -18 -48 -45t-67.5 -56t-64.5 -49h-12z" />
    <glyph glyph-name="ecircumflex" unicode="&#xea;" horiz-adv-x="479" 
d="M233 -10q-53 0 -97.5 23t-71 68.5t-26.5 115.5q0 55 19 116t57 114t93.5 86t128.5 33q63 0 98 -30.5t35 -84.5q0 -48 -37.5 -89.5t-102.5 -67.5t-147 -26h-35q-5 -30 -5 -59q0 -90 25.5 -139.5t74.5 -49.5q57 0 91 35t52 90q21 -6 21 -30q0 -19 -18.5 -44t-56.5 -43
t-98 -18zM149 258h27q88 0 139 49t51 131q0 97 -54 97q-30 0 -56 -24.5t-47 -65.5t-36 -90t-24 -97zM187 606l2 10q21 20 48 46t52.5 53.5t42.5 50.5h75q6 -23 19.5 -50.5t29 -53.5t28.5 -46l-2 -10h-10q-31 18 -60.5 45.5t-51.5 54.5q-35 -27 -79 -54.5t-84 -45.5h-10z" />
    <glyph glyph-name="edieresis" unicode="&#xeb;" horiz-adv-x="479" 
d="M233 -10q-53 0 -97.5 23t-71 68.5t-26.5 115.5q0 55 19 116t57 114t93.5 86t128.5 33q63 0 98 -30.5t35 -84.5q0 -48 -37.5 -89.5t-102.5 -67.5t-147 -26h-35q-5 -30 -5 -59q0 -90 25.5 -139.5t74.5 -49.5q57 0 91 35t52 90q21 -6 21 -30q0 -19 -18.5 -44t-56.5 -43
t-98 -18zM149 258h27q88 0 139 49t51 131q0 97 -54 97q-30 0 -56 -24.5t-47 -65.5t-36 -90t-24 -97zM443 632q-20 0 -31.5 12t-11.5 38q0 28 12.5 45.5t34.5 17.5q19 0 31 -12.5t12 -37.5q0 -35 -15 -49t-32 -14zM253 632q-20 0 -31.5 12t-11.5 38q0 28 12.5 45.5t34.5 17.5
q19 0 31 -12.5t12 -37.5q0 -35 -15 -49t-32 -14z" />
    <glyph glyph-name="igrave" unicode="&#xec;" horiz-adv-x="300" 
d="M155 -10q-40 0 -61.5 29t-21.5 74q0 21 4 48.5t9 54t9 46.5l46 216q3 15 3 26q0 25 -15 33.5t-46 8.5h-13l2 10h179l-68 -321q-2 -11 -6 -32t-6.5 -43t-2.5 -36q0 -73 43 -73q22 0 39 7.5t35 19.5l6 -8q-22 -20 -60 -40t-75 -20zM254 606q-21 20 -49 49t-52.5 56
t-35.5 45l2 10h90q9 -34 26 -76t31 -74l-2 -10h-10z" />
    <glyph glyph-name="iacute" unicode="&#xed;" horiz-adv-x="300" 
d="M155 -10q-40 0 -61.5 29t-21.5 74q0 21 4 48.5t9 54t9 46.5l46 216q3 15 3 26q0 25 -15 33.5t-46 8.5h-13l2 10h179l-68 -321q-2 -11 -6 -32t-6.5 -43t-2.5 -36q0 -73 43 -73q22 0 39 7.5t35 19.5l6 -8q-22 -20 -60 -40t-75 -20zM140 596l2 10q26 32 53 74t47 76h93
l-3 -10q-16 -18 -48 -45t-67.5 -56t-64.5 -49h-12z" />
    <glyph glyph-name="icircumflex" unicode="&#xee;" horiz-adv-x="300" 
d="M155 -10q-40 0 -61.5 29t-21.5 74q0 21 4 48.5t9 54t9 46.5l46 216q3 15 3 26q0 25 -15 33.5t-46 8.5h-13l2 10h179l-68 -321q-2 -11 -6 -32t-6.5 -43t-2.5 -36q0 -73 43 -73q22 0 39 7.5t35 19.5l6 -8q-22 -20 -60 -40t-75 -20zM57 606l2 10q21 20 48 46t52.5 53.5
t42.5 50.5h75q6 -23 19.5 -50.5t29 -53.5t28.5 -46l-2 -10h-10q-31 18 -60.5 45.5t-51.5 54.5q-35 -27 -79 -54.5t-84 -45.5h-10z" />
    <glyph glyph-name="idieresis" unicode="&#xef;" horiz-adv-x="300" 
d="M155 -10q-40 0 -61.5 29t-21.5 74q0 21 4 48.5t9 54t9 46.5l46 216q3 15 3 26q0 25 -15 33.5t-46 8.5h-13l2 10h179l-68 -321q-2 -11 -6 -32t-6.5 -43t-2.5 -36q0 -73 43 -73q22 0 39 7.5t35 19.5l6 -8q-22 -20 -60 -40t-75 -20zM313 632q-20 0 -31.5 12t-11.5 38
q0 28 12.5 45.5t34.5 17.5q19 0 31 -12.5t12 -37.5q0 -35 -15 -49t-32 -14zM123 632q-20 0 -31.5 12t-11.5 38q0 28 12.5 45.5t34.5 17.5q19 0 31 -12.5t12 -37.5q0 -35 -15 -49t-32 -14z" />
    <glyph glyph-name="eth" unicode="&#xf0;" horiz-adv-x="574" 
d="M234 -10q-85 1 -138 49t-53 141q0 51 17.5 108t52.5 107t89 81t127 31q36 0 61.5 -12t40.5 -34q-6 55 -23.5 101.5t-44.5 82.5l-149 -86l3 13l140 81q-26 34 -60 58.5t-72 40.5l3 9q99 -26 169 -85l132 76l-3 -13l-122 -70q59 -53 91.5 -130.5t32.5 -176.5
q0 -74 -17 -141t-53 -119t-91.5 -82t-132.5 -30zM236 0q41 0 72.5 21.5t53.5 57t35.5 78.5t20 86.5t6.5 80.5q0 90 -24 131.5t-70 41.5q-40 0 -70.5 -22t-52 -59t-35 -81t-19.5 -88.5t-6 -82.5q0 -86 22.5 -125t66.5 -39z" />
    <glyph glyph-name="ntilde" unicode="&#xf1;" horiz-adv-x="601" 
d="M462 -10q-44 0 -67.5 28t-23.5 72q0 46 19 135l17 78q5 20 13 57.5t8 68.5q0 17 -4 36t-17.5 33t-40.5 14t-52.5 -18t-46.5 -44t-34.5 -50t-15.5 -36l-78 -364h-93l91 434q3 14 4.5 27t1.5 18q0 30 -20.5 38.5t-49.5 8.5h-8l2 10h185l-27 -126h2q42 66 87 100.5t103 34.5
q59 0 83 -33.5t24 -77.5q0 -25 -6.5 -54.5t-11.5 -55.5l-26 -118q-6 -28 -9.5 -57t-3.5 -54q0 -66 47 -66q32 0 64 26l6 -8q-24 -20 -53.5 -38.5t-68.5 -18.5zM443 606q-29 0 -48 9.5t-35 22t-35.5 22t-49.5 9.5q-33 0 -47 -16.5t-24 -36.5h-10q13 46 45 82t86 36
q29 0 48 -9.5t35 -22t36 -22t50 -9.5q32 0 45.5 16.5t23.5 36.5h10q-13 -46 -45 -82t-85 -36z" />
    <glyph glyph-name="ograve" unicode="&#xf2;" horiz-adv-x="564" 
d="M230 -10q-85 0 -138.5 51.5t-53.5 155.5q0 55 18 116t55 114t93 86t132 33q52 0 95.5 -21t69 -67t25.5 -119q0 -43 -11 -90.5t-34 -93.5t-58 -83t-83 -59.5t-110 -22.5zM232 0q41 0 72 23.5t53.5 62.5t37 86t21 95t6.5 89q0 97 -23 138.5t-69 41.5q-40 0 -71 -23.5
t-53.5 -62.5t-36.5 -86.5t-20.5 -95.5t-6.5 -89q0 -98 24.5 -138.5t65.5 -40.5zM404 606q-21 20 -49 49t-52.5 56t-35.5 45l2 10h90q9 -34 26 -76t31 -74l-2 -10h-10z" />
    <glyph glyph-name="oacute" unicode="&#xf3;" horiz-adv-x="564" 
d="M230 -10q-85 0 -138.5 51.5t-53.5 155.5q0 55 18 116t55 114t93 86t132 33q52 0 95.5 -21t69 -67t25.5 -119q0 -43 -11 -90.5t-34 -93.5t-58 -83t-83 -59.5t-110 -22.5zM232 0q41 0 72 23.5t53.5 62.5t37 86t21 95t6.5 89q0 97 -23 138.5t-69 41.5q-40 0 -71 -23.5
t-53.5 -62.5t-36.5 -86.5t-20.5 -95.5t-6.5 -89q0 -98 24.5 -138.5t65.5 -40.5zM290 596l2 10q26 32 53 74t47 76h93l-3 -10q-16 -18 -48 -45t-67.5 -56t-64.5 -49h-12z" />
    <glyph glyph-name="ocircumflex" unicode="&#xf4;" horiz-adv-x="564" 
d="M230 -10q-85 0 -138.5 51.5t-53.5 155.5q0 55 18 116t55 114t93 86t132 33q52 0 95.5 -21t69 -67t25.5 -119q0 -43 -11 -90.5t-34 -93.5t-58 -83t-83 -59.5t-110 -22.5zM232 0q41 0 72 23.5t53.5 62.5t37 86t21 95t6.5 89q0 97 -23 138.5t-69 41.5q-40 0 -71 -23.5
t-53.5 -62.5t-36.5 -86.5t-20.5 -95.5t-6.5 -89q0 -98 24.5 -138.5t65.5 -40.5zM207 606l2 10q21 20 48 46t52.5 53.5t42.5 50.5h75q6 -23 19.5 -50.5t29 -53.5t28.5 -46l-2 -10h-10q-31 18 -60.5 45.5t-51.5 54.5q-35 -27 -79 -54.5t-84 -45.5h-10z" />
    <glyph glyph-name="otilde" unicode="&#xf5;" horiz-adv-x="564" 
d="M230 -10q-85 0 -138.5 51.5t-53.5 155.5q0 55 18 116t55 114t93 86t132 33q52 0 95.5 -21t69 -67t25.5 -119q0 -43 -11 -90.5t-34 -93.5t-58 -83t-83 -59.5t-110 -22.5zM232 0q41 0 72 23.5t53.5 62.5t37 86t21 95t6.5 89q0 97 -23 138.5t-69 41.5q-40 0 -71 -23.5
t-53.5 -62.5t-36.5 -86.5t-20.5 -95.5t-6.5 -89q0 -98 24.5 -138.5t65.5 -40.5zM423 606q-29 0 -48 9.5t-35 22t-35.5 22t-49.5 9.5q-33 0 -47 -16.5t-24 -36.5h-10q13 46 45 82t86 36q29 0 48 -9.5t35 -22t36 -22t50 -9.5q32 0 45.5 16.5t23.5 36.5h10q-13 -46 -45 -82
t-85 -36z" />
    <glyph glyph-name="odieresis" unicode="&#xf6;" horiz-adv-x="564" 
d="M230 -10q-85 0 -138.5 51.5t-53.5 155.5q0 55 18 116t55 114t93 86t132 33q52 0 95.5 -21t69 -67t25.5 -119q0 -43 -11 -90.5t-34 -93.5t-58 -83t-83 -59.5t-110 -22.5zM232 0q41 0 72 23.5t53.5 62.5t37 86t21 95t6.5 89q0 97 -23 138.5t-69 41.5q-40 0 -71 -23.5
t-53.5 -62.5t-36.5 -86.5t-20.5 -95.5t-6.5 -89q0 -98 24.5 -138.5t65.5 -40.5zM463 632q-20 0 -31.5 12t-11.5 38q0 28 12.5 45.5t34.5 17.5q19 0 31 -12.5t12 -37.5q0 -35 -15 -49t-32 -14zM273 632q-20 0 -31.5 12t-11.5 38q0 28 12.5 45.5t34.5 17.5q19 0 31 -12.5
t12 -37.5q0 -35 -15 -49t-32 -14z" />
    <glyph glyph-name="divide" unicode="&#xf7;" horiz-adv-x="559" 
d="M299 486q-17 0 -29 9.5t-12 33.5t12 33t29 9t29 -9t12 -33t-12 -33.5t-29 -9.5zM84 347v20h429v-20h-429zM299 144q-17 0 -29 9.5t-12 32.5q0 25 12 34t29 9t29 -9t12 -34q0 -23 -12 -32.5t-29 -9.5z" />
    <glyph glyph-name="oslash" unicode="&#xf8;" horiz-adv-x="574" 
d="M5 -50l83 95q-24 26 -37 64t-13 88q0 55 18 116t55 114t93 86t132 33q42 0 79 -13.5t63 -42.5l84 96h12l-90 -103q20 -25 31 -60.5t11 -83.5q0 -43 -11 -90.5t-34 -93.5t-58 -83t-83 -59.5t-110 -22.5q-85 0 -135 49l-78 -89h-12zM142 179q0 -38 4 -68l273 311
q-8 61 -30 87.5t-59 26.5q-40 0 -71 -23.5t-53.5 -62.5t-36.5 -86.5t-20.5 -95.5t-6.5 -89zM232 0q41 0 72 23.5t53.5 62.5t37 86t21 95t6.5 89q0 30 -2 54l-272 -311q9 -53 31 -76t53 -23z" />
    <glyph glyph-name="ugrave" unicode="&#xf9;" horiz-adv-x="601" 
d="M457 -10q-40 0 -62 28t-22 67q0 11 1 27t3 32h-3q-26 -44 -53.5 -78.5t-62.5 -54.5t-81 -20q-59 0 -83 33.5t-24 77.5q0 25 6 54.5t12 55.5l46 207q3 14 6 33t3 27q0 30 -20.5 38.5t-49.5 8.5h-8l2 10h186l-66 -299q-4 -18 -8.5 -41.5t-8 -46.5t-3.5 -37q0 -42 12.5 -67
t46.5 -25q24 0 49.5 18t48.5 47t39 60.5t22 58.5l71 332h97l-69 -321q-2 -11 -6 -32t-6.5 -43t-2.5 -36q0 -78 45 -78q16 0 31 6.5t34 20.5l5 -7q-22 -20 -56 -38t-71 -18zM423 606q-21 20 -49 49t-52.5 56t-35.5 45l2 10h90q9 -34 26 -76t31 -74l-2 -10h-10z" />
    <glyph glyph-name="uacute" unicode="&#xfa;" horiz-adv-x="601" 
d="M457 -10q-40 0 -62 28t-22 67q0 11 1 27t3 32h-3q-26 -44 -53.5 -78.5t-62.5 -54.5t-81 -20q-59 0 -83 33.5t-24 77.5q0 25 6 54.5t12 55.5l46 207q3 14 6 33t3 27q0 30 -20.5 38.5t-49.5 8.5h-8l2 10h186l-66 -299q-4 -18 -8.5 -41.5t-8 -46.5t-3.5 -37q0 -42 12.5 -67
t46.5 -25q24 0 49.5 18t48.5 47t39 60.5t22 58.5l71 332h97l-69 -321q-2 -11 -6 -32t-6.5 -43t-2.5 -36q0 -78 45 -78q16 0 31 6.5t34 20.5l5 -7q-22 -20 -56 -38t-71 -18zM309 596l2 10q26 32 53 74t47 76h93l-3 -10q-16 -18 -48 -45t-67.5 -56t-64.5 -49h-12z" />
    <glyph glyph-name="ucircumflex" unicode="&#xfb;" horiz-adv-x="601" 
d="M457 -10q-40 0 -62 28t-22 67q0 11 1 27t3 32h-3q-26 -44 -53.5 -78.5t-62.5 -54.5t-81 -20q-59 0 -83 33.5t-24 77.5q0 25 6 54.5t12 55.5l46 207q3 14 6 33t3 27q0 30 -20.5 38.5t-49.5 8.5h-8l2 10h186l-66 -299q-4 -18 -8.5 -41.5t-8 -46.5t-3.5 -37q0 -42 12.5 -67
t46.5 -25q24 0 49.5 18t48.5 47t39 60.5t22 58.5l71 332h97l-69 -321q-2 -11 -6 -32t-6.5 -43t-2.5 -36q0 -78 45 -78q16 0 31 6.5t34 20.5l5 -7q-22 -20 -56 -38t-71 -18zM226 606l2 10q21 20 48 46t52.5 53.5t42.5 50.5h75q6 -23 19.5 -50.5t29 -53.5t28.5 -46l-2 -10h-10
q-31 18 -60.5 45.5t-51.5 54.5q-35 -27 -79 -54.5t-84 -45.5h-10z" />
    <glyph glyph-name="udieresis" unicode="&#xfc;" horiz-adv-x="601" 
d="M457 -10q-40 0 -62 28t-22 67q0 11 1 27t3 32h-3q-26 -44 -53.5 -78.5t-62.5 -54.5t-81 -20q-59 0 -83 33.5t-24 77.5q0 25 6 54.5t12 55.5l46 207q3 14 6 33t3 27q0 30 -20.5 38.5t-49.5 8.5h-8l2 10h186l-66 -299q-4 -18 -8.5 -41.5t-8 -46.5t-3.5 -37q0 -42 12.5 -67
t46.5 -25q24 0 49.5 18t48.5 47t39 60.5t22 58.5l71 332h97l-69 -321q-2 -11 -6 -32t-6.5 -43t-2.5 -36q0 -78 45 -78q16 0 31 6.5t34 20.5l5 -7q-22 -20 -56 -38t-71 -18zM482 632q-20 0 -31.5 12t-11.5 38q0 28 12.5 45.5t34.5 17.5q19 0 31 -12.5t12 -37.5q0 -35 -15 -49
t-32 -14zM292 632q-20 0 -31.5 12t-11.5 38q0 28 12.5 45.5t34.5 17.5q19 0 31 -12.5t12 -37.5q0 -35 -15 -49t-32 -14z" />
    <glyph glyph-name="yacute" unicode="&#xfd;" horiz-adv-x="520" 
d="M-65 -240q-53 0 -94 18l3 10q12 -4 30.5 -7.5t53.5 -3.5q99 0 174.5 43t127.5 119l-151 534q-8 30 -19 41.5t-40 11.5h-10l2 10h151l73 -270q5 -20 13.5 -53.5t18 -70.5t16.5 -67t10 -43h1q32 48 62.5 100t55.5 102.5t39.5 93t14.5 71.5q0 33 -21.5 52.5t-78.5 19.5
q0 36 20.5 55t44.5 19q32 0 50 -21t18 -63q0 -78 -48 -180t-128 -224q-49 -76 -90.5 -132t-83.5 -92.5t-93.5 -54.5t-121.5 -18zM222 596l2 10q26 32 53 74t47 76h93l-3 -10q-16 -18 -48 -45t-67.5 -56t-64.5 -49h-12z" />
    <glyph glyph-name="thorn" unicode="&#xfe;" horiz-adv-x="562" 
d="M-23 -240l188 890q5 20 7 34t2 19q0 30 -21 38.5t-49 8.5h-8l2 10h184l-57 -266q-5 -22 -11 -45t-11 -46h2q21 39 47 71.5t60 52t79 19.5q61 0 94 -46.5t33 -134.5q0 -43 -12 -93.5t-35.5 -100.5t-59 -91t-83.5 -65.5t-108 -24.5q-29 0 -51 7.5t-43 21.5q-4 -15 -6 -26
t-6 -28l-21 -93q-1 -6 -5 -25.5t-4 -30.5q0 -30 21 -38t49 -8h13l-2 -10h-188zM217 1q38 0 69.5 24.5t55.5 64.5t40.5 88.5t25 97.5t8.5 90q0 37 -5 71.5t-20 56.5t-45 22q-27 0 -52 -18t-45.5 -45.5t-33.5 -55.5t-18 -48l-68 -319q12 -8 32.5 -18.5t55.5 -10.5z" />
    <glyph glyph-name="ydieresis" unicode="&#xff;" horiz-adv-x="520" 
d="M-65 -240q-53 0 -94 18l3 10q12 -4 30.5 -7.5t53.5 -3.5q99 0 174.5 43t127.5 119l-151 534q-8 30 -19 41.5t-40 11.5h-10l2 10h151l73 -270q5 -20 13.5 -53.5t18 -70.5t16.5 -67t10 -43h1q32 48 62.5 100t55.5 102.5t39.5 93t14.5 71.5q0 33 -21.5 52.5t-78.5 19.5
q0 36 20.5 55t44.5 19q32 0 50 -21t18 -63q0 -78 -48 -180t-128 -224q-49 -76 -90.5 -132t-83.5 -92.5t-93.5 -54.5t-121.5 -18zM395 632q-20 0 -31.5 12t-11.5 38q0 28 12.5 45.5t34.5 17.5q19 0 31 -12.5t12 -37.5q0 -35 -15 -49t-32 -14zM205 632q-20 0 -31.5 12
t-11.5 38q0 28 12.5 45.5t34.5 17.5q19 0 31 -12.5t12 -37.5q0 -35 -15 -49t-32 -14z" />
    <glyph glyph-name="Amacron" unicode="&#x100;" horiz-adv-x="700" 
d="M-62 0l2 10h19q19 0 33 6t27.5 22.5t32.5 49.5l363 626h64l94 -651q5 -31 17.5 -42t41.5 -11h13l-2 -10h-272l2 10h23q77 0 77 51q0 8 -0.5 17.5t-1.5 16.5l-21 164h-288l-91 -157q-11 -18 -15 -32t-4 -24q0 -36 56 -36h69l-2 -10h-237zM286 473l-118 -204h281l-25 195
q-4 30 -9 71t-9 79t-5 60q-11 -22 -32 -58t-43.5 -75t-39.5 -68zM305 808l4 20h290l-4 -20h-290z" />
    <glyph glyph-name="amacron" unicode="&#x101;" horiz-adv-x="580" 
d="M162 -10q-44 0 -73 24t-42.5 65.5t-13.5 93.5q0 47 12.5 98.5t37.5 100t61 88t83 63t104 23.5q41 0 65 -11.5t43 -29.5l53 30h32l-68 -320q-2 -11 -6 -32t-6.5 -43t-2.5 -36q0 -80 41 -80q16 0 35 9t41 25l6 -8q-14 -13 -38 -27t-51 -23.5t-52 -9.5q-36 0 -57 22t-21 61
q0 20 2 36.5t6 41.5h-1q-35 -77 -82.5 -119t-107.5 -42zM205 17q27 0 52 20t46.5 50.5t36 63t19.5 56.5l60 292q-11 18 -32 27t-44 9q-41 0 -73.5 -25t-58 -65.5t-42.5 -89.5t-25.5 -97.5t-8.5 -88.5q0 -82 20 -117t50 -35zM213 630l4 20h290l-4 -20h-290z" />
    <glyph glyph-name="Abreve" unicode="&#x102;" horiz-adv-x="700" 
d="M-62 0l2 10h19q19 0 33 6t27.5 22.5t32.5 49.5l363 626h64l94 -651q5 -31 17.5 -42t41.5 -11h13l-2 -10h-272l2 10h23q77 0 77 51q0 8 -0.5 17.5t-1.5 16.5l-21 164h-288l-91 -157q-11 -18 -15 -32t-4 -24q0 -36 56 -36h69l-2 -10h-237zM286 473l-118 -204h281l-25 195
q-4 30 -9 71t-9 79t-5 60q-11 -22 -32 -58t-43.5 -75t-39.5 -68zM440 784q-60 0 -91 35.5t-35 101.5h10q5 -35 38 -51.5t85 -16.5q49 0 86 16t58 52h10q-14 -56 -55 -96.5t-106 -40.5z" />
    <glyph glyph-name="abreve" unicode="&#x103;" horiz-adv-x="580" 
d="M162 -10q-44 0 -73 24t-42.5 65.5t-13.5 93.5q0 47 12.5 98.5t37.5 100t61 88t83 63t104 23.5q41 0 65 -11.5t43 -29.5l53 30h32l-68 -320q-2 -11 -6 -32t-6.5 -43t-2.5 -36q0 -80 41 -80q16 0 35 9t41 25l6 -8q-14 -13 -38 -27t-51 -23.5t-52 -9.5q-36 0 -57 22t-21 61
q0 20 2 36.5t6 41.5h-1q-35 -77 -82.5 -119t-107.5 -42zM205 17q27 0 52 20t46.5 50.5t36 63t19.5 56.5l60 292q-11 18 -32 27t-44 9q-41 0 -73.5 -25t-58 -65.5t-42.5 -89.5t-25.5 -97.5t-8.5 -88.5q0 -82 20 -117t50 -35zM348 606q-60 0 -91 35.5t-35 101.5h10
q5 -35 38 -51.5t85 -16.5q49 0 86 16t58 52h10q-14 -56 -55 -96.5t-106 -40.5z" />
    <glyph glyph-name="Aogonek" unicode="&#x104;" horiz-adv-x="700" 
d="M-62 0l2 10h19q19 0 33 6t27.5 22.5t32.5 49.5l363 626h64l94 -651q5 -31 17.5 -42t41.5 -11h13l-2 -10h-272l2 10h23q77 0 77 51q0 8 -0.5 17.5t-1.5 16.5l-21 164h-288l-91 -157q-11 -18 -15 -32t-4 -24q0 -36 56 -36h69l-2 -10h-237zM286 473l-118 -204h281l-25 195
q-4 30 -9 71t-9 79t-5 60q-11 -22 -32 -58t-43.5 -75t-39.5 -68zM474 -240q-55 0 -86 24t-31 68q0 56 47 92.5t122 55.5h20q-27 -12 -50.5 -29.5t-37.5 -49t-14 -82.5q0 -29 14 -47t41 -18q8 0 23.5 2.5t33.5 9.5l-2 -10q-37 -16 -80 -16z" />
    <glyph glyph-name="aogonek" unicode="&#x105;" horiz-adv-x="580" 
d="M162 -10q-44 0 -73 24t-42.5 65.5t-13.5 93.5q0 47 12.5 98.5t37.5 100t61 88t83 63t104 23.5q41 0 65 -11.5t43 -29.5l53 30h32l-68 -320q-2 -11 -6 -32t-6.5 -43t-2.5 -36q0 -80 41 -80q16 0 35 9t41 25l6 -8q-14 -13 -38 -27t-51 -23.5t-52 -9.5q-36 0 -57 22t-21 61
q0 20 2 36.5t6 41.5h-1q-35 -77 -82.5 -119t-107.5 -42zM205 17q27 0 52 20t46.5 50.5t36 63t19.5 56.5l60 292q-11 18 -32 27t-44 9q-41 0 -73.5 -25t-58 -65.5t-42.5 -89.5t-25.5 -97.5t-8.5 -88.5q0 -82 20 -117t50 -35zM390 -240q-55 0 -86 24t-31 68q0 56 47 92.5
t122 55.5h20q-27 -12 -50.5 -29.5t-37.5 -49t-14 -82.5q0 -29 14 -47t41 -18q8 0 23.5 2.5t33.5 9.5l-2 -10q-37 -16 -80 -16z" />
    <glyph glyph-name="Cacute" unicode="&#x106;" horiz-adv-x="636" 
d="M337 -10q-131 0 -203.5 70t-72.5 198q0 89 29 172.5t83.5 149.5t130.5 105t169 39q89 0 137 -30.5t48 -80.5q0 -36 -26 -57t-66 -21q0 27 -0.5 58t-9 58.5t-29 45t-59.5 17.5q-55 0 -101.5 -29t-83 -78t-61.5 -110.5t-38.5 -127.5t-13.5 -127q0 -116 45 -179t133 -63
q75 0 114 39.5t64 106.5q20 -10 20 -33q0 -27 -21.5 -55.5t-68 -48t-119.5 -19.5zM421 774l2 10q26 32 53 74t47 76h93l-3 -10q-16 -18 -48 -45t-67.5 -56t-64.5 -49h-12z" />
    <glyph glyph-name="cacute" unicode="&#x107;" horiz-adv-x="481" 
d="M234 -10q-90 0 -142.5 51.5t-52.5 155.5q0 55 17 116t53 114t92.5 86t135.5 33q75 0 110.5 -29.5t35.5 -66.5q0 -28 -24.5 -49t-67.5 -21q1 9 1.5 19.5t0.5 20.5q0 53 -15 84.5t-51 31.5q-43 0 -77 -33.5t-58 -87t-36.5 -113.5t-12.5 -113q0 -89 24 -138.5t81 -49.5
q40 0 66.5 17t44 45.5t30.5 61.5q18 -7 18 -25q0 -22 -18.5 -47.5t-56.5 -44t-98 -18.5zM268 596l2 10q26 32 53 74t47 76h93l-3 -10q-16 -18 -48 -45t-67.5 -56t-64.5 -49h-12z" />
    <glyph glyph-name="Ccircumflex" unicode="&#x108;" horiz-adv-x="636" 
d="M337 -10q-131 0 -203.5 70t-72.5 198q0 89 29 172.5t83.5 149.5t130.5 105t169 39q89 0 137 -30.5t48 -80.5q0 -36 -26 -57t-66 -21q0 27 -0.5 58t-9 58.5t-29 45t-59.5 17.5q-55 0 -101.5 -29t-83 -78t-61.5 -110.5t-38.5 -127.5t-13.5 -127q0 -116 45 -179t133 -63
q75 0 114 39.5t64 106.5q20 -10 20 -33q0 -27 -21.5 -55.5t-68 -48t-119.5 -19.5zM338 784l2 10q21 20 48 46t52.5 53.5t42.5 50.5h75q6 -23 19.5 -50.5t29 -53.5t28.5 -46l-2 -10h-10q-31 18 -60.5 45.5t-51.5 54.5q-35 -27 -79 -54.5t-84 -45.5h-10z" />
    <glyph glyph-name="ccircumflex" unicode="&#x109;" horiz-adv-x="481" 
d="M234 -10q-90 0 -142.5 51.5t-52.5 155.5q0 55 17 116t53 114t92.5 86t135.5 33q75 0 110.5 -29.5t35.5 -66.5q0 -28 -24.5 -49t-67.5 -21q1 9 1.5 19.5t0.5 20.5q0 53 -15 84.5t-51 31.5q-43 0 -77 -33.5t-58 -87t-36.5 -113.5t-12.5 -113q0 -89 24 -138.5t81 -49.5
q40 0 66.5 17t44 45.5t30.5 61.5q18 -7 18 -25q0 -22 -18.5 -47.5t-56.5 -44t-98 -18.5zM185 606l2 10q21 20 48 46t52.5 53.5t42.5 50.5h75q6 -23 19.5 -50.5t29 -53.5t28.5 -46l-2 -10h-10q-31 18 -60.5 45.5t-51.5 54.5q-35 -27 -79 -54.5t-84 -45.5h-10z" />
    <glyph glyph-name="Cdot" unicode="&#x10a;" horiz-adv-x="636" 
d="M337 -10q-131 0 -203.5 70t-72.5 198q0 89 29 172.5t83.5 149.5t130.5 105t169 39q89 0 137 -30.5t48 -80.5q0 -36 -26 -57t-66 -21q0 27 -0.5 58t-9 58.5t-29 45t-59.5 17.5q-55 0 -101.5 -29t-83 -78t-61.5 -110.5t-38.5 -127.5t-13.5 -127q0 -116 45 -179t133 -63
q75 0 114 39.5t64 106.5q20 -10 20 -33q0 -27 -21.5 -55.5t-68 -48t-119.5 -19.5zM501 814q-20 0 -33 11.5t-13 38.5q0 33 14 49t36 16q20 0 33 -10.5t13 -39.5q0 -38 -16 -51.5t-34 -13.5z" />
    <glyph glyph-name="cdot" unicode="&#x10b;" horiz-adv-x="481" 
d="M234 -10q-90 0 -142.5 51.5t-52.5 155.5q0 55 17 116t53 114t92.5 86t135.5 33q75 0 110.5 -29.5t35.5 -66.5q0 -28 -24.5 -49t-67.5 -21q1 9 1.5 19.5t0.5 20.5q0 53 -15 84.5t-51 31.5q-43 0 -77 -33.5t-58 -87t-36.5 -113.5t-12.5 -113q0 -89 24 -138.5t81 -49.5
q40 0 66.5 17t44 45.5t30.5 61.5q18 -7 18 -25q0 -22 -18.5 -47.5t-56.5 -44t-98 -18.5zM348 636q-20 0 -33 11.5t-13 38.5q0 33 14 49t36 16q20 0 33 -10.5t13 -39.5q0 -38 -16 -51.5t-34 -13.5z" />
    <glyph glyph-name="Ccaron" unicode="&#x10c;" horiz-adv-x="636" 
d="M337 -10q-131 0 -203.5 70t-72.5 198q0 89 29 172.5t83.5 149.5t130.5 105t169 39q89 0 137 -30.5t48 -80.5q0 -36 -26 -57t-66 -21q0 27 -0.5 58t-9 58.5t-29 45t-59.5 17.5q-55 0 -101.5 -29t-83 -78t-61.5 -110.5t-38.5 -127.5t-13.5 -127q0 -116 45 -179t133 -63
q75 0 114 39.5t64 106.5q20 -10 20 -33q0 -27 -21.5 -55.5t-68 -48t-119.5 -19.5zM450 784q-13 37 -35 79t-42 71l2 10h10q29 -20 59.5 -47t52.5 -54q34 27 78.5 54t84.5 47h10l-2 -10q-31 -29 -72 -70.5t-71 -79.5h-75z" />
    <glyph glyph-name="ccaron" unicode="&#x10d;" horiz-adv-x="481" 
d="M234 -10q-90 0 -142.5 51.5t-52.5 155.5q0 55 17 116t53 114t92.5 86t135.5 33q75 0 110.5 -29.5t35.5 -66.5q0 -28 -24.5 -49t-67.5 -21q1 9 1.5 19.5t0.5 20.5q0 53 -15 84.5t-51 31.5q-43 0 -77 -33.5t-58 -87t-36.5 -113.5t-12.5 -113q0 -89 24 -138.5t81 -49.5
q40 0 66.5 17t44 45.5t30.5 61.5q18 -7 18 -25q0 -22 -18.5 -47.5t-56.5 -44t-98 -18.5zM297 606q-13 37 -35 79t-42 71l2 10h10q29 -20 59.5 -47t52.5 -54q34 27 78.5 54t84.5 47h10l-2 -10q-31 -29 -72 -70.5t-71 -79.5h-75z" />
    <glyph glyph-name="Dcaron" unicode="&#x10e;" horiz-adv-x="723" 
d="M-19 0l2 10h13q34 0 61 12.5t37 59.5l117 554q1 7 2.5 14.5t1.5 13.5q0 27 -22.5 33.5t-49.5 6.5h-13l2 10h280q135 0 209.5 -69.5t74.5 -202.5q0 -89 -26 -169t-77 -141.5t-125.5 -96.5t-171.5 -35h-315zM178 11h87q101 0 173 56.5t110.5 156.5t38.5 229
q0 130 -46 190.5t-136 60.5h-79zM440 784q-13 37 -35 79t-42 71l2 10h10q29 -20 59.5 -47t52.5 -54q34 27 78.5 54t84.5 47h10l-2 -10q-31 -29 -72 -70.5t-71 -79.5h-75z" />
    <glyph glyph-name="dcaron" unicode="&#x10f;" horiz-adv-x="580" 
d="M162 -10q-44 0 -73 24t-42.5 65.5t-13.5 93.5q0 47 12.5 98.5t37.5 100t61 88t83 63t104 23.5q28 0 52 -7t43 -17q2 14 5 27t7 29l18 80q3 14 5.5 27t2.5 24q0 25 -18 33t-47 8h-13l2 10h184l-116 -545q-2 -11 -6 -32t-6.5 -43t-2.5 -36q0 -80 42 -80q17 0 37 10t39 24
l5 -8q-14 -13 -38 -27t-51 -23.5t-52 -9.5q-36 0 -57 22t-21 61q0 13 2.5 33t7.5 45h-3q-34 -77 -82.5 -119t-107.5 -42zM205 17q24 0 47.5 17t44.5 44t36.5 58.5t21.5 60.5l67 312q-13 10 -34.5 17.5t-47.5 7.5q-40 0 -72.5 -24.5t-57.5 -65.5t-41.5 -89.5t-25 -97
t-8.5 -88.5q0 -82 20 -117t50 -35zM606 600l3 14q21 38 36.5 72.5t29.5 73.5h75l-2 -10q-23 -32 -59 -72.5t-73 -77.5h-10z" />
    <glyph glyph-name="Dcroat" unicode="&#x110;" horiz-adv-x="725" 
d="M-19 0l2 10h13q34 0 61 12.5t37 59.5l61 288h-99l2 10h99l54 256q1 7 2.5 14.5t1.5 13.5q0 27 -22.5 33.5t-49.5 6.5h-13l2 10h280q135 0 209.5 -69.5t74.5 -202.5q0 -89 -26 -169t-77 -141.5t-125.5 -96.5t-171.5 -35h-315zM178 11h87q101 0 173 56.5t110.5 156.5
t38.5 229q0 130 -46 190.5t-136 60.5h-79l-69 -324h167l-2 -10h-167z" />
    <glyph glyph-name="dcroat" unicode="&#x111;" horiz-adv-x="580" 
d="M162 -10q-44 0 -73 24t-42.5 65.5t-13.5 93.5q0 47 12.5 98.5t37.5 100t61 88t83 63t104 23.5q28 0 52 -7t43 -17q2 14 5 27t7 29l12 52h-162l2 10h162l4 18q3 14 5.5 27t2.5 24q0 25 -18 33t-47 8h-13l2 10h184l-26 -120h100l-2 -10h-100l-88 -415q-2 -11 -6 -32
t-6.5 -43t-2.5 -36q0 -80 42 -80q17 0 37 10t39 24l5 -8q-14 -13 -38 -27t-51 -23.5t-52 -9.5q-36 0 -57 22t-21 61q0 13 2.5 33t7.5 45h-3q-34 -77 -82.5 -119t-107.5 -42zM205 17q24 0 47.5 17t44.5 44t36.5 58.5t21.5 60.5l67 312q-13 10 -34.5 17.5t-47.5 7.5
q-40 0 -72.5 -24.5t-57.5 -65.5t-41.5 -89.5t-25 -97t-8.5 -88.5q0 -82 20 -117t50 -35z" />
    <glyph glyph-name="Emacron" unicode="&#x112;" horiz-adv-x="621" 
d="M-19 0l2 10h13q33 0 59.5 11t36.5 56l118 555q3 14 3 24q0 32 -20.5 40t-49.5 8h-13l2 10h504l-32 -175h-10q1 7 3.5 28t2.5 34q0 27 -5 50.5t-22.5 38t-56.5 14.5h-190l-69 -325h241l-2 -10h-241l-76 -359h216q44 0 71 16t43.5 44t27.5 62l14 43h10l-44 -175h-536z
M295 808l4 20h290l-4 -20h-290z" />
    <glyph glyph-name="emacron" unicode="&#x113;" horiz-adv-x="479" 
d="M233 -10q-53 0 -97.5 23t-71 68.5t-26.5 115.5q0 55 19 116t57 114t93.5 86t128.5 33q63 0 98 -30.5t35 -84.5q0 -48 -37.5 -89.5t-102.5 -67.5t-147 -26h-35q-5 -30 -5 -59q0 -90 25.5 -139.5t74.5 -49.5q57 0 91 35t52 90q21 -6 21 -30q0 -19 -18.5 -44t-56.5 -43
t-98 -18zM149 258h27q88 0 139 49t51 131q0 97 -54 97q-30 0 -56 -24.5t-47 -65.5t-36 -90t-24 -97zM195 630l4 20h290l-4 -20h-290z" />
    <glyph glyph-name="Ebreve" unicode="&#x114;" horiz-adv-x="621" 
d="M-19 0l2 10h13q33 0 59.5 11t36.5 56l118 555q3 14 3 24q0 32 -20.5 40t-49.5 8h-13l2 10h504l-32 -175h-10q1 7 3.5 28t2.5 34q0 27 -5 50.5t-22.5 38t-56.5 14.5h-190l-69 -325h241l-2 -10h-241l-76 -359h216q44 0 71 16t43.5 44t27.5 62l14 43h10l-44 -175h-536z
M430 784q-60 0 -91 35.5t-35 101.5h10q5 -35 38 -51.5t85 -16.5q49 0 86 16t58 52h10q-14 -56 -55 -96.5t-106 -40.5z" />
    <glyph glyph-name="ebreve" unicode="&#x115;" horiz-adv-x="479" 
d="M233 -10q-53 0 -97.5 23t-71 68.5t-26.5 115.5q0 55 19 116t57 114t93.5 86t128.5 33q63 0 98 -30.5t35 -84.5q0 -48 -37.5 -89.5t-102.5 -67.5t-147 -26h-35q-5 -30 -5 -59q0 -90 25.5 -139.5t74.5 -49.5q57 0 91 35t52 90q21 -6 21 -30q0 -19 -18.5 -44t-56.5 -43
t-98 -18zM149 258h27q88 0 139 49t51 131q0 97 -54 97q-30 0 -56 -24.5t-47 -65.5t-36 -90t-24 -97zM330 606q-60 0 -91 35.5t-35 101.5h10q5 -35 38 -51.5t85 -16.5q49 0 86 16t58 52h10q-14 -56 -55 -96.5t-106 -40.5z" />
    <glyph glyph-name="Edotaccent" unicode="&#x116;" horiz-adv-x="621" 
d="M-19 0l2 10h13q33 0 59.5 11t36.5 56l118 555q3 14 3 24q0 32 -20.5 40t-49.5 8h-13l2 10h504l-32 -175h-10q1 7 3.5 28t2.5 34q0 27 -5 50.5t-22.5 38t-56.5 14.5h-190l-69 -325h241l-2 -10h-241l-76 -359h216q44 0 71 16t43.5 44t27.5 62l14 43h10l-44 -175h-536z
M450 814q-20 0 -33 11.5t-13 38.5q0 33 14 49t36 16q20 0 33 -10.5t13 -39.5q0 -38 -16 -51.5t-34 -13.5z" />
    <glyph glyph-name="edotaccent" unicode="&#x117;" horiz-adv-x="479" 
d="M233 -10q-53 0 -97.5 23t-71 68.5t-26.5 115.5q0 55 19 116t57 114t93.5 86t128.5 33q63 0 98 -30.5t35 -84.5q0 -48 -37.5 -89.5t-102.5 -67.5t-147 -26h-35q-5 -30 -5 -59q0 -90 25.5 -139.5t74.5 -49.5q57 0 91 35t52 90q21 -6 21 -30q0 -19 -18.5 -44t-56.5 -43
t-98 -18zM149 258h27q88 0 139 49t51 131q0 97 -54 97q-30 0 -56 -24.5t-47 -65.5t-36 -90t-24 -97zM350 636q-20 0 -33 11.5t-13 38.5q0 33 14 49t36 16q20 0 33 -10.5t13 -39.5q0 -38 -16 -51.5t-34 -13.5z" />
    <glyph glyph-name="Eogonek" unicode="&#x118;" horiz-adv-x="621" 
d="M-19 0l2 10h13q33 0 59.5 11t36.5 56l118 555q3 14 3 24q0 32 -20.5 40t-49.5 8h-13l2 10h504l-32 -175h-10q1 7 3.5 28t2.5 34q0 27 -5 50.5t-22.5 38t-56.5 14.5h-190l-69 -325h241l-2 -10h-241l-76 -359h216q44 0 71 16t43.5 44t27.5 62l14 43h10l-44 -175h-536z
M376 -240q-55 0 -86 24t-31 68q0 56 47 92.5t122 55.5h20q-27 -12 -50.5 -29.5t-37.5 -49t-14 -82.5q0 -29 14 -47t41 -18q8 0 23.5 2.5t33.5 9.5l-2 -10q-37 -16 -80 -16z" />
    <glyph glyph-name="eogonek" unicode="&#x119;" horiz-adv-x="479" 
d="M233 -10q-53 0 -97.5 23t-71 68.5t-26.5 115.5q0 55 19 116t57 114t93.5 86t128.5 33q63 0 98 -30.5t35 -84.5q0 -48 -37.5 -89.5t-102.5 -67.5t-147 -26h-35q-5 -30 -5 -59q0 -90 25.5 -139.5t74.5 -49.5q57 0 91 35t52 90q21 -6 21 -30q0 -19 -18.5 -44t-56.5 -43
t-98 -18zM149 258h27q88 0 139 49t51 131q0 97 -54 97q-30 0 -56 -24.5t-47 -65.5t-36 -90t-24 -97zM271 -225q-55 0 -86 24t-31 68q0 56 47 92.5t122 55.5h20q-27 -12 -50.5 -29.5t-37.5 -49t-14 -82.5q0 -29 14 -47t41 -18q8 0 23.5 2.5t33.5 9.5l-2 -10q-37 -16 -80 -16z
" />
    <glyph glyph-name="Ecaron" unicode="&#x11a;" horiz-adv-x="621" 
d="M-19 0l2 10h13q33 0 59.5 11t36.5 56l118 555q3 14 3 24q0 32 -20.5 40t-49.5 8h-13l2 10h504l-32 -175h-10q1 7 3.5 28t2.5 34q0 27 -5 50.5t-22.5 38t-56.5 14.5h-190l-69 -325h241l-2 -10h-241l-76 -359h216q44 0 71 16t43.5 44t27.5 62l14 43h10l-44 -175h-536z
M399 784q-13 37 -35 79t-42 71l2 10h10q29 -20 59.5 -47t52.5 -54q34 27 78.5 54t84.5 47h10l-2 -10q-31 -29 -72 -70.5t-71 -79.5h-75z" />
    <glyph glyph-name="ecaron" unicode="&#x11b;" horiz-adv-x="479" 
d="M233 -10q-53 0 -97.5 23t-71 68.5t-26.5 115.5q0 55 19 116t57 114t93.5 86t128.5 33q63 0 98 -30.5t35 -84.5q0 -48 -37.5 -89.5t-102.5 -67.5t-147 -26h-35q-5 -30 -5 -59q0 -90 25.5 -139.5t74.5 -49.5q57 0 91 35t52 90q21 -6 21 -30q0 -19 -18.5 -44t-56.5 -43
t-98 -18zM149 258h27q88 0 139 49t51 131q0 97 -54 97q-30 0 -56 -24.5t-47 -65.5t-36 -90t-24 -97zM299 606q-13 37 -35 79t-42 71l2 10h10q29 -20 59.5 -47t52.5 -54q34 27 78.5 54t84.5 47h10l-2 -10q-31 -29 -72 -70.5t-71 -79.5h-75z" />
    <glyph glyph-name="Gcircumflex" unicode="&#x11c;" horiz-adv-x="714" 
d="M345 -10q-141 0 -212.5 72t-71.5 196q0 97 31 181.5t88 148.5t136 100t175 36q107 0 159 -32t52 -76q0 -39 -28 -59t-68 -20q0 51 -8 91t-35 63t-83 23q-66 0 -122.5 -38t-98.5 -104.5t-65.5 -151.5t-23.5 -178q0 -72 14.5 -126.5t53 -85t109.5 -30.5q33 0 65 4t54 10
l50 238q4 16 4 28q0 26 -21.5 33t-50.5 7h-9l2 10h266l-2 -10h-4q-28 0 -51.5 -12.5t-33.5 -59.5l-45 -212q-55 -23 -108 -34.5t-118 -11.5zM347 784l2 10q21 20 48 46t52.5 53.5t42.5 50.5h75q6 -23 19.5 -50.5t29 -53.5t28.5 -46l-2 -10h-10q-31 18 -60.5 45.5t-51.5 54.5
q-35 -27 -79 -54.5t-84 -45.5h-10z" />
    <glyph glyph-name="gcircumflex" unicode="&#x11d;" horiz-adv-x="556" 
d="M170 -240q-218 0 -218 128q0 60 52 94t140 36q-45 15 -61 37.5t-16 47.5q0 30 25.5 58t81.5 38q-82 31 -82 124q0 35 14 74t42.5 73t72.5 55t103 21q30 0 56.5 -8t46.5 -24q19 29 46.5 50t61.5 21q25 0 37.5 -13t12.5 -33q0 -22 -12.5 -42t-46.5 -20q0 24 -9.5 40.5
t-32.5 16.5q-28 0 -49 -26q36 -39 36 -95q0 -34 -13.5 -72.5t-41.5 -73t-71.5 -56.5t-102.5 -22q-15 0 -29.5 1.5t-28.5 5.5q-28 -10 -42.5 -24t-14.5 -36q0 -20 18.5 -28t50.5 -11l90 -9q74 -8 114.5 -39.5t40.5 -91.5q0 -90 -68 -143.5t-203 -53.5zM248 199q35 0 60 22.5
t41 57.5t23.5 74t7.5 73q0 110 -59 110q-37 0 -63.5 -22t-42.5 -56.5t-23.5 -71.5t-7.5 -67q0 -64 17 -92t47 -28zM172 -230q66 0 106 21.5t58 55.5t18 71q0 40 -22 60t-71 25l-102 10q-51 -6 -88.5 -34.5t-37.5 -82.5q0 -56 30 -91t109 -35zM190 606l2 10q21 20 48 46
t52.5 53.5t42.5 50.5h75q6 -23 19.5 -50.5t29 -53.5t28.5 -46l-2 -10h-10q-31 18 -60.5 45.5t-51.5 54.5q-35 -27 -79 -54.5t-84 -45.5h-10z" />
    <glyph glyph-name="Gbreve" unicode="&#x11e;" horiz-adv-x="714" 
d="M345 -10q-141 0 -212.5 72t-71.5 196q0 97 31 181.5t88 148.5t136 100t175 36q107 0 159 -32t52 -76q0 -39 -28 -59t-68 -20q0 51 -8 91t-35 63t-83 23q-66 0 -122.5 -38t-98.5 -104.5t-65.5 -151.5t-23.5 -178q0 -72 14.5 -126.5t53 -85t109.5 -30.5q33 0 65 4t54 10
l50 238q4 16 4 28q0 26 -21.5 33t-50.5 7h-9l2 10h266l-2 -10h-4q-28 0 -51.5 -12.5t-33.5 -59.5l-45 -212q-55 -23 -108 -34.5t-118 -11.5zM490 784q-60 0 -91 35.5t-35 101.5h10q5 -35 38 -51.5t85 -16.5q49 0 86 16t58 52h10q-14 -56 -55 -96.5t-106 -40.5z" />
    <glyph glyph-name="gbreve" unicode="&#x11f;" horiz-adv-x="556" 
d="M170 -240q-218 0 -218 128q0 60 52 94t140 36q-45 15 -61 37.5t-16 47.5q0 30 25.5 58t81.5 38q-82 31 -82 124q0 35 14 74t42.5 73t72.5 55t103 21q30 0 56.5 -8t46.5 -24q19 29 46.5 50t61.5 21q25 0 37.5 -13t12.5 -33q0 -22 -12.5 -42t-46.5 -20q0 24 -9.5 40.5
t-32.5 16.5q-28 0 -49 -26q36 -39 36 -95q0 -34 -13.5 -72.5t-41.5 -73t-71.5 -56.5t-102.5 -22q-15 0 -29.5 1.5t-28.5 5.5q-28 -10 -42.5 -24t-14.5 -36q0 -20 18.5 -28t50.5 -11l90 -9q74 -8 114.5 -39.5t40.5 -91.5q0 -90 -68 -143.5t-203 -53.5zM248 199q35 0 60 22.5
t41 57.5t23.5 74t7.5 73q0 110 -59 110q-37 0 -63.5 -22t-42.5 -56.5t-23.5 -71.5t-7.5 -67q0 -64 17 -92t47 -28zM172 -230q66 0 106 21.5t58 55.5t18 71q0 40 -22 60t-71 25l-102 10q-51 -6 -88.5 -34.5t-37.5 -82.5q0 -56 30 -91t109 -35zM333 606q-60 0 -91 35.5
t-35 101.5h10q5 -35 38 -51.5t85 -16.5q49 0 86 16t58 52h10q-14 -56 -55 -96.5t-106 -40.5z" />
    <glyph glyph-name="Gdot" unicode="&#x120;" horiz-adv-x="714" 
d="M345 -10q-141 0 -212.5 72t-71.5 196q0 97 31 181.5t88 148.5t136 100t175 36q107 0 159 -32t52 -76q0 -39 -28 -59t-68 -20q0 51 -8 91t-35 63t-83 23q-66 0 -122.5 -38t-98.5 -104.5t-65.5 -151.5t-23.5 -178q0 -72 14.5 -126.5t53 -85t109.5 -30.5q33 0 65 4t54 10
l50 238q4 16 4 28q0 26 -21.5 33t-50.5 7h-9l2 10h266l-2 -10h-4q-28 0 -51.5 -12.5t-33.5 -59.5l-45 -212q-55 -23 -108 -34.5t-118 -11.5zM510 814q-20 0 -33 11.5t-13 38.5q0 33 14 49t36 16q20 0 33 -10.5t13 -39.5q0 -38 -16 -51.5t-34 -13.5z" />
    <glyph glyph-name="gdot" unicode="&#x121;" horiz-adv-x="556" 
d="M170 -240q-218 0 -218 128q0 60 52 94t140 36q-45 15 -61 37.5t-16 47.5q0 30 25.5 58t81.5 38q-82 31 -82 124q0 35 14 74t42.5 73t72.5 55t103 21q30 0 56.5 -8t46.5 -24q19 29 46.5 50t61.5 21q25 0 37.5 -13t12.5 -33q0 -22 -12.5 -42t-46.5 -20q0 24 -9.5 40.5
t-32.5 16.5q-28 0 -49 -26q36 -39 36 -95q0 -34 -13.5 -72.5t-41.5 -73t-71.5 -56.5t-102.5 -22q-15 0 -29.5 1.5t-28.5 5.5q-28 -10 -42.5 -24t-14.5 -36q0 -20 18.5 -28t50.5 -11l90 -9q74 -8 114.5 -39.5t40.5 -91.5q0 -90 -68 -143.5t-203 -53.5zM248 199q35 0 60 22.5
t41 57.5t23.5 74t7.5 73q0 110 -59 110q-37 0 -63.5 -22t-42.5 -56.5t-23.5 -71.5t-7.5 -67q0 -64 17 -92t47 -28zM172 -230q66 0 106 21.5t58 55.5t18 71q0 40 -22 60t-71 25l-102 10q-51 -6 -88.5 -34.5t-37.5 -82.5q0 -56 30 -91t109 -35zM353 636q-20 0 -33 11.5
t-13 38.5q0 33 14 49t36 16q20 0 33 -10.5t13 -39.5q0 -38 -16 -51.5t-34 -13.5z" />
    <glyph glyph-name="uni0122" unicode="&#x122;" horiz-adv-x="714" 
d="M345 -10q-141 0 -212.5 72t-71.5 196q0 97 31 181.5t88 148.5t136 100t175 36q107 0 159 -32t52 -76q0 -39 -28 -59t-68 -20q0 51 -8 91t-35 63t-83 23q-66 0 -122.5 -38t-98.5 -104.5t-65.5 -151.5t-23.5 -178q0 -72 14.5 -126.5t53 -85t109.5 -30.5q33 0 65 4t54 10
l50 238q4 16 4 28q0 26 -21.5 33t-50.5 7h-9l2 10h266l-2 -10h-4q-28 0 -51.5 -12.5t-33.5 -59.5l-45 -212q-55 -23 -108 -34.5t-118 -11.5zM215 -221l2 8q22 43 37.5 78t29.5 74h75l-2 -10q-22 -31 -58 -72t-74 -78h-10z" />
    <glyph glyph-name="uni0123" unicode="&#x123;" horiz-adv-x="556" 
d="M170 -240q-218 0 -218 128q0 60 52 94t140 36q-45 15 -61 37.5t-16 47.5q0 30 25.5 58t81.5 38q-82 31 -82 124q0 35 14 74t42.5 73t72.5 55t103 21q30 0 56.5 -8t46.5 -24q19 29 46.5 50t61.5 21q25 0 37.5 -13t12.5 -33q0 -22 -12.5 -42t-46.5 -20q0 24 -9.5 40.5
t-32.5 16.5q-28 0 -49 -26q36 -39 36 -95q0 -34 -13.5 -72.5t-41.5 -73t-71.5 -56.5t-102.5 -22q-15 0 -29.5 1.5t-28.5 5.5q-28 -10 -42.5 -24t-14.5 -36q0 -20 18.5 -28t50.5 -11l90 -9q74 -8 114.5 -39.5t40.5 -91.5q0 -90 -68 -143.5t-203 -53.5zM248 199q35 0 60 22.5
t41 57.5t23.5 74t7.5 73q0 110 -59 110q-37 0 -63.5 -22t-42.5 -56.5t-23.5 -71.5t-7.5 -67q0 -64 17 -92t47 -28zM172 -230q66 0 106 21.5t58 55.5t18 71q0 40 -22 60t-71 25l-102 10q-51 -6 -88.5 -34.5t-37.5 -82.5q0 -56 30 -91t109 -35zM298 606l2 10q23 32 59 72.5
t73 77.5h10l-3 -14q-21 -38 -36.5 -72.5t-29.5 -73.5h-75z" />
    <glyph glyph-name="Hcircumflex" unicode="&#x124;" horiz-adv-x="775" 
d="M-19 0l2 10h13q34 0 61 12.5t37 59.5l117 554q4 16 4 28q0 26 -20.5 33t-51.5 7h-13l2 10h291l-2 -10h-13q-34 0 -60.5 -12.5t-36.5 -59.5l-54 -254h325l55 258q4 16 4 28q0 26 -20.5 33t-51.5 7h-13l2 10h291l-2 -10h-13q-34 0 -60.5 -12.5t-36.5 -59.5l-117 -554
q-4 -16 -4 -28q0 -26 20 -33t52 -7h12l-2 -10h-291l2 10h13q34 0 61 12.5t37 59.5l59 286h-325l-60 -290q-4 -16 -4 -28q0 -26 20 -33t52 -7h13l-3 -10h-291zM367 784l2 10q21 20 48 46t52.5 53.5t42.5 50.5h75q6 -23 19.5 -50.5t29 -53.5t28.5 -46l-2 -10h-10
q-31 18 -60.5 45.5t-51.5 54.5q-35 -27 -79 -54.5t-84 -45.5h-10z" />
    <glyph glyph-name="hcircumflex" unicode="&#x125;" horiz-adv-x="595" 
d="M456 -10q-44 0 -67.5 28t-23.5 72q0 46 19 135l17 78q5 20 13 58t8 73q0 18 -4 37.5t-15.5 33t-34.5 13.5q-28 0 -55.5 -20t-50.5 -50t-38.5 -62.5t-20.5 -56.5l-70 -329h-93l137 650q5 20 7 34t2 19q0 30 -21 38.5t-49 8.5h-8l2 10h184l-39 -184q-11 -53 -22.5 -100
t-16.5 -66h4q42 66 87.5 100.5t103.5 34.5q59 0 83 -33.5t24 -77.5q0 -25 -6.5 -54.5t-11.5 -55.5l-26 -118q-6 -28 -9.5 -55t-3.5 -50q0 -74 52 -74q23 0 59 28l6 -8q-24 -20 -53.5 -38.5t-68.5 -18.5zM278 798l2 10q21 20 48 46t52.5 53.5t42.5 50.5h75q6 -23 19.5 -50.5
t29 -53.5t28.5 -46l-2 -10h-10q-31 18 -60.5 45.5t-51.5 54.5q-35 -27 -79 -54.5t-84 -45.5h-10z" />
    <glyph glyph-name="Hbar" unicode="&#x126;" horiz-adv-x="793" 
d="M-19 0l2 10h13q34 0 61 12.5t37 59.5l93 438h-98l2 10h98l22 106q4 16 4 28q0 26 -20.5 33t-51.5 7h-13l2 10h291l-2 -10h-13q-34 0 -60.5 -12.5t-36.5 -59.5l-22 -102h325l23 106q4 16 4 28q0 26 -20.5 33t-51.5 7h-13l2 10h291l-2 -10h-13q-34 0 -60.5 -12.5
t-36.5 -59.5l-22 -102h93l-2 -10h-93l-93 -442q-4 -16 -4 -28q0 -26 20 -33t52 -7h12l-2 -10h-291l2 10h13q34 0 61 12.5t37 59.5l59 286h-325l-60 -290q-4 -16 -4 -28q0 -26 20 -33t52 -7h13l-3 -10h-291zM257 378h325l30 142h-325z" />
    <glyph glyph-name="hbar" unicode="&#x127;" horiz-adv-x="599" 
d="M456 -10q-44 0 -67.5 28t-23.5 72q0 46 19 135l17 78q5 20 13 58t8 73q0 18 -4 37.5t-15.5 33t-34.5 13.5q-28 0 -55.5 -20t-50.5 -50t-38.5 -62.5t-20.5 -56.5l-70 -329h-93l129 613h-87l2 10h87l6 27q5 20 7 34t2 19q0 30 -21 38.5t-49 8.5h-8l2 10h184l-29 -137h175
l-2 -10h-175l-8 -37q-11 -53 -22.5 -100t-16.5 -66h4q42 66 87.5 100.5t103.5 34.5q59 0 83 -33.5t24 -77.5q0 -25 -6.5 -54.5t-11.5 -55.5l-26 -118q-6 -28 -9.5 -55t-3.5 -50q0 -74 52 -74q23 0 59 28l6 -8q-24 -20 -53.5 -38.5t-68.5 -18.5z" />
    <glyph glyph-name="Itilde" unicode="&#x128;" horiz-adv-x="349" 
d="M-19 0l1 10h13q34 0 61 12.5t37 59.5l118 554q4 16 4 28q0 26 -20.5 33t-51.5 7h-13l2 10h291l-2 -10h-13q-34 0 -60.5 -12.5t-36.5 -59.5l-118 -554q-4 -16 -4 -28q0 -26 20.5 -33t51.5 -7h13l-2 -10h-291zM355 784q-29 0 -48 9.5t-35 22t-35.5 22t-49.5 9.5
q-33 0 -47 -16.5t-24 -36.5h-10q13 46 45 82t86 36q29 0 48 -9.5t35 -22t36 -22t50 -9.5q32 0 45.5 16.5t23.5 36.5h10q-13 -46 -45 -82t-85 -36z" />
    <glyph glyph-name="itilde" unicode="&#x129;" horiz-adv-x="300" 
d="M155 -10q-40 0 -61.5 29t-21.5 74q0 21 4 48.5t9 54t9 46.5l46 216q3 15 3 26q0 25 -15 33.5t-46 8.5h-13l2 10h179l-68 -321q-2 -11 -6 -32t-6.5 -43t-2.5 -36q0 -73 43 -73q22 0 39 7.5t35 19.5l6 -8q-22 -20 -60 -40t-75 -20zM273 606q-29 0 -48 9.5t-35 22t-35.5 22
t-49.5 9.5q-33 0 -47 -16.5t-24 -36.5h-10q13 46 45 82t86 36q29 0 48 -9.5t35 -22t36 -22t50 -9.5q32 0 45.5 16.5t23.5 36.5h10q-13 -46 -45 -82t-85 -36z" />
    <glyph glyph-name="Imacron" unicode="&#x12a;" horiz-adv-x="349" 
d="M-19 0l1 10h13q34 0 61 12.5t37 59.5l118 554q4 16 4 28q0 26 -20.5 33t-51.5 7h-13l2 10h291l-2 -10h-13q-34 0 -60.5 -12.5t-36.5 -59.5l-118 -554q-4 -16 -4 -28q0 -26 20.5 -33t51.5 -7h13l-2 -10h-291zM147 808l4 20h290l-4 -20h-290z" />
    <glyph glyph-name="imacron" unicode="&#x12b;" horiz-adv-x="300" 
d="M155 -10q-40 0 -61.5 29t-21.5 74q0 21 4 48.5t9 54t9 46.5l46 216q3 15 3 26q0 25 -15 33.5t-46 8.5h-13l2 10h179l-68 -321q-2 -11 -6 -32t-6.5 -43t-2.5 -36q0 -73 43 -73q22 0 39 7.5t35 19.5l6 -8q-22 -20 -60 -40t-75 -20zM65 630l4 20h290l-4 -20h-290z" />
    <glyph glyph-name="Ibreve" unicode="&#x12c;" horiz-adv-x="349" 
d="M-19 0l1 10h13q34 0 61 12.5t37 59.5l118 554q4 16 4 28q0 26 -20.5 33t-51.5 7h-13l2 10h291l-2 -10h-13q-34 0 -60.5 -12.5t-36.5 -59.5l-118 -554q-4 -16 -4 -28q0 -26 20.5 -33t51.5 -7h13l-2 -10h-291zM282 784q-60 0 -91 35.5t-35 101.5h10q5 -35 38 -51.5
t85 -16.5q49 0 86 16t58 52h10q-14 -56 -55 -96.5t-106 -40.5z" />
    <glyph glyph-name="ibreve" unicode="&#x12d;" horiz-adv-x="300" 
d="M155 -10q-40 0 -61.5 29t-21.5 74q0 21 4 48.5t9 54t9 46.5l46 216q3 15 3 26q0 25 -15 33.5t-46 8.5h-13l2 10h179l-68 -321q-2 -11 -6 -32t-6.5 -43t-2.5 -36q0 -73 43 -73q22 0 39 7.5t35 19.5l6 -8q-22 -20 -60 -40t-75 -20zM200 606q-60 0 -91 35.5t-35 101.5h10
q5 -35 38 -51.5t85 -16.5q49 0 86 16t58 52h10q-14 -56 -55 -96.5t-106 -40.5z" />
    <glyph glyph-name="Iogonek" unicode="&#x12e;" horiz-adv-x="349" 
d="M-19 0l1 10h13q34 0 61 12.5t37 59.5l118 554q4 16 4 28q0 26 -20.5 33t-51.5 7h-13l2 10h291l-2 -10h-13q-34 0 -60.5 -12.5t-36.5 -59.5l-118 -554q-4 -16 -4 -28q0 -26 20.5 -33t51.5 -7h13l-2 -10h-291zM140 -240q-55 0 -86 24t-31 68q0 56 47 92.5t122 55.5h20
q-27 -12 -50.5 -29.5t-37.5 -49t-14 -82.5q0 -29 14 -47t41 -18q8 0 23.5 2.5t33.5 9.5l-2 -10q-37 -16 -80 -16z" />
    <glyph glyph-name="iogonek" unicode="&#x12f;" horiz-adv-x="302" 
d="M220 636q-20 0 -33 11.5t-13 38.5q0 33 14 49t36 16q20 0 33 -10.5t13 -39.5q0 -38 -16 -51.5t-34 -13.5zM151 -10q-40 0 -61.5 29t-21.5 74q0 21 4 48.5t9 54t9 46.5l46 216q3 15 3 26q0 27 -16.5 34.5t-44.5 7.5h-13l2 10h179l-68 -321q-2 -11 -6 -32t-6.5 -43
t-2.5 -36q0 -73 43 -73q22 0 39 7.5t35 19.5l6 -8q-22 -20 -60 -40t-75 -20zM117 -240q-55 0 -86 24t-31 68q0 56 47 92.5t122 55.5h20q-27 -12 -50.5 -29.5t-37.5 -49t-14 -82.5q0 -29 14 -47t41 -18q8 0 23.5 2.5t33.5 9.5l-2 -10q-37 -16 -80 -16z" />
    <glyph glyph-name="Idotaccent" unicode="&#x130;" horiz-adv-x="349" 
d="M-19 0l1 10h13q34 0 61 12.5t37 59.5l118 554q4 16 4 28q0 26 -20.5 33t-51.5 7h-13l2 10h291l-2 -10h-13q-34 0 -60.5 -12.5t-36.5 -59.5l-118 -554q-4 -16 -4 -28q0 -26 20.5 -33t51.5 -7h13l-2 -10h-291zM298 801q-20 0 -33 11.5t-13 38.5q0 33 14 49t36 16
q20 0 33 -10.5t13 -39.5q0 -38 -16 -51.5t-34 -13.5z" />
    <glyph glyph-name="dotlessi" unicode="&#x131;" horiz-adv-x="300" 
d="M155 -10q-40 0 -61.5 29t-21.5 74q0 21 4 48.5t9 54t9 46.5l46 216q3 15 3 26q0 25 -15 33.5t-46 8.5h-13l2 10h179l-68 -321q-2 -11 -6 -32t-6.5 -43t-2.5 -36q0 -73 43 -73q22 0 39 7.5t35 19.5l6 -8q-22 -20 -60 -40t-75 -20z" />
    <glyph glyph-name="IJ" unicode="&#x132;" horiz-adv-x="706" 
d="M-19 0l1 10h13q34 0 61 12.5t37 59.5l118 554q4 16 4 28q0 26 -20.5 33t-51.5 7h-13l2 10h291l-2 -10h-13q-34 0 -60.5 -12.5t-36.5 -59.5l-118 -554q-4 -16 -4 -28q0 -26 20.5 -33t51.5 -7h13l-2 -10h-291zM276 -240q-27 0 -45.5 3t-36.5 8l3 10q13 -5 31.5 -7t33.5 -2
q37 0 66 19.5t50.5 67t37.5 132.5l137 645q4 16 4 28q0 26 -20 33t-52 7h-13l2 10h291l-2 -10h-13q-34 0 -60.5 -12.5t-36.5 -59.5l-137 -640q-25 -118 -81.5 -175t-158.5 -57z" />
    <glyph glyph-name="ij" unicode="&#x133;" horiz-adv-x="593" 
d="M220 636q-20 0 -33 11.5t-13 38.5q0 33 14 49t36 16q20 0 33 -10.5t13 -39.5q0 -38 -16 -51.5t-34 -13.5zM151 -10q-40 0 -61.5 29t-21.5 74q0 21 4 48.5t9 54t9 46.5l46 216q3 15 3 26q0 27 -16.5 34.5t-44.5 7.5h-13l2 10h179l-68 -321q-2 -11 -6 -32t-6.5 -43
t-2.5 -36q0 -73 43 -73q22 0 39 7.5t35 19.5l6 -8q-22 -20 -60 -40t-75 -20zM527 636q-20 0 -33 11t-13 39q0 33 13.5 49t36.5 16q19 0 32.5 -10.5t13.5 -39.5q0 -40 -16 -52.5t-34 -12.5zM220 -240q-15 0 -31.5 2.5t-26.5 5.5l2 10q8 -2 21.5 -4.5t24.5 -2.5q52 0 82 51
t52 170l99 466q3 15 3 26q0 27 -16.5 34.5t-44.5 7.5h-13l2 10h179l-115 -544q-19 -89 -49.5 -139.5t-72.5 -71.5t-96 -21z" />
    <glyph glyph-name="Jcircumflex" unicode="&#x134;" horiz-adv-x="357" 
d="M-73 -240q-27 0 -45.5 3t-36.5 8l3 10q13 -5 31.5 -7t33.5 -2q37 0 66 19.5t50.5 67t37.5 132.5l137 645q4 16 4 28q0 26 -20 33t-52 7h-13l2 10h291l-2 -10h-13q-34 0 -60.5 -12.5t-36.5 -59.5l-137 -640q-25 -118 -81.5 -175t-158.5 -57zM142 784l2 10q21 20 48 46
t52.5 53.5t42.5 50.5h75q6 -23 19.5 -50.5t29 -53.5t28.5 -46l-2 -10h-10q-31 18 -60.5 45.5t-51.5 54.5q-35 -27 -79 -54.5t-84 -45.5h-10z" />
    <glyph glyph-name="jcircumflex" unicode="&#x135;" horiz-adv-x="291" 
d="M-82 -240q-15 0 -31.5 2.5t-26.5 5.5l2 10q8 -2 21.5 -4.5t24.5 -2.5q52 0 82 51t52 170l99 466q3 15 3 26q0 27 -16.5 34.5t-44.5 7.5h-13l2 10h179l-115 -544q-19 -89 -49.5 -139.5t-72.5 -71.5t-96 -21zM51 606l2 10q21 20 48 46t52.5 53.5t42.5 50.5h75
q6 -23 19.5 -50.5t29 -53.5t28.5 -46l-2 -10h-10q-31 18 -60.5 45.5t-51.5 54.5q-35 -27 -79 -54.5t-84 -45.5h-10z" />
    <glyph glyph-name="uni0136" unicode="&#x136;" horiz-adv-x="702" 
d="M-19 0l2 10h13q34 0 61 12.5t37 59.5l117 554q4 16 4 28q0 26 -20.5 33t-51.5 7h-13l2 10h291l-2 -10h-13q-34 0 -60 -12.5t-37 -59.5l-74 -338l317 291q32 30 46 47.5t14 37.5q0 19 -18.5 26.5t-60.5 7.5l2 10h221l-2 -10q-32 0 -71 -23.5t-80 -61.5l-196 -184l129 -313
q22 -54 39 -83t49 -29h3l-2 -10h-14q-60 0 -94 8.5t-53 29t-33 55.5l-106 266l-93 -80l-40 -201q-4 -16 -4 -28q0 -26 20 -33t52 -7h12l-2 -10h-291zM191 -221l2 8q22 43 37.5 78t29.5 74h75l-2 -10q-22 -31 -58 -72t-74 -78h-10z" />
    <glyph glyph-name="uni0137" unicode="&#x137;" horiz-adv-x="576" 
d="M511 -7q-55 1 -87 9t-52.5 29.5t-40.5 63.5l-86 179l-67 -58l-45 -216h-93l137 650q9 40 9 53q0 30 -21 38.5t-49 8.5h-8l2 10h184l-39 -184q-5 -23 -12.5 -58.5t-16.5 -77t-18 -82t-16 -74t-11 -52.5l206 178q43 37 58 54t15 34q0 13 -17.5 20.5t-70.5 7.5l2 10h221
l-2 -10q-40 0 -82.5 -30t-94.5 -75l-103 -89l110 -213q19 -35 31.5 -61.5t27 -40.5t38.5 -14l-2 -10h-7zM120 -221l2 8q22 43 37.5 78t29.5 74h75l-2 -10q-22 -31 -58 -72t-74 -78h-10z" />
    <glyph glyph-name="kgreenlandic" unicode="&#x138;" horiz-adv-x="580" 
d="M515 -7q-55 1 -87 9t-52.5 29.5t-40.5 63.5l-86 179l-67 -58l-45 -216h-93l90 426q9 40 9 53q0 30 -20.5 38.5t-49.5 8.5h-8l2 10h184l-39 -184l-12 -56t-15 -64l206 178q43 37 58 54t15 34q0 13 -17.5 20.5t-70.5 7.5l2 10h221l-2 -10q-40 0 -82.5 -30t-94.5 -75
l-103 -89l108 -213q25 -48 47 -82t52 -34l-2 -10h-7z" />
    <glyph glyph-name="Lacute" unicode="&#x139;" horiz-adv-x="620" 
d="M-18 0l2 10h13q33 0 59.5 12.5t36.5 59.5l118 554q4 16 4 28q0 26 -20.5 33t-51.5 7h-13l2 10h291l-2 -10h-13q-33 0 -59.5 -11.5t-36.5 -56.5l-134 -626h219q39 0 66.5 18t45.5 48t28 64l22 75h10l-52 -215h-535zM229 774l2 10q26 32 53 74t47 76h93l-3 -10
q-16 -18 -48 -45t-67.5 -56t-64.5 -49h-12z" />
    <glyph glyph-name="lacute" unicode="&#x13a;" horiz-adv-x="306" 
d="M156 -10q-40 0 -61.5 28t-21.5 67q0 21 4 50t9 58t9 49l89 416q3 14 4.5 27t1.5 18q0 30 -21 38.5t-49 8.5h-12l2 10h189l-116 -545q-3 -11 -6.5 -32t-6.5 -43t-3 -36q0 -37 10 -55t36 -18q17 0 35 7.5t37 19.5l5 -8q-22 -20 -59 -40t-75 -20zM220 799l2 10q26 32 53 74
t47 76h93l-3 -10q-16 -18 -48 -45t-67.5 -56t-64.5 -49h-12z" />
    <glyph glyph-name="uni013B" unicode="&#x13b;" horiz-adv-x="620" 
d="M-18 0l2 10h13q33 0 59.5 12.5t36.5 59.5l118 554q4 16 4 28q0 26 -20.5 33t-51.5 7h-13l2 10h291l-2 -10h-13q-33 0 -59.5 -11.5t-36.5 -56.5l-134 -626h219q39 0 66.5 18t45.5 48t28 64l22 75h10l-52 -215h-535zM153 -221l2 8q22 43 37.5 78t29.5 74h75l-2 -10
q-22 -31 -58 -72t-74 -78h-10z" />
    <glyph glyph-name="uni013C" unicode="&#x13c;" horiz-adv-x="306" 
d="M156 -10q-40 0 -61.5 28t-21.5 67q0 21 4 50t9 58t9 49l89 416q3 14 4.5 27t1.5 18q0 30 -21 38.5t-49 8.5h-12l2 10h189l-116 -545q-3 -11 -6.5 -32t-6.5 -43t-3 -36q0 -37 10 -55t36 -18q17 0 35 7.5t37 19.5l5 -8q-22 -20 -59 -40t-75 -20zM-9 -221l2 8q22 43 37.5 78
t29.5 74h75l-2 -10q-22 -31 -58 -72t-74 -78h-10z" />
    <glyph glyph-name="Lcaron" unicode="&#x13d;" horiz-adv-x="628" 
d="M-18 0l2 10h13q33 0 59.5 12.5t36.5 59.5l118 554q4 16 4 28q0 26 -20.5 33t-51.5 7h-13l2 10h291l-2 -10h-13q-33 0 -59.5 -11.5t-36.5 -56.5l-134 -626h219q39 0 66.5 18t45.5 48t28 64l22 75h10l-52 -215h-535zM539 554l3 14q21 38 36.5 72.5t29.5 73.5h75l-2 -10
q-23 -32 -59 -72.5t-73 -77.5h-10z" />
    <glyph glyph-name="lcaron" unicode="&#x13e;" horiz-adv-x="306" 
d="M156 -10q-40 0 -61.5 28t-21.5 67q0 21 4 50t9 58t9 49l89 416q3 14 4.5 27t1.5 18q0 30 -21 38.5t-49 8.5h-12l2 10h189l-116 -545q-3 -11 -6.5 -32t-6.5 -43t-3 -36q0 -37 10 -55t36 -18q17 0 35 7.5t37 19.5l5 -8q-22 -20 -59 -40t-75 -20zM331 600l3 14
q21 38 36.5 72.5t29.5 73.5h75l-2 -10q-23 -32 -59 -72.5t-73 -77.5h-10z" />
    <glyph glyph-name="Ldot" unicode="&#x13f;" horiz-adv-x="620" 
d="M-18 0l2 10h13q33 0 59.5 12.5t36.5 59.5l118 554q4 16 4 28q0 26 -20.5 33t-51.5 7h-13l2 10h291l-2 -10h-13q-33 0 -59.5 -11.5t-36.5 -56.5l-134 -626h219q39 0 66.5 18t45.5 48t28 64l22 75h10l-52 -215h-535zM518 321q-20 0 -33 11.5t-13 38.5q0 33 14 49t36 16
q20 0 33 -10.5t13 -39.5q0 -38 -16 -51.5t-34 -13.5z" />
    <glyph glyph-name="ldot" unicode="&#x140;" horiz-adv-x="416" 
d="M156 -10q-40 0 -61.5 28t-21.5 67q0 21 4 50t9 58t9 49l89 416q3 14 4.5 27t1.5 18q0 30 -21 38.5t-49 8.5h-12l2 10h189l-116 -545q-3 -11 -6.5 -32t-6.5 -43t-3 -36q0 -37 10 -55t36 -18q17 0 35 7.5t37 19.5l5 -8q-22 -20 -59 -40t-75 -20zM374 329q-20 0 -33 11.5
t-13 38.5q0 33 14 49t36 16q20 0 33 -10.5t13 -39.5q0 -38 -16 -51.5t-34 -13.5z" />
    <glyph glyph-name="Lslash" unicode="&#x141;" horiz-adv-x="623" 
d="M-18 0l2 10h13q33 0 59.5 12.5t36.5 59.5l48 227l-110 -57l2 10l110 57l68 317q4 16 4 28q0 26 -20.5 33t-51.5 7h-13l2 10h291l-2 -10h-13q-33 0 -59.5 -11.5t-36.5 -56.5l-55 -258l171 88l-2 -10l-171 -89l-77 -357h219q39 0 66.5 18t45.5 48t28 64l22 75h10l-52 -215
h-535z" />
    <glyph glyph-name="lslash" unicode="&#x142;" horiz-adv-x="324" 
d="M156 -10q-40 0 -61.5 28t-21.5 67q0 21 4 50t9 58t9 49l13 60l-95 -49l2 10l95 49l74 346q3 14 4.5 27t1.5 18q0 30 -21 38.5t-49 8.5h-12l2 10h189l-84 -394l106 54l-2 -10l-106 -54l-30 -141q-3 -11 -6.5 -32t-6.5 -43t-3 -36q0 -37 10 -55t36 -18q17 0 35 7.5t37 19.5
l5 -8q-22 -20 -59 -40t-75 -20z" />
    <glyph glyph-name="Nacute" unicode="&#x143;" horiz-adv-x="744" 
d="M-18 0l2 10h13q28 0 51.5 4.5t40.5 20t24 47.5l118 554q4 16 4 28q0 26 -25.5 33t-66.5 7h-13l2 10h195l255 -576l106 498q2 7 3 15.5t1 12.5q0 26 -29 33t-74 7h-13l2 10h251l-2 -10h-13q-27 0 -51 -4t-41.5 -19.5t-24.5 -48.5l-134 -632h-30l-288 652l-123 -574
q-4 -16 -4 -28q0 -26 29 -33t74 -7h13l-2 -10h-250zM430 774l2 10q26 32 53 74t47 76h93l-3 -10q-16 -18 -48 -45t-67.5 -56t-64.5 -49h-12z" />
    <glyph glyph-name="nacute" unicode="&#x144;" horiz-adv-x="601" 
d="M462 -10q-44 0 -67.5 28t-23.5 72q0 46 19 135l17 78q5 20 13 57.5t8 68.5q0 17 -4 36t-17.5 33t-40.5 14t-52.5 -18t-46.5 -44t-34.5 -50t-15.5 -36l-78 -364h-93l91 434q3 14 4.5 27t1.5 18q0 30 -20.5 38.5t-49.5 8.5h-8l2 10h185l-27 -126h2q42 66 87 100.5t103 34.5
q59 0 83 -33.5t24 -77.5q0 -25 -6.5 -54.5t-11.5 -55.5l-26 -118q-6 -28 -9.5 -57t-3.5 -54q0 -66 47 -66q32 0 64 26l6 -8q-24 -20 -53.5 -38.5t-68.5 -18.5zM310 596l2 10q26 32 53 74t47 76h93l-3 -10q-16 -18 -48 -45t-67.5 -56t-64.5 -49h-12z" />
    <glyph glyph-name="uni0145" unicode="&#x145;" horiz-adv-x="744" 
d="M-18 0l2 10h13q28 0 51.5 4.5t40.5 20t24 47.5l118 554q4 16 4 28q0 26 -25.5 33t-66.5 7h-13l2 10h195l255 -576l106 498q2 7 3 15.5t1 12.5q0 26 -29 33t-74 7h-13l2 10h251l-2 -10h-13q-27 0 -51 -4t-41.5 -19.5t-24.5 -48.5l-134 -632h-30l-288 652l-123 -574
q-4 -16 -4 -28q0 -26 29 -33t74 -7h13l-2 -10h-250zM223 -221l2 8q22 43 37.5 78t29.5 74h75l-2 -10q-22 -31 -58 -72t-74 -78h-10z" />
    <glyph glyph-name="uni0146" unicode="&#x146;" horiz-adv-x="601" 
d="M462 -10q-44 0 -67.5 28t-23.5 72q0 46 19 135l17 78q5 20 13 57.5t8 68.5q0 17 -4 36t-17.5 33t-40.5 14t-52.5 -18t-46.5 -44t-34.5 -50t-15.5 -36l-78 -364h-93l91 434q3 14 4.5 27t1.5 18q0 30 -20.5 38.5t-49.5 8.5h-8l2 10h185l-27 -126h2q42 66 87 100.5t103 34.5
q59 0 83 -33.5t24 -77.5q0 -25 -6.5 -54.5t-11.5 -55.5l-26 -118q-6 -28 -9.5 -57t-3.5 -54q0 -66 47 -66q32 0 64 26l6 -8q-24 -20 -53.5 -38.5t-68.5 -18.5zM141 -221l2 8q22 43 37.5 78t29.5 74h75l-2 -10q-22 -31 -58 -72t-74 -78h-10z" />
    <glyph glyph-name="Ncaron" unicode="&#x147;" horiz-adv-x="744" 
d="M-18 0l2 10h13q28 0 51.5 4.5t40.5 20t24 47.5l118 554q4 16 4 28q0 26 -25.5 33t-66.5 7h-13l2 10h195l255 -576l106 498q2 7 3 15.5t1 12.5q0 26 -29 33t-74 7h-13l2 10h251l-2 -10h-13q-27 0 -51 -4t-41.5 -19.5t-24.5 -48.5l-134 -632h-30l-288 652l-123 -574
q-4 -16 -4 -28q0 -26 29 -33t74 -7h13l-2 -10h-250zM459 784q-13 37 -35 79t-42 71l2 10h10q29 -20 59.5 -47t52.5 -54q34 27 78.5 54t84.5 47h10l-2 -10q-31 -29 -72 -70.5t-71 -79.5h-75z" />
    <glyph glyph-name="ncaron" unicode="&#x148;" horiz-adv-x="601" 
d="M462 -10q-44 0 -67.5 28t-23.5 72q0 46 19 135l17 78q5 20 13 57.5t8 68.5q0 17 -4 36t-17.5 33t-40.5 14t-52.5 -18t-46.5 -44t-34.5 -50t-15.5 -36l-78 -364h-93l91 434q3 14 4.5 27t1.5 18q0 30 -20.5 38.5t-49.5 8.5h-8l2 10h185l-27 -126h2q42 66 87 100.5t103 34.5
q59 0 83 -33.5t24 -77.5q0 -25 -6.5 -54.5t-11.5 -55.5l-26 -118q-6 -28 -9.5 -57t-3.5 -54q0 -66 47 -66q32 0 64 26l6 -8q-24 -20 -53.5 -38.5t-68.5 -18.5zM339 606q-13 37 -35 79t-42 71l2 10h10q29 -20 59.5 -47t52.5 -54q34 27 78.5 54t84.5 47h10l-2 -10
q-31 -29 -72 -70.5t-71 -79.5h-75z" />
    <glyph glyph-name="napostrophe" unicode="&#x149;" horiz-adv-x="725" 
d="M-25 440l1 10q59 15 88.5 42t29.5 60q0 17 -12 27.5t-27 19.5t-27 22t-12 34q0 29 18 44t44 15q32 0 55 -21.5t23 -60.5q0 -68 -44 -120.5t-137 -71.5zM586 -10q-44 0 -67.5 28t-23.5 72q0 46 19 135l17 78q5 20 13 57.5t8 68.5q0 17 -4 36t-17.5 33t-40.5 14t-52.5 -18
t-46.5 -44t-34.5 -50t-15.5 -36l-78 -364h-93l91 434q3 14 4.5 27t1.5 18q0 30 -20.5 38.5t-49.5 8.5h-8l2 10h185l-27 -126h2q42 66 87 100.5t103 34.5q59 0 83 -33.5t24 -77.5q0 -25 -6.5 -54.5t-11.5 -55.5l-26 -118q-6 -28 -9.5 -57t-3.5 -54q0 -66 47 -66q32 0 64 26
l6 -8q-24 -20 -53.5 -38.5t-68.5 -18.5z" />
    <glyph glyph-name="Eng" unicode="&#x14a;" horiz-adv-x="763" 
d="M353 -240q-40 0 -71 11l3 10q25 -9 61 -9q73 0 127 59.5t78 168.5l-308 652l-123 -574q-4 -16 -4 -28q0 -26 29 -33t74 -7h13l-2 -10h-250l2 10h13q28 0 51.5 4.5t40.5 20t24 47.5l118 554q4 16 4 28q0 26 -25.5 33t-66.5 7h-13l2 10h195l261 -549l100 471q2 7 3 15.5
t1 12.5q0 26 -29 33t-74 7h-13l2 10h251l-2 -10h-13q-27 0 -51 -4t-41.5 -19.5t-24.5 -48.5l-136 -640q-27 -128 -76.5 -180t-129.5 -52z" />
    <glyph glyph-name="eng" unicode="&#x14b;" horiz-adv-x="562" 
d="M215 -240q-15 0 -31.5 2.5t-26.5 5.5l2 10q8 -2 21.5 -4.5t24.5 -2.5q52 0 81.5 51t52.5 170l66 311q5 20 13 57.5t8 68.5q0 17 -4 36t-17.5 33t-40.5 14t-52.5 -18t-46.5 -44t-34.5 -50t-15.5 -36l-78 -364h-93l91 434q3 14 4.5 27t1.5 18q0 30 -20.5 38.5t-49.5 8.5h-8
l2 10h185l-27 -126h2q42 66 87 100.5t103 34.5q59 0 83 -33.5t24 -77.5q0 -25 -6.5 -54.5t-11.5 -55.5l-71 -332q-19 -89 -49.5 -139.5t-72.5 -71.5t-96 -21z" />
    <glyph glyph-name="Omacron" unicode="&#x14c;" horiz-adv-x="742" 
d="M323 -11q-74 0 -133.5 31.5t-94 93.5t-34.5 152q0 58 16 121t48.5 123t80.5 108.5t112 77.5t143 29q69 0 128 -29t95 -89.5t36 -156.5q0 -55 -15.5 -118t-47 -123.5t-79 -110.5t-111.5 -79.5t-144 -29.5zM329 -1q58 0 103.5 32t79 84.5t55.5 116t32.5 127.5t10.5 118
q0 93 -20.5 144.5t-56 72.5t-80.5 21q-58 0 -104 -32t-79.5 -84.5t-55.5 -116t-33 -127.5t-11 -117q0 -94 21 -146t57 -72.5t81 -20.5zM351 808l4 20h290l-4 -20h-290z" />
    <glyph glyph-name="omacron" unicode="&#x14d;" horiz-adv-x="564" 
d="M230 -10q-85 0 -138.5 51.5t-53.5 155.5q0 55 18 116t55 114t93 86t132 33q52 0 95.5 -21t69 -67t25.5 -119q0 -43 -11 -90.5t-34 -93.5t-58 -83t-83 -59.5t-110 -22.5zM232 0q41 0 72 23.5t53.5 62.5t37 86t21 95t6.5 89q0 97 -23 138.5t-69 41.5q-40 0 -71 -23.5
t-53.5 -62.5t-36.5 -86.5t-20.5 -95.5t-6.5 -89q0 -98 24.5 -138.5t65.5 -40.5zM215 630l4 20h290l-4 -20h-290z" />
    <glyph glyph-name="Obreve" unicode="&#x14e;" horiz-adv-x="742" 
d="M323 -11q-74 0 -133.5 31.5t-94 93.5t-34.5 152q0 58 16 121t48.5 123t80.5 108.5t112 77.5t143 29q69 0 128 -29t95 -89.5t36 -156.5q0 -55 -15.5 -118t-47 -123.5t-79 -110.5t-111.5 -79.5t-144 -29.5zM329 -1q58 0 103.5 32t79 84.5t55.5 116t32.5 127.5t10.5 118
q0 93 -20.5 144.5t-56 72.5t-80.5 21q-58 0 -104 -32t-79.5 -84.5t-55.5 -116t-33 -127.5t-11 -117q0 -94 21 -146t57 -72.5t81 -20.5zM486 784q-60 0 -91 35.5t-35 101.5h10q5 -35 38 -51.5t85 -16.5q49 0 86 16t58 52h10q-14 -56 -55 -96.5t-106 -40.5z" />
    <glyph glyph-name="obreve" unicode="&#x14f;" horiz-adv-x="564" 
d="M230 -10q-85 0 -138.5 51.5t-53.5 155.5q0 55 18 116t55 114t93 86t132 33q52 0 95.5 -21t69 -67t25.5 -119q0 -43 -11 -90.5t-34 -93.5t-58 -83t-83 -59.5t-110 -22.5zM232 0q41 0 72 23.5t53.5 62.5t37 86t21 95t6.5 89q0 97 -23 138.5t-69 41.5q-40 0 -71 -23.5
t-53.5 -62.5t-36.5 -86.5t-20.5 -95.5t-6.5 -89q0 -98 24.5 -138.5t65.5 -40.5zM350 606q-60 0 -91 35.5t-35 101.5h10q5 -35 38 -51.5t85 -16.5q49 0 86 16t58 52h10q-14 -56 -55 -96.5t-106 -40.5z" />
    <glyph glyph-name="Ohungarumlaut" unicode="&#x150;" horiz-adv-x="742" 
d="M323 -11q-74 0 -133.5 31.5t-94 93.5t-34.5 152q0 58 16 121t48.5 123t80.5 108.5t112 77.5t143 29q69 0 128 -29t95 -89.5t36 -156.5q0 -55 -15.5 -118t-47 -123.5t-79 -110.5t-111.5 -79.5t-144 -29.5zM329 -1q58 0 103.5 32t79 84.5t55.5 116t32.5 127.5t10.5 118
q0 93 -20.5 144.5t-56 72.5t-80.5 21q-58 0 -104 -32t-79.5 -84.5t-55.5 -116t-33 -127.5t-11 -117q0 -94 21 -146t57 -72.5t81 -20.5zM525 774l2 10q26 32 54.5 74t43.5 76h93l-3 -10q-15 -18 -47 -46t-68.5 -56t-64.5 -48h-10zM345 774l2 10q26 32 54.5 74t43.5 76h93
l-3 -10q-15 -18 -47 -46t-68.5 -56t-64.5 -48h-10z" />
    <glyph glyph-name="ohungarumlaut" unicode="&#x151;" horiz-adv-x="564" 
d="M230 -10q-85 0 -138.5 51.5t-53.5 155.5q0 55 18 116t55 114t93 86t132 33q52 0 95.5 -21t69 -67t25.5 -119q0 -43 -11 -90.5t-34 -93.5t-58 -83t-83 -59.5t-110 -22.5zM232 0q41 0 72 23.5t53.5 62.5t37 86t21 95t6.5 89q0 97 -23 138.5t-69 41.5q-40 0 -71 -23.5
t-53.5 -62.5t-36.5 -86.5t-20.5 -95.5t-6.5 -89q0 -98 24.5 -138.5t65.5 -40.5zM389 596l2 10q26 32 54.5 74t43.5 76h93l-3 -10q-15 -18 -47 -46t-68.5 -56t-64.5 -48h-10zM209 596l2 10q26 32 54.5 74t43.5 76h93l-3 -10q-15 -18 -47 -46t-68.5 -56t-64.5 -48h-10z" />
    <glyph glyph-name="OE" unicode="&#x152;" horiz-adv-x="967" 
d="M323 -11q-74 0 -133.5 31.5t-94 93.5t-34.5 152q0 58 16 121t48.5 123t80.5 108.5t112 77.5t143 29q26 0 54 -3.5t52 -7.5h415l-32 -175h-10q0 5 1.5 16.5t3 24t1.5 17.5q0 29 -4.5 53.5t-23.5 39t-63 14.5h-183l-69 -325h241l-2 -10h-241l-76 -359h205q49 0 77.5 14.5
t45.5 42t30 65.5l14 43h10l-44 -175h-430q-21 -5 -54 -8t-56 -3zM323 -1q29 0 57.5 4.5t45.5 11.5l144 682q-16 5 -42 11.5t-68 6.5q-60 0 -107 -32t-81.5 -84.5t-57 -116t-33.5 -127.5t-11 -117q0 -84 20.5 -137t55 -77.5t77.5 -24.5z" />
    <glyph glyph-name="oe" unicode="&#x153;" horiz-adv-x="850" 
d="M230 -10q-85 0 -138.5 51.5t-53.5 155.5q0 55 18 116t55 114t93 86t132 33q55 0 99.5 -23t68.5 -73q37 43 87.5 69.5t113.5 26.5q65 0 100 -30.5t35 -84.5q0 -48 -37.5 -89.5t-102.5 -67.5t-147 -26h-35q-5 -30 -5 -59q0 -90 25.5 -139.5t74.5 -49.5q57 0 91 35t52 90
q21 -6 21 -30q0 -19 -18.5 -44t-56.5 -43t-98 -18q-54 0 -99 24t-70 72q-36 -42 -87 -69t-118 -27zM232 0q41 0 72 23.5t53.5 62.5t37 86t21 95t6.5 89q0 97 -23 138.5t-69 41.5q-40 0 -71 -23.5t-53.5 -62.5t-36.5 -86.5t-20.5 -95.5t-6.5 -89q0 -98 24.5 -138.5
t65.5 -40.5zM520 258h27q89 0 139.5 49t50.5 131q0 97 -54 97q-30 0 -56 -24.5t-47 -65.5t-36 -90t-24 -97z" />
    <glyph glyph-name="Racute" unicode="&#x154;" horiz-adv-x="659" 
d="M-18 0l2 10h13q32 0 58.5 11t36.5 56l119 559l2.5 15t1.5 13q0 26 -20.5 33t-51.5 7h-13l2 10h262q229 0 229 -170q0 -49 -17.5 -83t-45.5 -57t-61 -37t-64 -23l70 -223q17 -55 32.5 -83t48.5 -28h8l-2 -10h-13q-59 0 -94.5 9.5t-56 35t-32.5 72.5l-58 216h-90l-55 -255
q-4 -16 -4 -28q0 -26 20.5 -33t51.5 -7h33l-2 -10h-310zM250 343h77q87 0 138.5 45.5t51.5 155.5q0 88 -30.5 124t-92.5 36h-68zM370 774l2 10q26 32 53 74t47 76h93l-3 -10q-16 -18 -48 -45t-67.5 -56t-64.5 -49h-12z" />
    <glyph glyph-name="racute" unicode="&#x155;" horiz-adv-x="478" 
d="M56 0l91 434q3 14 4.5 27t1.5 18q0 30 -25.5 38.5t-54.5 8.5h-8l2 10h183l-23 -144h2q19 41 42 76t54 56.5t78 21.5q42 0 62 -19.5t20 -49.5q0 -35 -20.5 -55.5t-64.5 -20.5q1 8 1 15.5v14.5q0 37 -10.5 59t-39.5 22q-21 0 -42 -18.5t-39.5 -46.5t-31 -57.5t-17.5 -51.5
l-72 -338h-93zM254 596l2 10q26 32 53 74t47 76h93l-3 -10q-16 -18 -48 -45t-67.5 -56t-64.5 -49h-12z" />
    <glyph glyph-name="uni0156" unicode="&#x156;" horiz-adv-x="659" 
d="M-18 0l2 10h13q32 0 58.5 11t36.5 56l119 559l2.5 15t1.5 13q0 26 -20.5 33t-51.5 7h-13l2 10h262q229 0 229 -170q0 -49 -17.5 -83t-45.5 -57t-61 -37t-64 -23l70 -223q17 -55 32.5 -83t48.5 -28h8l-2 -10h-13q-59 0 -94.5 9.5t-56 35t-32.5 72.5l-58 216h-90l-55 -255
q-4 -16 -4 -28q0 -26 20.5 -33t51.5 -7h33l-2 -10h-310zM250 343h77q87 0 138.5 45.5t51.5 155.5q0 88 -30.5 124t-92.5 36h-68zM173 -221l2 8q22 43 37.5 78t29.5 74h75l-2 -10q-22 -31 -58 -72t-74 -78h-10z" />
    <glyph glyph-name="uni0157" unicode="&#x157;" horiz-adv-x="478" 
d="M56 0l91 434q3 14 4.5 27t1.5 18q0 30 -25.5 38.5t-54.5 8.5h-8l2 10h183l-23 -144h2q19 41 42 76t54 56.5t78 21.5q42 0 62 -19.5t20 -49.5q0 -35 -20.5 -55.5t-64.5 -20.5q1 8 1 15.5v14.5q0 37 -10.5 59t-39.5 22q-21 0 -42 -18.5t-39.5 -46.5t-31 -57.5t-17.5 -51.5
l-72 -338h-93zM-2 -221l2 8q22 43 37.5 78t29.5 74h75l-2 -10q-22 -31 -58 -72t-74 -78h-10z" />
    <glyph glyph-name="Rcaron" unicode="&#x158;" horiz-adv-x="659" 
d="M-18 0l2 10h13q32 0 58.5 11t36.5 56l119 559l2.5 15t1.5 13q0 26 -20.5 33t-51.5 7h-13l2 10h262q229 0 229 -170q0 -49 -17.5 -83t-45.5 -57t-61 -37t-64 -23l70 -223q17 -55 32.5 -83t48.5 -28h8l-2 -10h-13q-59 0 -94.5 9.5t-56 35t-32.5 72.5l-58 216h-90l-55 -255
q-4 -16 -4 -28q0 -26 20.5 -33t51.5 -7h33l-2 -10h-310zM250 343h77q87 0 138.5 45.5t51.5 155.5q0 88 -30.5 124t-92.5 36h-68zM399 784q-13 37 -35 79t-42 71l2 10h10q29 -20 59.5 -47t52.5 -54q34 27 78.5 54t84.5 47h10l-2 -10q-31 -29 -72 -70.5t-71 -79.5h-75z" />
    <glyph glyph-name="rcaron" unicode="&#x159;" horiz-adv-x="478" 
d="M56 0l91 434q3 14 4.5 27t1.5 18q0 30 -25.5 38.5t-54.5 8.5h-8l2 10h183l-23 -144h2q19 41 42 76t54 56.5t78 21.5q42 0 62 -19.5t20 -49.5q0 -35 -20.5 -55.5t-64.5 -20.5q1 8 1 15.5v14.5q0 37 -10.5 59t-39.5 22q-21 0 -42 -18.5t-39.5 -46.5t-31 -57.5t-17.5 -51.5
l-72 -338h-93zM283 606q-13 37 -35 79t-42 71l2 10h10q29 -20 59.5 -47t52.5 -54q34 27 78.5 54t84.5 47h10l-2 -10q-31 -29 -72 -70.5t-71 -79.5h-75z" />
    <glyph glyph-name="Sacute" unicode="&#x15a;" horiz-adv-x="544" 
d="M229 -10q-73 0 -122.5 19.5t-74.5 52t-25 71.5q0 38 24 57t53 19q0 -57 13.5 -104.5t45 -76t86.5 -28.5q81 0 120 45.5t39 122.5q0 30 -9 54t-36 48t-81 55q-63 36 -102.5 83t-39.5 123q0 55 29 98.5t83.5 69t130.5 25.5q87 0 138.5 -30t51.5 -78q0 -31 -18.5 -50
t-59.5 -19q0 27 -2.5 56t-12.5 54.5t-33 41t-64 15.5q-60 0 -102 -40.5t-42 -125.5q0 -37 13.5 -62t41.5 -46t69 -45q75 -43 111.5 -89t36.5 -106q0 -100 -70 -155t-192 -55zM318 774l2 10q26 32 53 74t47 76h93l-3 -10q-16 -18 -48 -45t-67.5 -56t-64.5 -49h-12z" />
    <glyph glyph-name="sacute" unicode="&#x15b;" horiz-adv-x="464" 
d="M190 -10q-75 0 -120 30t-45 83q0 27 12.5 41t28.5 19.5t28 5.5q-1 -8 -1.5 -16.5t-0.5 -15.5q0 -57 24 -97t78 -40q53 0 84.5 31t31.5 85q0 46 -23 73t-78 52q-55 26 -88 60.5t-33 94.5q0 64 52 106.5t141 42.5q55 0 89 -14t50.5 -36t16.5 -45q0 -32 -21.5 -47t-53.5 -15
q1 8 1.5 15t0.5 15q0 49 -20.5 83t-69.5 34q-56 0 -77.5 -32.5t-21.5 -72.5q0 -46 24.5 -71t77.5 -49q55 -25 87.5 -61t32.5 -94q0 -73 -55.5 -119t-151.5 -46zM240 596l2 10q26 32 53 74t47 76h93l-3 -10q-16 -18 -48 -45t-67.5 -56t-64.5 -49h-12z" />
    <glyph glyph-name="Scircumflex" unicode="&#x15c;" horiz-adv-x="544" 
d="M229 -10q-73 0 -122.5 19.5t-74.5 52t-25 71.5q0 38 24 57t53 19q0 -57 13.5 -104.5t45 -76t86.5 -28.5q81 0 120 45.5t39 122.5q0 30 -9 54t-36 48t-81 55q-63 36 -102.5 83t-39.5 123q0 55 29 98.5t83.5 69t130.5 25.5q87 0 138.5 -30t51.5 -78q0 -31 -18.5 -50
t-59.5 -19q0 27 -2.5 56t-12.5 54.5t-33 41t-64 15.5q-60 0 -102 -40.5t-42 -125.5q0 -37 13.5 -62t41.5 -46t69 -45q75 -43 111.5 -89t36.5 -106q0 -100 -70 -155t-192 -55zM235 784l2 10q21 20 48 46t52.5 53.5t42.5 50.5h75q6 -23 19.5 -50.5t29 -53.5t28.5 -46l-2 -10
h-10q-31 18 -60.5 45.5t-51.5 54.5q-35 -27 -79 -54.5t-84 -45.5h-10z" />
    <glyph glyph-name="scircumflex" unicode="&#x15d;" horiz-adv-x="464" 
d="M190 -10q-75 0 -120 30t-45 83q0 27 12.5 41t28.5 19.5t28 5.5q-1 -8 -1.5 -16.5t-0.5 -15.5q0 -57 24 -97t78 -40q53 0 84.5 31t31.5 85q0 46 -23 73t-78 52q-55 26 -88 60.5t-33 94.5q0 64 52 106.5t141 42.5q55 0 89 -14t50.5 -36t16.5 -45q0 -32 -21.5 -47t-53.5 -15
q1 8 1.5 15t0.5 15q0 49 -20.5 83t-69.5 34q-56 0 -77.5 -32.5t-21.5 -72.5q0 -46 24.5 -71t77.5 -49q55 -25 87.5 -61t32.5 -94q0 -73 -55.5 -119t-151.5 -46zM157 606l2 10q21 20 48 46t52.5 53.5t42.5 50.5h75q6 -23 19.5 -50.5t29 -53.5t28.5 -46l-2 -10h-10
q-31 18 -60.5 45.5t-51.5 54.5q-35 -27 -79 -54.5t-84 -45.5h-10z" />
    <glyph glyph-name="Scedilla" unicode="&#x15e;" horiz-adv-x="544" 
d="M229 -10q-73 0 -122.5 19.5t-74.5 52t-25 71.5q0 38 24 57t53 19q0 -57 13.5 -104.5t45 -76t86.5 -28.5q81 0 120 45.5t39 122.5q0 30 -9 54t-36 48t-81 55q-63 36 -102.5 83t-39.5 123q0 55 29 98.5t83.5 69t130.5 25.5q87 0 138.5 -30t51.5 -78q0 -31 -18.5 -50
t-59.5 -19q0 27 -2.5 56t-12.5 54.5t-33 41t-64 15.5q-60 0 -102 -40.5t-42 -125.5q0 -37 13.5 -62t41.5 -46t69 -45q75 -43 111.5 -89t36.5 -106q0 -100 -70 -155t-192 -55zM158 -240q-26 0 -43.5 3t-31.5 8l3 11q26 -8 50 -8q33 0 54.5 16t32 41t10.5 53q0 46 -37 57
l27 59h10l-20 -45q47 -9 74 -29t27 -53q0 -56 -45 -84.5t-111 -28.5z" />
    <glyph glyph-name="scedilla" unicode="&#x15f;" horiz-adv-x="464" 
d="M190 -10q-75 0 -120 30t-45 83q0 27 12.5 41t28.5 19.5t28 5.5q-1 -8 -1.5 -16.5t-0.5 -15.5q0 -57 24 -97t78 -40q53 0 84.5 31t31.5 85q0 46 -23 73t-78 52q-55 26 -88 60.5t-33 94.5q0 64 52 106.5t141 42.5q55 0 89 -14t50.5 -36t16.5 -45q0 -32 -21.5 -47t-53.5 -15
q1 8 1.5 15t0.5 15q0 49 -20.5 83t-69.5 34q-56 0 -77.5 -32.5t-21.5 -72.5q0 -46 24.5 -71t77.5 -49q55 -25 87.5 -61t32.5 -94q0 -73 -55.5 -119t-151.5 -46zM123 -240q-26 0 -43.5 3t-31.5 8l3 11q26 -8 50 -8q33 0 54.5 16t32 41t10.5 53q0 46 -37 57l27 59h10l-20 -45
q47 -9 74 -29t27 -53q0 -56 -45 -84.5t-111 -28.5z" />
    <glyph glyph-name="Scaron" unicode="&#x160;" horiz-adv-x="544" 
d="M229 -10q-73 0 -122.5 19.5t-74.5 52t-25 71.5q0 38 24 57t53 19q0 -57 13.5 -104.5t45 -76t86.5 -28.5q81 0 120 45.5t39 122.5q0 30 -9 54t-36 48t-81 55q-63 36 -102.5 83t-39.5 123q0 55 29 98.5t83.5 69t130.5 25.5q87 0 138.5 -30t51.5 -78q0 -31 -18.5 -50
t-59.5 -19q0 27 -2.5 56t-12.5 54.5t-33 41t-64 15.5q-60 0 -102 -40.5t-42 -125.5q0 -37 13.5 -62t41.5 -46t69 -45q75 -43 111.5 -89t36.5 -106q0 -100 -70 -155t-192 -55zM347 784q-13 37 -35 79t-42 71l2 10h10q29 -20 59.5 -47t52.5 -54q34 27 78.5 54t84.5 47h10
l-2 -10q-31 -29 -72 -70.5t-71 -79.5h-75z" />
    <glyph glyph-name="scaron" unicode="&#x161;" horiz-adv-x="464" 
d="M190 -10q-75 0 -120 30t-45 83q0 27 12.5 41t28.5 19.5t28 5.5q-1 -8 -1.5 -16.5t-0.5 -15.5q0 -57 24 -97t78 -40q53 0 84.5 31t31.5 85q0 46 -23 73t-78 52q-55 26 -88 60.5t-33 94.5q0 64 52 106.5t141 42.5q55 0 89 -14t50.5 -36t16.5 -45q0 -32 -21.5 -47t-53.5 -15
q1 8 1.5 15t0.5 15q0 49 -20.5 83t-69.5 34q-56 0 -77.5 -32.5t-21.5 -72.5q0 -46 24.5 -71t77.5 -49q55 -25 87.5 -61t32.5 -94q0 -73 -55.5 -119t-151.5 -46zM269 606q-13 37 -35 79t-42 71l2 10h10q29 -20 59.5 -47t52.5 -54q34 27 78.5 54t84.5 47h10l-2 -10
q-31 -29 -72 -70.5t-71 -79.5h-75z" />
    <glyph glyph-name="uni0162" unicode="&#x162;" horiz-adv-x="613" 
d="M98 0l2 10h13q87 0 103 72l132 622h-82q-50 0 -82.5 -12t-53 -41t-33.5 -79l-9 -33h-10l43 175h561l-31 -175h-10q5 31 7 48.5t2 29.5q0 49 -27 68t-90 19h-84l-132 -622q-3 -12 -3 -21q0 -51 74 -51h13l-2 -10h-301zM174 -240q-26 0 -43.5 3t-31.5 8l3 11q26 -8 50 -8
q33 0 54.5 16t32 41t10.5 53q0 46 -37 57l27 59h10l-20 -45q47 -9 74 -29t27 -53q0 -56 -45 -84.5t-111 -28.5z" />
    <glyph glyph-name="uni0163" unicode="&#x163;" horiz-adv-x="367" 
d="M183 -10q-109 0 -109 117q0 18 3 41.5t7 42.5l71 335h-76l2 10q55 0 89 12t56 39t41 72h10l-26 -123h121l-2 -10h-121l-71 -332q-5 -25 -8.5 -47.5t-3.5 -38.5q0 -45 18 -64.5t51 -19.5q19 0 40.5 6.5t37.5 16.5l5 -9q-30 -21 -64 -34.5t-71 -13.5zM83 -240
q-26 0 -43.5 3t-31.5 8l3 11q26 -8 50 -8q33 0 54.5 16t32 41t10.5 53q0 46 -37 57l27 59h10l-20 -45q47 -9 74 -29t27 -53q0 -56 -45 -84.5t-111 -28.5z" />
    <glyph glyph-name="Tcaron" unicode="&#x164;" horiz-adv-x="613" 
d="M98 0l2 10h13q87 0 103 72l132 622h-82q-50 0 -82.5 -12t-53 -41t-33.5 -79l-9 -33h-10l43 175h561l-31 -175h-10q5 31 7 48.5t2 29.5q0 49 -27 68t-90 19h-84l-132 -622q-3 -12 -3 -21q0 -51 74 -51h13l-2 -10h-301zM384 784q-13 37 -35 79t-42 71l2 10h10
q29 -20 59.5 -47t52.5 -54q34 27 78.5 54t84.5 47h10l-2 -10q-31 -29 -72 -70.5t-71 -79.5h-75z" />
    <glyph glyph-name="tcaron" unicode="&#x165;" horiz-adv-x="367" 
d="M183 -10q-109 0 -109 117q0 18 3 41.5t7 42.5l71 335h-76l2 10q55 0 89 12t56 39t41 72h10l-26 -123h121l-2 -10h-121l-71 -332q-5 -25 -8.5 -47.5t-3.5 -38.5q0 -45 18 -64.5t51 -19.5q19 0 40.5 6.5t37.5 16.5l5 -9q-30 -21 -64 -34.5t-71 -13.5zM350 600l3 14
q21 38 36.5 72.5t29.5 73.5h75l-2 -10q-23 -32 -59 -72.5t-73 -77.5h-10z" />
    <glyph glyph-name="Tbar" unicode="&#x166;" horiz-adv-x="613" 
d="M98 0l2 10h13q87 0 103 72l56 266h-167l2 10h168l73 346h-82q-50 0 -82.5 -12t-53 -41t-33.5 -79l-9 -33h-10l43 175h561l-31 -175h-10q5 31 7 48.5t2 29.5q0 49 -27 68t-90 19h-84l-73 -346h168l-2 -10h-169l-56 -266q-3 -12 -3 -21q0 -51 74 -51h13l-2 -10h-301z" />
    <glyph glyph-name="tbar" unicode="&#x167;" horiz-adv-x="368" 
d="M183 -10q-109 0 -109 117q0 18 3 41.5t7 42.5l25 119h-78l2 10h78l44 206h-76l2 10q55 0 89 12t56 39t41 72h10l-26 -123h121l-2 -10h-121l-44 -206h111l-2 -10h-111l-25 -116q-5 -25 -8.5 -47.5t-3.5 -38.5q0 -45 18 -64.5t51 -19.5q19 0 40.5 6.5t37.5 16.5l5 -9
q-30 -21 -64 -34.5t-71 -13.5z" />
    <glyph glyph-name="Utilde" unicode="&#x168;" horiz-adv-x="713" 
d="M329 -10q-109 0 -168 45t-59 128q0 16 3.5 44t7.5 45l81 384q4 16 4 28q0 26 -20 33t-52 7h-13l2 10h291l-1 -10h-13q-33 0 -60.5 -12.5t-37.5 -59.5l-82 -385q-5 -25 -8.5 -49.5t-3.5 -50.5q0 -71 34 -109t98 -38q82 0 134.5 27.5t81.5 74t41 104.5l92 430q4 16 4 28
q0 26 -20.5 33t-51.5 7h-13l2 10h200l-1 -10h-13q-33 0 -60.5 -12.5t-37.5 -59.5l-91 -428q-21 -100 -86 -157t-184 -57zM550 784q-29 0 -48 9.5t-35 22t-35.5 22t-49.5 9.5q-33 0 -47 -16.5t-24 -36.5h-10q13 46 45 82t86 36q29 0 48 -9.5t35 -22t36 -22t50 -9.5
q32 0 45.5 16.5t23.5 36.5h10q-13 -46 -45 -82t-85 -36z" />
    <glyph glyph-name="utilde" unicode="&#x169;" horiz-adv-x="601" 
d="M457 -10q-40 0 -62 28t-22 67q0 11 1 27t3 32h-3q-26 -44 -53.5 -78.5t-62.5 -54.5t-81 -20q-59 0 -83 33.5t-24 77.5q0 25 6 54.5t12 55.5l46 207q3 14 6 33t3 27q0 30 -20.5 38.5t-49.5 8.5h-8l2 10h186l-66 -299q-4 -18 -8.5 -41.5t-8 -46.5t-3.5 -37q0 -42 12.5 -67
t46.5 -25q24 0 49.5 18t48.5 47t39 60.5t22 58.5l71 332h97l-69 -321q-2 -11 -6 -32t-6.5 -43t-2.5 -36q0 -78 45 -78q16 0 31 6.5t34 20.5l5 -7q-22 -20 -56 -38t-71 -18zM442 606q-29 0 -48 9.5t-35 22t-35.5 22t-49.5 9.5q-33 0 -47 -16.5t-24 -36.5h-10q13 46 45 82
t86 36q29 0 48 -9.5t35 -22t36 -22t50 -9.5q32 0 45.5 16.5t23.5 36.5h10q-13 -46 -45 -82t-85 -36z" />
    <glyph glyph-name="Umacron" unicode="&#x16a;" horiz-adv-x="713" 
d="M329 -10q-109 0 -168 45t-59 128q0 16 3.5 44t7.5 45l81 384q4 16 4 28q0 26 -20 33t-52 7h-13l2 10h291l-1 -10h-13q-33 0 -60.5 -12.5t-37.5 -59.5l-82 -385q-5 -25 -8.5 -49.5t-3.5 -50.5q0 -71 34 -109t98 -38q82 0 134.5 27.5t81.5 74t41 104.5l92 430q4 16 4 28
q0 26 -20.5 33t-51.5 7h-13l2 10h200l-1 -10h-13q-33 0 -60.5 -12.5t-37.5 -59.5l-91 -428q-21 -100 -86 -157t-184 -57zM342 808l4 20h290l-4 -20h-290z" />
    <glyph glyph-name="umacron" unicode="&#x16b;" horiz-adv-x="601" 
d="M457 -10q-40 0 -62 28t-22 67q0 11 1 27t3 32h-3q-26 -44 -53.5 -78.5t-62.5 -54.5t-81 -20q-59 0 -83 33.5t-24 77.5q0 25 6 54.5t12 55.5l46 207q3 14 6 33t3 27q0 30 -20.5 38.5t-49.5 8.5h-8l2 10h186l-66 -299q-4 -18 -8.5 -41.5t-8 -46.5t-3.5 -37q0 -42 12.5 -67
t46.5 -25q24 0 49.5 18t48.5 47t39 60.5t22 58.5l71 332h97l-69 -321q-2 -11 -6 -32t-6.5 -43t-2.5 -36q0 -78 45 -78q16 0 31 6.5t34 20.5l5 -7q-22 -20 -56 -38t-71 -18zM234 630l4 20h290l-4 -20h-290z" />
    <glyph glyph-name="Ubreve" unicode="&#x16c;" horiz-adv-x="713" 
d="M329 -10q-109 0 -168 45t-59 128q0 16 3.5 44t7.5 45l81 384q4 16 4 28q0 26 -20 33t-52 7h-13l2 10h291l-1 -10h-13q-33 0 -60.5 -12.5t-37.5 -59.5l-82 -385q-5 -25 -8.5 -49.5t-3.5 -50.5q0 -71 34 -109t98 -38q82 0 134.5 27.5t81.5 74t41 104.5l92 430q4 16 4 28
q0 26 -20.5 33t-51.5 7h-13l2 10h200l-1 -10h-13q-33 0 -60.5 -12.5t-37.5 -59.5l-91 -428q-21 -100 -86 -157t-184 -57zM477 784q-60 0 -91 35.5t-35 101.5h10q5 -35 38 -51.5t85 -16.5q49 0 86 16t58 52h10q-14 -56 -55 -96.5t-106 -40.5z" />
    <glyph glyph-name="ubreve" unicode="&#x16d;" horiz-adv-x="601" 
d="M457 -10q-40 0 -62 28t-22 67q0 11 1 27t3 32h-3q-26 -44 -53.5 -78.5t-62.5 -54.5t-81 -20q-59 0 -83 33.5t-24 77.5q0 25 6 54.5t12 55.5l46 207q3 14 6 33t3 27q0 30 -20.5 38.5t-49.5 8.5h-8l2 10h186l-66 -299q-4 -18 -8.5 -41.5t-8 -46.5t-3.5 -37q0 -42 12.5 -67
t46.5 -25q24 0 49.5 18t48.5 47t39 60.5t22 58.5l71 332h97l-69 -321q-2 -11 -6 -32t-6.5 -43t-2.5 -36q0 -78 45 -78q16 0 31 6.5t34 20.5l5 -7q-22 -20 -56 -38t-71 -18zM369 606q-60 0 -91 35.5t-35 101.5h10q5 -35 38 -51.5t85 -16.5q49 0 86 16t58 52h10
q-14 -56 -55 -96.5t-106 -40.5z" />
    <glyph glyph-name="Uring" unicode="&#x16e;" horiz-adv-x="713" 
d="M329 -10q-109 0 -168 45t-59 128q0 16 3.5 44t7.5 45l81 384q4 16 4 28q0 26 -20 33t-52 7h-13l2 10h291l-1 -10h-13q-33 0 -60.5 -12.5t-37.5 -59.5l-82 -385q-5 -25 -8.5 -49.5t-3.5 -50.5q0 -71 34 -109t98 -38q82 0 134.5 27.5t81.5 74t41 104.5l92 430q4 16 4 28
q0 26 -20.5 33t-51.5 7h-13l2 10h200l-1 -10h-13q-33 0 -60.5 -12.5t-37.5 -59.5l-91 -428q-21 -100 -86 -157t-184 -57zM501 774q-50 0 -85 28t-35 81t35 81t85 28t85 -28t35 -81t-35 -81t-85 -28zM501 784q48 0 78 25t30 74t-30 74t-78 25t-78 -25t-30 -74t30 -74t78 -25z
" />
    <glyph glyph-name="uring" unicode="&#x16f;" horiz-adv-x="601" 
d="M457 -10q-40 0 -62 28t-22 67q0 11 1 27t3 32h-3q-26 -44 -53.5 -78.5t-62.5 -54.5t-81 -20q-59 0 -83 33.5t-24 77.5q0 25 6 54.5t12 55.5l46 207q3 14 6 33t3 27q0 30 -20.5 38.5t-49.5 8.5h-8l2 10h186l-66 -299q-4 -18 -8.5 -41.5t-8 -46.5t-3.5 -37q0 -42 12.5 -67
t46.5 -25q24 0 49.5 18t48.5 47t39 60.5t22 58.5l71 332h97l-69 -321q-2 -11 -6 -32t-6.5 -43t-2.5 -36q0 -78 45 -78q16 0 31 6.5t34 20.5l5 -7q-22 -20 -56 -38t-71 -18zM393 596q-50 0 -85 28t-35 81t35 81t85 28t85 -28t35 -81t-35 -81t-85 -28zM393 606q48 0 78 25
t30 74t-30 74t-78 25t-78 -25t-30 -74t30 -74t78 -25z" />
    <glyph glyph-name="Uhungarumlaut" unicode="&#x170;" horiz-adv-x="713" 
d="M329 -10q-109 0 -168 45t-59 128q0 16 3.5 44t7.5 45l81 384q4 16 4 28q0 26 -20 33t-52 7h-13l2 10h291l-1 -10h-13q-33 0 -60.5 -12.5t-37.5 -59.5l-82 -385q-5 -25 -8.5 -49.5t-3.5 -50.5q0 -71 34 -109t98 -38q82 0 134.5 27.5t81.5 74t41 104.5l92 430q4 16 4 28
q0 26 -20.5 33t-51.5 7h-13l2 10h200l-1 -10h-13q-33 0 -60.5 -12.5t-37.5 -59.5l-91 -428q-21 -100 -86 -157t-184 -57zM516 774l2 10q26 32 54.5 74t43.5 76h93l-3 -10q-15 -18 -47 -46t-68.5 -56t-64.5 -48h-10zM336 774l2 10q26 32 54.5 74t43.5 76h93l-3 -10
q-15 -18 -47 -46t-68.5 -56t-64.5 -48h-10z" />
    <glyph glyph-name="uhungarumlaut" unicode="&#x171;" horiz-adv-x="601" 
d="M457 -10q-40 0 -62 28t-22 67q0 11 1 27t3 32h-3q-26 -44 -53.5 -78.5t-62.5 -54.5t-81 -20q-59 0 -83 33.5t-24 77.5q0 25 6 54.5t12 55.5l46 207q3 14 6 33t3 27q0 30 -20.5 38.5t-49.5 8.5h-8l2 10h186l-66 -299q-4 -18 -8.5 -41.5t-8 -46.5t-3.5 -37q0 -42 12.5 -67
t46.5 -25q24 0 49.5 18t48.5 47t39 60.5t22 58.5l71 332h97l-69 -321q-2 -11 -6 -32t-6.5 -43t-2.5 -36q0 -78 45 -78q16 0 31 6.5t34 20.5l5 -7q-22 -20 -56 -38t-71 -18zM408 596l2 10q26 32 54.5 74t43.5 76h93l-3 -10q-15 -18 -47 -46t-68.5 -56t-64.5 -48h-10zM228 596
l2 10q26 32 54.5 74t43.5 76h93l-3 -10q-15 -18 -47 -46t-68.5 -56t-64.5 -48h-10z" />
    <glyph glyph-name="Uogonek" unicode="&#x172;" horiz-adv-x="713" 
d="M329 -10q-109 0 -168 45t-59 128q0 16 3.5 44t7.5 45l81 384q4 16 4 28q0 26 -20 33t-52 7h-13l2 10h291l-1 -10h-13q-33 0 -60.5 -12.5t-37.5 -59.5l-82 -385q-5 -25 -8.5 -49.5t-3.5 -50.5q0 -71 34 -109t98 -38q82 0 134.5 27.5t81.5 74t41 104.5l92 430q4 16 4 28
q0 26 -20.5 33t-51.5 7h-13l2 10h200l-1 -10h-13q-33 0 -60.5 -12.5t-37.5 -59.5l-91 -428q-21 -100 -86 -157t-184 -57zM323 -240q-55 0 -86 24t-31 68q0 56 47 92.5t122 55.5h20q-27 -12 -50.5 -29.5t-37.5 -49t-14 -82.5q0 -29 14 -47t41 -18q8 0 23.5 2.5t33.5 9.5
l-2 -10q-37 -16 -80 -16z" />
    <glyph glyph-name="uogonek" unicode="&#x173;" horiz-adv-x="601" 
d="M457 -10q-40 0 -62 28t-22 67q0 11 1 27t3 32h-3q-26 -44 -53.5 -78.5t-62.5 -54.5t-81 -20q-59 0 -83 33.5t-24 77.5q0 25 6 54.5t12 55.5l46 207q3 14 6 33t3 27q0 30 -20.5 38.5t-49.5 8.5h-8l2 10h186l-66 -299q-4 -18 -8.5 -41.5t-8 -46.5t-3.5 -37q0 -42 12.5 -67
t46.5 -25q24 0 49.5 18t48.5 47t39 60.5t22 58.5l71 332h97l-69 -321q-2 -11 -6 -32t-6.5 -43t-2.5 -36q0 -78 45 -78q16 0 31 6.5t34 20.5l5 -7q-22 -20 -56 -38t-71 -18zM418 -240q-55 0 -86 24t-31 68q0 56 47 92.5t122 55.5h20q-27 -12 -50.5 -29.5t-37.5 -49t-14 -82.5
q0 -29 14 -47t41 -18q8 0 23.5 2.5t33.5 9.5l-2 -10q-37 -16 -80 -16z" />
    <glyph glyph-name="Wcircumflex" unicode="&#x174;" horiz-adv-x="1045" 
d="M224 0l-55 651q-3 31 -17 42t-43 11h-13l2 10h272l-2 -10h-23q-32 0 -52 -13.5t-20 -37.5q0 -8 0.5 -17.5t1.5 -16.5l27 -352q3 -46 5 -74.5t3.5 -46.5t2 -32t1.5 -30q16 35 33.5 70.5t44.5 91.5l219 461h42l53 -433q7 -60 12 -108t7 -76q15 32 34.5 74t46.5 98l168 350
q9 19 13 30.5t4 25.5q0 19 -13.5 27.5t-45.5 8.5h-32l2 10h224l-3 -10h-19q-24 0 -43 -5t-35.5 -21.5t-33.5 -51.5l-301 -626h-62l-66 582l-278 -582h-61zM486 784l2 10q21 20 48 46t52.5 53.5t42.5 50.5h75q6 -23 19.5 -50.5t29 -53.5t28.5 -46l-2 -10h-10
q-31 18 -60.5 45.5t-51.5 54.5q-35 -27 -79 -54.5t-84 -45.5h-10z" />
    <glyph glyph-name="wcircumflex" unicode="&#x175;" horiz-adv-x="813" 
d="M446 -10q0 48 -2.5 113t-5.5 137t-5.5 141t-3.5 124q-10 -27 -28.5 -70t-42.5 -95t-49.5 -105.5t-49 -101.5t-41.5 -83.5t-26 -49.5l-75 -9l-8 463q-1 46 -15 59t-39 13h-10l3 10h150q1 -51 2 -113.5t2 -129t1 -130t-1 -116.5h2q24 43 53.5 102.5t60 126.5t59.5 132
t51 119l83 4q3 -29 5.5 -75t5 -102t4.5 -115t3 -114.5t1 -99.5h2q61 75 112 145t82 130.5t31 108.5q0 35 -18.5 52.5t-54.5 25.5q3 24 18.5 41.5t40.5 17.5t39 -18.5t14 -56.5q0 -59 -34 -130.5t-95 -156t-142 -185.5zM332 606l2 10q21 20 48 46t52.5 53.5t42.5 50.5h75
q6 -23 19.5 -50.5t29 -53.5t28.5 -46l-2 -10h-10q-31 18 -60.5 45.5t-51.5 54.5q-35 -27 -79 -54.5t-84 -45.5h-10z" />
    <glyph glyph-name="Ycircumflex" unicode="&#x176;" horiz-adv-x="625" 
d="M104 0l2 10h23q33 0 59.5 11t36.5 56l46 216l-109 358q-9 29 -20 41t-40 12h-13l2 10h270l-2 -10h-50q-39 0 -39 -27q0 -13 3 -26.5t8 -31.5l55 -202l16 -58l16 -58q16 24 33.5 48t34.5 48l150 211q31 42 31 65q0 16 -11 23.5t-38 7.5h-63l2 10h217l-2 -10h-19
q-23 0 -43 -19t-48 -57l-240 -337l-46 -213q-4 -16 -4 -28q0 -26 20 -33t52 -7h23l-2 -10h-311zM281 784l2 10q21 20 48 46t52.5 53.5t42.5 50.5h75q6 -23 19.5 -50.5t29 -53.5t28.5 -46l-2 -10h-10q-31 18 -60.5 45.5t-51.5 54.5q-35 -27 -79 -54.5t-84 -45.5h-10z" />
    <glyph glyph-name="ycircumflex" unicode="&#x177;" horiz-adv-x="520" 
d="M-65 -240q-53 0 -94 18l3 10q12 -4 30.5 -7.5t53.5 -3.5q99 0 174.5 43t127.5 119l-151 534q-8 30 -19 41.5t-40 11.5h-10l2 10h151l73 -270q5 -20 13.5 -53.5t18 -70.5t16.5 -67t10 -43h1q32 48 62.5 100t55.5 102.5t39.5 93t14.5 71.5q0 33 -21.5 52.5t-78.5 19.5
q0 36 20.5 55t44.5 19q32 0 50 -21t18 -63q0 -78 -48 -180t-128 -224q-49 -76 -90.5 -132t-83.5 -92.5t-93.5 -54.5t-121.5 -18zM139 606l2 10q21 20 48 46t52.5 53.5t42.5 50.5h75q6 -23 19.5 -50.5t29 -53.5t28.5 -46l-2 -10h-10q-31 18 -60.5 45.5t-51.5 54.5
q-35 -27 -79 -54.5t-84 -45.5h-10z" />
    <glyph glyph-name="Ydieresis" unicode="&#x178;" horiz-adv-x="625" 
d="M104 0l2 10h23q33 0 59.5 11t36.5 56l46 216l-109 358q-9 29 -20 41t-40 12h-13l2 10h270l-2 -10h-50q-39 0 -39 -27q0 -13 3 -26.5t8 -31.5l55 -202l16 -58l16 -58q16 24 33.5 48t34.5 48l150 211q31 42 31 65q0 16 -11 23.5t-38 7.5h-63l2 10h217l-2 -10h-19
q-23 0 -43 -19t-48 -57l-240 -337l-46 -213q-4 -16 -4 -28q0 -26 20 -33t52 -7h23l-2 -10h-311zM537 810q-20 0 -31.5 12t-11.5 38q0 28 12.5 45.5t34.5 17.5q19 0 31 -12.5t12 -37.5q0 -35 -15 -49t-32 -14zM347 810q-20 0 -31.5 12t-11.5 38q0 28 12.5 45.5t34.5 17.5
q19 0 31 -12.5t12 -37.5q0 -35 -15 -49t-32 -14z" />
    <glyph glyph-name="Zacute" unicode="&#x179;" horiz-adv-x="605" 
d="M-20 0l2 10l525 694h-239q-68 0 -101.5 -32.5t-50.5 -85.5l-14 -47h-10l42 175h494l-2 -10l-526 -694h261q54 0 86.5 17t51.5 46t30 67l11 35h10l-42 -175h-528zM301 774l2 10q26 32 53 74t47 76h93l-3 -10q-16 -18 -48 -45t-67.5 -56t-64.5 -49h-12z" />
    <glyph glyph-name="zacute" unicode="&#x17a;" horiz-adv-x="501" 
d="M-1 0l2 10l364 516h-130q-55 0 -88 -28.5t-52 -93.5l-3 -10h-10l40 142h350l-2 -10l-382 -516h175q47 0 76 13.5t47 42t34 73.5l8 23h10l-39 -162h-400zM237 596l2 10q26 32 53 74t47 76h93l-3 -10q-16 -18 -48 -45t-67.5 -56t-64.5 -49h-12z" />
    <glyph glyph-name="Zdotaccent" unicode="&#x17b;" horiz-adv-x="605" 
d="M-20 0l2 10l525 694h-239q-68 0 -101.5 -32.5t-50.5 -85.5l-14 -47h-10l42 175h494l-2 -10l-526 -694h261q54 0 86.5 17t51.5 46t30 67l11 35h10l-42 -175h-528zM381 814q-20 0 -33 11.5t-13 38.5q0 33 14 49t36 16q20 0 33 -10.5t13 -39.5q0 -38 -16 -51.5t-34 -13.5z
" />
    <glyph glyph-name="zdotaccent" unicode="&#x17c;" horiz-adv-x="501" 
d="M-1 0l2 10l364 516h-130q-55 0 -88 -28.5t-52 -93.5l-3 -10h-10l40 142h350l-2 -10l-382 -516h175q47 0 76 13.5t47 42t34 73.5l8 23h10l-39 -162h-400zM317 636q-20 0 -33 11.5t-13 38.5q0 33 14 49t36 16q20 0 33 -10.5t13 -39.5q0 -38 -16 -51.5t-34 -13.5z" />
    <glyph glyph-name="Zcaron" unicode="&#x17d;" horiz-adv-x="605" 
d="M-20 0l2 10l525 694h-239q-68 0 -101.5 -32.5t-50.5 -85.5l-14 -47h-10l42 175h494l-2 -10l-526 -694h261q54 0 86.5 17t51.5 46t30 67l11 35h10l-42 -175h-528zM330 784q-13 37 -35 79t-42 71l2 10h10q29 -20 59.5 -47t52.5 -54q34 27 78.5 54t84.5 47h10l-2 -10
q-31 -29 -72 -70.5t-71 -79.5h-75z" />
    <glyph glyph-name="zcaron" unicode="&#x17e;" horiz-adv-x="501" 
d="M-1 0l2 10l364 516h-130q-55 0 -88 -28.5t-52 -93.5l-3 -10h-10l40 142h350l-2 -10l-382 -516h175q47 0 76 13.5t47 42t34 73.5l8 23h10l-39 -162h-400zM266 606q-13 37 -35 79t-42 71l2 10h10q29 -20 59.5 -47t52.5 -54q34 27 78.5 54t84.5 47h10l-2 -10
q-31 -29 -72 -70.5t-71 -79.5h-75z" />
    <glyph glyph-name="longs" unicode="&#x17f;" horiz-adv-x="300" 
d="M-82 -240q-15 0 -31.5 2.5t-26.5 5.5l2 10q8 -2 21.5 -4.5t24.5 -2.5q35 0 58 22t40.5 70.5t34.5 127.5l127 600q16 85 62 132t128 47q64 0 96.5 -20.5t32.5 -53.5t-21.5 -49t-61.5 -16q1 53 -8 91t-40 38q-38 0 -56 -36t-36 -124l-129 -608q-19 -90 -49 -140.5t-72 -71
t-96 -20.5z" />
    <glyph glyph-name="uni0180" unicode="&#x180;" horiz-adv-x="562" 
d="M232 -10q-65 0 -109 41l-53 -34h-32l133 627h-101l2 10h102l3 16q5 20 7 32.5t2 20.5q0 30 -21 38.5t-49 8.5h-8l2 10h189l-27 -126h134l-2 -10h-134l-19 -89q-4 -19 -10.5 -44.5t-13.5 -49.5t-11 -38h2q37 67 80.5 105t104.5 38q59 0 93 -46t34 -135q0 -61 -20 -126.5
t-58.5 -122t-94 -91.5t-125.5 -35zM225 1q41 0 73.5 25.5t57 68t40.5 93.5t24 102t8 93q0 74 -15 108.5t-45 34.5t-57 -20.5t-48 -50.5t-35 -60t-18 -49l-67 -309q13 -16 33.5 -26t48.5 -10z" />
    <glyph glyph-name="uni0181" unicode="&#x181;" horiz-adv-x="750" 
d="M57 0l2 10h13q34 0 61 12.5t37 59.5l111 531q3 16 5.5 28t2.5 21q0 42 -56 42q-35 0 -55 -14.5t-29 -37t-9 -47.5q0 -23 3.5 -33.5t10.5 -18.5q-19 -14 -38 -14q-22 0 -35 16t-13 39q0 56 45 88t118 32h236q115 0 174.5 -38t59.5 -112q0 -62 -31 -102t-84 -61t-119 -26
v-2q89 -5 140.5 -40t51.5 -108q0 -107 -73 -166t-215 -59h-314zM333 379h77q94 0 138 45t44 131q0 73 -33 111t-97 38h-60zM255 10h97q108 0 153.5 58t45.5 167q0 67 -32.5 100.5t-103.5 33.5h-84z" />
    <glyph glyph-name="uni0182" unicode="&#x182;" horiz-adv-x="593" 
d="M-21 0l2 10h13q34 0 61 12.5t37 59.5l117 554q4 16 4 28q0 26 -21.5 33t-50.5 7h-13l2 10h468l-32 -175h-10q1 8 3.5 30t2.5 34q0 50 -19 75.5t-69 25.5h-149l-67 -309h57q75 0 123 -14t75 -38t37.5 -53.5t10.5 -61.5q0 -110 -73 -169t-215 -59h-294zM177 10h77
q110 0 154.5 56t44.5 154q0 88 -33.5 126.5t-99.5 38.5h-64z" />
    <glyph glyph-name="uni0183" unicode="&#x183;" horiz-adv-x="562" 
d="M221 -10q-65 0 -109 41l-53 -34h-32l139 653q4 20 6.5 34t2.5 19q0 30 -20.5 38.5t-49.5 8.5h-8l2 10h433l-34 -160h-10q4 22 7 44t3 48q0 31 -21.5 44.5t-68.5 13.5h-122l-46 -215q-4 -19 -11 -44.5t-13.5 -49.5t-10.5 -38h2q37 67 80 105t105 38q59 0 93 -46t34 -135
q0 -61 -20 -126.5t-58.5 -122t-94 -91.5t-125.5 -35zM214 1q41 0 73.5 25.5t57 68t40.5 93.5t24 102t8 93q0 74 -15 108.5t-45 34.5t-57 -20.5t-48 -50.5t-35 -60t-18 -49l-67 -309q13 -16 33.5 -26t48.5 -10z" />
    <glyph glyph-name="uni0184" unicode="&#x184;" horiz-adv-x="572" 
d="M287 -10q-70 0 -112 23t-61 59t-19 77q0 26 3 48.5t8 47.5l82 391q4 16 4 28q0 26 -21.5 33t-50.5 7h-13l3 10h291l-2 -10h-13q-34 0 -61 -12.5t-37 -59.5l-50 -237h77q85 0 134 -19.5t70.5 -53.5t21.5 -79q0 -71 -30 -128t-87 -91t-137 -34zM289 0q45 0 77.5 33.5
t49.5 87t17 113.5q0 86 -30.5 118.5t-97.5 32.5h-69l-31 -148q-6 -30 -9.5 -57.5t-3.5 -46.5q0 -64 22 -98.5t75 -34.5z" />
    <glyph glyph-name="uni0185" unicode="&#x185;" horiz-adv-x="528" 
d="M204 -10q-81 0 -114 43.5t-33 111.5q0 25 3.5 57t11.5 71l78 377q4 20 6.5 34t2.5 19q0 30 -20.5 38.5t-49.5 8.5h-8l3 10h189l-48 -225q-3 -21 -10.5 -51.5t-15 -58.5t-10.5 -44h2q35 85 80 125t106 40q59 0 93 -46t34 -135q0 -61 -21 -126.5t-60 -122t-94.5 -91.5
t-124.5 -35zM214 0q38 0 68 25.5t52.5 66.5t37.5 90t22.5 97.5t7.5 86.5q0 87 -18.5 123.5t-44.5 36.5q-30 0 -58.5 -25.5t-52.5 -68t-42 -94.5t-28 -105t-10 -99q0 -66 14.5 -100t51.5 -34z" />
    <glyph glyph-name="uni0186" unicode="&#x186;" horiz-adv-x="636" 
d="M337 724q131 0 203.5 -70t72.5 -198q0 -89 -29 -172.5t-83.5 -149.5t-130.5 -105t-169 -39q-89 0 -137 30.5t-48 80.5q0 36 26 57t66 21q0 -27 0.5 -58t9 -58.5t29 -45t59.5 -17.5q55 0 101.5 29t83 78t61.5 110.5t38.5 127.5t13.5 127q0 116 -45 179t-133 63
q-75 0 -114 -39.5t-64 -106.5q-20 10 -20 33q0 27 21.5 55.5t68 48t119.5 19.5z" />
    <glyph glyph-name="uni0187" unicode="&#x187;" horiz-adv-x="627" 
d="M337 -10q-131 0 -203.5 70t-72.5 198q0 89 29 172.5t83.5 149.5t130.5 105t169 39q77 0 124 -23.5t58 -62.5l8 37q14 64 26.5 104t30 59t46.5 19q22 0 39 -13.5t17 -38.5q0 -24 -22 -42q-20 18 -48 18t-45 -17t-29 -69l-20 -90q-4 -33 -29 -51.5t-63 -18.5q0 27 -0.5 58
t-9 58.5t-29 45t-59.5 17.5q-55 0 -101.5 -29t-83 -78t-61.5 -110.5t-38.5 -127.5t-13.5 -127q0 -116 45 -179t133 -63q75 0 114 39.5t64 106.5q20 -10 20 -33q0 -27 -21.5 -55.5t-68 -48t-119.5 -19.5z" />
    <glyph glyph-name="uni0188" unicode="&#x188;" horiz-adv-x="532" 
d="M234 -10q-90 0 -142.5 51.5t-52.5 155.5q0 55 17 116t53 114t92.5 86t135.5 33q63 0 98 -21.5t44 -50.5l27 135q16 80 36 115.5t61 35.5q23 0 40 -14t17 -40q0 -22 -22 -40q-16 18 -44 18q-33 0 -51.5 -20.5t-27.5 -65.5l-33 -159v0q-5 -25 -28.5 -42t-62.5 -17
q1 9 1.5 19.5t0.5 20.5q0 53 -15 84.5t-51 31.5q-43 0 -77 -33.5t-58 -87t-36.5 -113.5t-12.5 -113q0 -89 24 -138.5t81 -49.5q40 0 66.5 17t44 45.5t30.5 61.5q18 -7 18 -25q0 -22 -18.5 -47.5t-56.5 -44t-98 -18.5z" />
    <glyph glyph-name="uni0189" unicode="&#x189;" horiz-adv-x="725" 
d="M-19 0l2 10h13q34 0 61 12.5t37 59.5l61 288h-99l2 10h99l54 256q1 7 2.5 14.5t1.5 13.5q0 27 -22.5 33.5t-49.5 6.5h-13l2 10h280q135 0 209.5 -69.5t74.5 -202.5q0 -89 -26 -169t-77 -141.5t-125.5 -96.5t-171.5 -35h-315zM178 11h87q101 0 173 56.5t110.5 156.5
t38.5 229q0 130 -46 190.5t-136 60.5h-79l-69 -324h167l-2 -10h-167z" />
    <glyph glyph-name="uni018A" unicode="&#x18a;" horiz-adv-x="798" 
d="M56 0l2 10h13q34 0 61 12.5t37 59.5l116 552q1 6 2.5 16t1.5 14q0 23 -16.5 31.5t-36.5 8.5q-48 0 -71 -31t-23 -68q0 -23 3 -33.5t9 -18.5q-19 -14 -38 -14q-22 0 -35 16.5t-13 43.5q0 28 16.5 54.5t52.5 43.5t95 17h255q135 0 209.5 -69.5t74.5 -202.5q0 -89 -26 -169
t-77 -141.5t-125.5 -96.5t-171.5 -35h-315zM253 10h87q102 0 174 56.5t110 156.5t38 230q0 131 -49 191t-132 60h-79z" />
    <glyph glyph-name="uni018B" unicode="&#x18b;" horiz-adv-x="620" 
d="M258 0q-105 0 -166.5 44.5t-61.5 130.5q0 35 12 73t44 71.5t91.5 54.5t154.5 21h70l65 309h-158q-58 0 -94.5 -30t-56.5 -92l-14 -43h-10l42 175h488l-2 -10h-13q-33 0 -59.5 -12.5t-36.5 -59.5l-118 -554q-4 -16 -4 -28q0 -26 20.5 -33t51.5 -7h13l-2 -10h-256zM274 10
h46l80 375h-47q-80 0 -127.5 -26.5t-68.5 -73.5t-21 -108q0 -44 14.5 -82t45 -61.5t78.5 -23.5z" />
    <glyph glyph-name="uni018C" unicode="&#x18c;" horiz-adv-x="563" 
d="M172 -10q-44 0 -73 24t-42.5 65.5t-13.5 93.5q0 47 12.5 98.5t37.5 100t61 88t83 63t104 23.5q28 0 53 -7t44 -17q3 13 6.5 30t5.5 26l36 172h-157q-37 0 -61 -10t-41.5 -34.5t-35.5 -68.5l-12 -33h-10l39 156h374l-116 -545q-2 -11 -6 -32t-6.5 -43t-2.5 -36
q0 -80 42 -80q17 0 37 10t39 24l5 -8q-14 -13 -38 -27t-51 -23.5t-52 -9.5q-36 0 -57 22t-21 61q0 13 2.5 33t7.5 45h-3q-34 -77 -82.5 -119t-107.5 -42zM215 17q24 0 48 17t45 44t36 58.5t21 60.5l66 312q-13 10 -34 17.5t-47 7.5q-40 0 -72.5 -24.5t-57.5 -65.5
t-41.5 -89.5t-25 -97t-8.5 -88.5q0 -82 20 -117t50 -35z" />
    <glyph glyph-name="uni018D" unicode="&#x18d;" horiz-adv-x="577" 
d="M335 546q95 0 148.5 -52t53.5 -137q0 -115 -71.5 -179.5t-200.5 -85.5q44 -30 71.5 -70t27.5 -86q0 -56 -27.5 -92.5t-72 -54.5t-96.5 -18q-83 0 -123.5 29t-40.5 62q0 38 24.5 57t59.5 19q0 -45 6 -80.5t23.5 -56t52.5 -20.5q52 0 80.5 39t28.5 92q0 38 -24 69t-74 68
q-58 43 -91.5 92t-33.5 110q0 89 38 155.5t101.5 103t139.5 36.5zM334 536q-57 0 -97.5 -33.5t-62 -93.5t-21.5 -139q0 -65 31 -104t72 -67q85 19 135.5 85.5t50.5 170.5q0 181 -108 181z" />
    <glyph glyph-name="uni018E" unicode="&#x18e;" horiz-adv-x="633" 
d="M-3 0l32 175h10q-1 -7 -3 -27t-2 -31q0 -44 24 -75.5t80 -31.5h193l77 360h-241l2 10h241l70 324h-168q-70 0 -106.5 -27.5t-57.5 -89.5l-16 -48h-10l44 175h511l-2 -10h-13q-33 0 -60 -11t-37 -56l-117 -555q-3 -14 -3 -24q0 -32 20.5 -40t49.5 -8h13l-2 -10h-529z" />
    <glyph glyph-name="uni018F" unicode="&#x18f;" horiz-adv-x="674" 
d="M243 -10q-101 0 -157 42t-56 121q0 42 20 84t70 77t139 56t226 21h36q3 23 5 45t2 41q0 121 -43 179.5t-117 58.5q-64 0 -115.5 -41t-96.5 -104q-9 8 -9 21q0 41 30 71t81.5 46.5t116.5 16.5q96 0 153.5 -37.5t83 -99.5t25.5 -133q0 -65 -17 -131.5t-49.5 -126.5
t-80.5 -106.5t-110 -73.5t-137 -27zM249 0q51 0 94.5 31t77.5 84.5t59 122t40 143.5h-37q-103 0 -170.5 -21.5t-106.5 -58t-55 -82t-16 -92.5q0 -59 26.5 -93t87.5 -34z" />
    <glyph glyph-name="uni0190" unicode="&#x190;" horiz-adv-x="600" 
d="M277 -11q-65 0 -120.5 17.5t-89 56t-33.5 101.5q0 97 70.5 148.5t200.5 59.5v1q-85 10 -130 46.5t-45 101.5q0 54 22.5 93t61 63t86 35.5t97.5 11.5q98 0 151 -34.5t53 -85.5q0 -44 -28.5 -61.5t-67.5 -17.5q0 85 -28.5 137t-88.5 52q-67 0 -111 -51t-44 -150
q0 -64 34.5 -101t89.5 -37h85l-2 -10h-85q-95 0 -151.5 -48.5t-56.5 -159.5q0 -78 33 -118t103 -40q61 0 111 30.5t97 110.5q14 -8 14 -28q0 -36 -29 -63.5t-80.5 -43.5t-118.5 -16z" />
    <glyph glyph-name="uni0191" unicode="&#x191;" horiz-adv-x="596" 
d="M-67 -240q-27 0 -45.5 3t-36.5 8l3 10q13 -5 31.5 -7t33.5 -2q38 0 66 20t49.5 68t38.5 131l136 645q4 16 4 28q0 26 -20.5 33t-51.5 7h-13l2 10h504l-32 -175h-10q2 17 3.5 34t1.5 24q0 46 -21.5 76.5t-73.5 30.5h-177l-75 -348h241l-2 -10h-241l-75 -354
q-25 -118 -81.5 -175t-158.5 -57z" />
    <glyph glyph-name="florin" unicode="&#x192;" horiz-adv-x="559" 
d="M18 -240q-14 0 -31 2t-27 5l2 10q7 -1 21.5 -4t29.5 -3q33 0 55.5 21.5t39.5 70t33 129.5l83 427h-101l2 10h101l22 117q16 85 62 132t128 47q64 0 96.5 -20.5t32.5 -53.5t-21.5 -49t-61.5 -16q0 35 -3 64.5t-14 47t-34 17.5q-35 0 -54.5 -40t-34.5 -120l-24 -126h131
l-2 -10h-131l-83 -426q-17 -90 -47.5 -140.5t-73 -71t-96.5 -20.5z" />
    <glyph glyph-name="uni0193" unicode="&#x193;" horiz-adv-x="714" 
d="M345 -10q-141 0 -212.5 72t-71.5 196q0 97 31 181.5t88 148.5t136 100t175 36q82 0 132 -19.5t68 -49.5l10 49q17 80 36 116.5t58 36.5q25 0 42.5 -14t17.5 -40q0 -22 -22 -40q-20 18 -44 18q-31 0 -49 -16.5t-29 -67.5l-13 -58q4 -11 4 -23q0 -39 -28 -59t-68 -20
q0 51 -8 91t-35 63t-83 23q-66 0 -122.5 -38t-98.5 -104.5t-65.5 -151.5t-23.5 -178q0 -72 14.5 -126.5t53 -85t109.5 -30.5q33 0 65 4t54 10l50 238q4 16 4 28q0 26 -21.5 33t-50.5 7h-9l2 10h266l-2 -10h-4q-28 0 -51.5 -12.5t-33.5 -59.5l-45 -212q-55 -23 -108 -34.5
t-118 -11.5z" />
    <glyph glyph-name="uni0194" unicode="&#x194;" horiz-adv-x="641" 
d="M208 -240q-52 0 -77.5 27t-25.5 77q0 26 13 61t44.5 85t87.5 120l-111 521q-7 31 -18.5 42t-40.5 11h-4l3 10h263l-2 -10h-23q-32 0 -52 -14t-20 -42q0 -19 7 -51l75 -380l263 395q11 16 15.5 28.5t4.5 25.5q0 38 -81 38h-23l1 10h237l-2 -10h-9q-26 0 -44.5 -5
t-37.5 -23t-44 -57l-277 -414q20 -91 28.5 -151.5t8.5 -107.5q0 -88 -45.5 -137t-113.5 -49zM199 -230q21 0 39 13.5t28.5 47t10.5 95.5q0 26 -3.5 59t-9 67.5t-11.5 63.5q-75 -91 -106.5 -154.5t-31.5 -97.5q0 -53 24.5 -73.5t59.5 -20.5z" />
    <glyph glyph-name="uni0195" unicode="&#x195;" horiz-adv-x="882" 
d="M543 -10q-91 0 -132.5 37t-41.5 92q0 15 2 30.5t6 33.5l28 120q5 20 13 58t8 73q0 18 -4 37.5t-15.5 33t-34.5 13.5q-28 0 -55.5 -20t-50.5 -50t-38.5 -62.5t-20.5 -56.5l-70 -329h-93l137 650q5 20 7 34t2 19q0 30 -21 38.5t-49 8.5h-8l2 10h184l-39 -184
q-11 -53 -22.5 -100t-16.5 -66h4q42 66 87.5 100.5t103.5 34.5q59 0 83 -33.5t24 -77.5q0 -25 -6.5 -54.5t-11.5 -55.5l-31 -142q-4 -19 -7 -36t-3 -45q0 -49 21 -75t61 -26q57 0 83 46t43 125l76 365h97l-78 -373q-19 -90 -73.5 -131.5t-149.5 -41.5z" />
    <glyph glyph-name="uni0196" unicode="&#x196;" horiz-adv-x="360" 
d="M207 -10q-61 0 -89.5 29t-28.5 88q0 18 3 41.5t7 42.5l95 445q4 16 4 28q0 26 -20 33t-52 7h-13l2 10h291l-2 -10h-13q-34 0 -60.5 -12.5t-36.5 -59.5l-97 -452q-5 -25 -9.5 -48.5t-4.5 -56.5q0 -40 15.5 -55t41.5 -15q14 0 26.5 2t23.5 5l2 -10q-44 -12 -85 -12z" />
    <glyph glyph-name="uni0197" unicode="&#x197;" horiz-adv-x="378" 
d="M-19 0l1 10h13q34 0 61 12.5t37 59.5l61 287h-98l2 10h98l55 257q4 16 4 28q0 26 -20.5 33t-51.5 7h-13l2 10h291l-2 -10h-13q-34 0 -60.5 -12.5t-36.5 -59.5l-54 -253h94l-2 -10h-94l-62 -291q-4 -16 -4 -28q0 -26 20.5 -33t51.5 -7h13l-2 -10h-291z" />
    <glyph glyph-name="uni0198" unicode="&#x198;" horiz-adv-x="705" 
d="M-21 0l1 10h13q34 0 61 12.5t37 59.5l118 554q4 16 4 28q0 26 -20.5 33t-51.5 7h-13l2 10h291l-2 -10h-13q-34 0 -60.5 -12.5t-36.5 -59.5l-72 -335l328 319q30 29 51.5 53.5t42.5 39.5t51 15q21 0 38.5 -13.5t17.5 -44.5q0 -32 -18 -51t-41 -20q-3 20 -13.5 34.5
t-38.5 14.5q-22 0 -44.5 -10t-47.5 -34l-160 -155l138 -323q23 -55 39.5 -83.5t47.5 -28.5h4l-2 -10h-14q-60 0 -94 9t-53 29t-33 55l-112 275l-90 -87l-43 -203q-4 -16 -4 -28q0 -26 20.5 -33t51.5 -7h13l-2 -10h-291z" />
    <glyph glyph-name="uni0199" unicode="&#x199;" horiz-adv-x="572" 
d="M515 -7q-55 0 -87 8t-52.5 30t-40.5 64l-86 179l-67 -58l-45 -216h-93l124 591q18 85 59 132t117 47q58 0 88.5 -20.5t30.5 -53.5t-21.5 -49t-61.5 -16q0 53 -8 91t-34 38q-31 0 -44 -40t-30 -120l-57 -258q-8 -37 -14.5 -66.5t-10.5 -45.5l209 180q43 37 58 54t15 34
q0 13 -17.5 20.5t-70.5 7.5l2 10h221l-2 -10q-40 0 -82.5 -30t-94.5 -75l-103 -89l110 -213q19 -35 31.5 -61.5t27 -40.5t38.5 -14l-2 -10h-7z" />
    <glyph glyph-name="uni019A" unicode="&#x19a;" horiz-adv-x="301" 
d="M156 -10q-40 0 -61.5 28t-21.5 67q0 21 4 50t9 58t9 49l30 142h-87l2 10h88l56 264q3 14 4.5 27t1.5 18q0 30 -21 38.5t-49 8.5h-12l2 10h189l-78 -366h89l-2 -10h-89l-36 -169q-3 -11 -6.5 -32t-6.5 -43t-3 -36q0 -37 10 -55t36 -18q17 0 35 7.5t37 19.5l5 -8
q-22 -20 -59 -40t-75 -20z" />
    <glyph glyph-name="uni019B" unicode="&#x19b;" horiz-adv-x="527" 
d="M-28 0l386 579q-2 33 -10 57l-168 -85l2 12l162 82q-14 34 -39.5 48t-60.5 14q-29 0 -52 -14t-37 -32q-5 4 -8 15t-3 22q0 28 20 50t67 22q48 0 80 -27t46 -91l124 63l-3 -13l-119 -60q5 -25 7 -56l24 -367q7 -97 32.5 -137t67.5 -40h5l-7 -42h-3q-33 0 -53.5 16.5
t-32 61t-18.5 128.5q-2 30 -4.5 67l-5 74t-4 66t-1.5 43h-2q-24 -44 -53 -91.5t-52 -82.5l-182 -282h-105z" />
    <glyph glyph-name="uni019C" unicode="&#x19c;" horiz-adv-x="1043" 
d="M215 -9q-45 0 -72 20.5t-39 51.5t-12 65q0 28 7 62t13 62l82 384q4 16 4 28q0 26 -20 33t-52 7h-13l2 10h291l-2 -10h-13q-33 0 -60.5 -12.5t-37.5 -59.5l-74 -351q-7 -31 -14.5 -74.5t-7.5 -81.5q0 -42 16.5 -75.5t56.5 -33.5q30 0 63.5 27.5t64.5 73t54 100.5t32 109
l66 310q4 16 4 28q0 26 -20 33t-52 7h-13l2 10h291l-2 -10h-13q-33 0 -59.5 -11.5t-36.5 -55.5l-76 -356q-7 -31 -14.5 -74.5t-7.5 -81.5q0 -42 16.5 -75.5t56.5 -33.5q30 0 63.5 27.5t64.5 73t54 100.5t32 109l66 310q4 16 4 28q0 26 -20 33t-52 7h-13l2 10h291l-2 -10h-13
q-33 0 -59.5 -11.5t-36.5 -55.5l-116 -541q-5 -20 -6.5 -31t-1.5 -15q0 -26 20.5 -33t51.5 -7h13l-2 -10h-188l46 227h-1q-56 -128 -116 -182t-136 -54q-45 0 -71.5 20.5t-38 51.5t-11.5 65q0 17 1.5 30.5t5.5 29.5t11 42h-1q-54 -130 -115 -184.5t-137 -54.5z" />
    <glyph glyph-name="uni019D" unicode="&#x19d;" horiz-adv-x="774" 
d="M-109 -240q-40 0 -71 11l3 10q25 -9 62 -9q45 0 86 21t72 69.5t49 131.5l137 642q4 16 4 28q0 26 -25.5 33t-66.5 7h-13l2 10h195l255 -576l106 498q2 7 3 15.5t1 12.5q0 26 -29 33t-74 7h-13l2 10h251l-2 -10h-13q-27 0 -51 -4t-41.5 -19.5t-24.5 -48.5l-134 -632h-30
l-288 652l-141 -660q-20 -90 -48 -140.5t-68.5 -71t-94.5 -20.5z" />
    <glyph glyph-name="uni019E" unicode="&#x19e;" horiz-adv-x="592" 
d="M319 -240q-2 8 -3 18t-1 20q0 31 6 68.5t14 75.5l83 382q9 43 13 70t4 55q0 32 -13.5 57t-51.5 25t-71.5 -26t-56.5 -63.5t-30 -73.5l-75 -368h-94l72 339q5 25 9 56.5t5.5 62t1.5 52.5v15t-1 11h57q15 -26 20.5 -60.5t6.5 -64.5h2q16 32 40 63t56 51.5t76 20.5
q66 0 101 -32t35 -97q0 -15 -2 -31.5t-6 -35.5l-89 -420q-7 -35 -11.5 -66.5t-4.5 -57.5q0 -29 4 -46h-96z" />
    <glyph glyph-name="uni019F" unicode="&#x19f;" horiz-adv-x="742" 
d="M323 -11q-74 0 -133.5 31.5t-94 93.5t-34.5 152q0 58 16 121t48.5 123t80.5 108.5t112 77.5t143 29q69 0 128 -29t95 -89.5t36 -156.5q0 -55 -15.5 -118t-47 -123.5t-79 -110.5t-111.5 -79.5t-144 -29.5zM453 715q-56 0 -100.5 -29.5t-78 -79t-56 -110t-34.5 -121.5h418
q8 54 8 102q0 93 -20.5 144.5t-56 72.5t-80.5 21zM329 -1q59 0 105 32.5t79.5 86.5t55 118.5t31.5 128.5h-418q-12 -67 -12 -127q0 -94 21 -146t57 -72.5t81 -20.5z" />
    <glyph glyph-name="Ohorn" unicode="&#x1a0;" horiz-adv-x="778" 
d="M314 -11q-74 0 -133.5 31.5t-94 93.5t-34.5 152q0 58 16 121t48.5 123t80.5 108.5t111.5 77.5t143.5 29q76 0 142 -36.5t99 -122.5q29 10 54 27.5t25 46.5q0 16 -11.5 26t-22.5 21t-11 31q0 25 16.5 38.5t42.5 13.5q27 0 42.5 -15.5t15.5 -40.5q0 -40 -20.5 -69.5
t-54 -51t-73.5 -36.5q15 -47 15 -107q0 -55 -15.5 -118t-47 -123.5t-79 -110.5t-111.5 -79.5t-144 -29.5zM317 -1q59 0 105.5 32t80 84.5t55.5 116t32.5 127.5t10.5 118q0 125 -39.5 181.5t-113.5 56.5q-60 0 -106.5 -32t-81 -84.5t-56.5 -116t-32.5 -127.5t-10.5 -117
q0 -126 41 -182.5t115 -56.5z" />
    <glyph glyph-name="ohorn" unicode="&#x1a1;" horiz-adv-x="607" 
d="M235 -10q-85 0 -138.5 51.5t-53.5 155.5q0 55 18 116t55 114t93 86t132 33q59 0 106 -26.5t72 -93.5q29 10 53.5 27t24.5 42q0 17 -11.5 27.5t-22.5 22t-11 31.5q0 25 17 38.5t42 13.5q27 0 42.5 -15.5t15.5 -40.5q0 -40 -20.5 -69t-53.5 -50t-73 -36q9 -35 9 -78
t-11 -90.5t-34 -93.5t-58 -83t-83.5 -59.5t-109.5 -22.5zM246 0q39 0 69 23.5t51 62.5t34.5 86t20 94.5t6.5 87.5q0 98 -25.5 140t-70.5 42q-39 0 -69.5 -23.5t-52 -63t-35.5 -87t-20.5 -96t-6.5 -89.5q0 -97 27 -137t72 -40z" />
    <glyph glyph-name="uni01A2" unicode="&#x1a2;" horiz-adv-x="1076" 
d="M323 -11q-74 0 -133.5 31.5t-94 93.5t-34.5 152q0 58 16 121t48.5 123t80.5 108.5t112 77.5t143 29q82 0 149 -40.5t95 -127.5q76 166 194 166q46 0 72 -20.5t37 -51.5t11 -65q0 -28 -4.5 -63t-11.5 -70l-131 -615q-4 -16 -4 -28q0 -26 20 -33t52 -7h13l-2 -10h-291l2 10
h13q33 0 60.5 12.5t37.5 59.5l131 619q13 61 19.5 99.5t6.5 78.5q0 29 -11 50.5t-42 21.5q-43 0 -88 -44t-80 -124q11 -42 11 -93q0 -55 -15.5 -118t-47 -123.5t-79 -110.5t-111.5 -79.5t-144 -29.5zM329 -1q58 0 103.5 32t79 84.5t55.5 116t32.5 127.5t10.5 118
q0 93 -20.5 144.5t-56 72.5t-80.5 21q-58 0 -104 -32t-79.5 -84.5t-55.5 -116t-33 -127.5t-11 -117q0 -94 21 -146t57 -72.5t81 -20.5z" />
    <glyph glyph-name="uni01A3" unicode="&#x1a3;" horiz-adv-x="882" 
d="M602 -240q-2 8 -3 18t-1 20q0 31 6 68.5t14 75.5l88 413q5 25 8 46.5t3 42.5q0 37 -14.5 59.5t-50.5 22.5q-38 0 -64.5 -24.5t-44.5 -63.5t-29 -83.5t-17 -84.5q-8 -50 -28.5 -99.5t-54 -90t-81 -65.5t-110.5 -25q-79 0 -129.5 51.5t-50.5 155.5q0 55 17.5 116t52.5 114
t89 86t127 33q37 0 76 -17t66.5 -55t32.5 -103h1q28 97 73 136t100 39q61 0 95 -32t34 -97q0 -15 -2 -31.5t-6 -35.5l-89 -420q-8 -35 -12.5 -66.5t-3.5 -57.5q0 -29 4 -46h-96zM234 0q36 0 64 23.5t48 62t32.5 85.5t18.5 95t6 88q0 98 -19 140t-63 42q-37 0 -65.5 -24
t-49 -63t-34 -87t-19.5 -96t-6 -89q0 -97 21.5 -137t65.5 -40z" />
    <glyph glyph-name="uni01A4" unicode="&#x1a4;" horiz-adv-x="705" 
d="M57 0l2 10h13q33 0 59.5 12.5t36.5 59.5l117 552q1 6 2.5 16t1.5 14q0 23 -16.5 31.5t-37.5 8.5q-47 0 -69.5 -33t-22.5 -82q0 -19 11 -36q-19 -14 -38 -14q-22 0 -35 15t-13 32q0 52 37 90t120 38h238q105 0 166.5 -49t61.5 -144q0 -38 -12 -80t-44.5 -79t-93 -60.5
t-156.5 -23.5h-74l-43 -200q-4 -16 -4 -28q0 -26 20 -33t52 -7h33l-2 -10h-310zM314 288h53q81 0 129 29.5t68.5 82t20.5 120.5q0 99 -35.5 141.5t-102.5 42.5h-46z" />
    <glyph glyph-name="uni01A5" unicode="&#x1a5;" horiz-adv-x="578" 
d="M-7 -240l175 831q18 85 59 132t117 47q58 0 88.5 -20.5t30.5 -53.5t-21.5 -49t-61.5 -16q0 53 -7.5 91t-32.5 38q-32 0 -46 -40t-30 -120l-20 -98q-6 -28 -12 -51t-13 -48h2q21 39 47 71.5t60 52t79 19.5q61 0 94 -46.5t33 -134.5q0 -43 -12 -93.5t-35.5 -100.5t-59 -91
t-83.5 -65.5t-108 -24.5q-29 0 -51 7.5t-43 21.5q-4 -15 -6 -26t-6 -28l-21 -93q-1 -6 -5 -25.5t-4 -30.5q0 -30 21 -38t49 -8h13l-2 -10h-188zM233 1q38 0 69.5 24.5t55.5 64.5t40.5 88.5t25 97.5t8.5 90q0 37 -5 71.5t-20 56.5t-45 22q-27 0 -52 -18t-45.5 -45.5
t-34 -55.5t-17.5 -48l-68 -319q12 -8 32.5 -18.5t55.5 -10.5z" />
    <glyph glyph-name="uni01A6" unicode="&#x1a6;" horiz-adv-x="655" 
d="M552 -120q-58 0 -92.5 9.5t-54 35t-31.5 72.5l-54 219h-99l-31 -138q-4 -16 -4 -28q0 -26 20 -33t52 -7h23l-2 -10h-300l2 10h13q32 0 58.5 11t36.5 56l121 559q4 16 4 28q0 26 -20 33t-52 7h-13l2 10h291l-2 -10h-13q-34 0 -60.5 -13t-36.5 -59l-8 -38h65q115 0 172 -39
t57 -125q0 -58 -27 -99t-68 -66t-83 -39l65 -225q17 -56 31 -83.5t45 -27.5h8l-2 -10h-13zM223 226h77q93 0 141.5 51t48.5 158q0 85 -28 117t-95 32h-68z" />
    <glyph glyph-name="uni01A7" unicode="&#x1a7;" horiz-adv-x="550" 
d="M239 -10q-81 0 -128 25t-67 66t-20 90q0 54 22 91.5t58 63.5t80 45.5t87 38.5q59 26 101 49t64.5 55t22.5 83q0 61 -32.5 89t-71.5 28q-53 0 -84.5 -45t-47.5 -130q-31 0 -52.5 12.5t-21.5 43.5q0 25 21.5 55t67 52t117.5 22q92 0 141 -45.5t49 -112.5q0 -54 -21 -91.5
t-56 -63.5t-77.5 -46t-85.5 -39q-49 -22 -92.5 -46t-71.5 -60t-28 -90q0 -62 36 -96t93 -34q42 0 78.5 19.5t67 51t53.5 69.5q7 -4 13 -14t6 -24q0 -25 -30 -51t-80 -43.5t-111 -17.5z" />
    <glyph glyph-name="uni01A8" unicode="&#x1a8;" horiz-adv-x="466" 
d="M193 -10q-80 0 -120.5 39t-40.5 101q0 38 15.5 70.5t58 63t125.5 61.5q54 21 82 39.5t38 38.5t10 45q0 42 -22.5 65t-59.5 23q-47 0 -71.5 -38.5t-34.5 -112.5q-31 0 -50 12t-19 39q0 26 17.5 51t55 42t96.5 17q76 0 113.5 -37.5t37.5 -92.5q0 -57 -35 -96t-111 -69
q-78 -31 -117 -54.5t-52 -46.5t-13 -52q0 -39 26.5 -68t85.5 -29q49 0 88.5 35.5t61.5 99.5q7 -4 14 -15.5t7 -22.5q0 -25 -18.5 -50t-59.5 -41.5t-108 -16.5z" />
    <glyph glyph-name="uni01A9" unicode="&#x1a9;" horiz-adv-x="605" 
d="M-35 0l6 32l294 289l-141 383l2 10h480l-32 -175h-10q3 30 4 42t1 16q0 45 -19.5 76t-69.5 31h-244l110 -307l-7 -17l-292 -288h368q47 0 73 27t41 68l11 30h10l-51 -217h-534z" />
    <glyph glyph-name="uni01AA" unicode="&#x1aa;" horiz-adv-x="290" 
d="M134 -240q-48 0 -74.5 29t-26.5 88q0 18 3 41.5t7 42.5l126 595q-12 -15 -28.5 -19.5t-30.5 -4.5q-48 0 -72.5 28t-24.5 75q0 57 37.5 93.5t101.5 36.5q67 0 95 -35t28 -81q0 -21 -3.5 -43t-8.5 -47l-126 -595q-5 -25 -8.5 -48.5t-3.5 -46.5q0 -38 17.5 -56.5t47.5 -18.5
q19 0 38 5.5t37 14.5l5 -8q-30 -21 -61 -33.5t-75 -12.5zM111 542q41 0 60 31t19 84q0 41 -16.5 66t-51.5 25q-38 0 -68.5 -31t-30.5 -82q0 -40 21.5 -66.5t66.5 -26.5z" />
    <glyph glyph-name="uni01AB" unicode="&#x1ab;" horiz-adv-x="368" 
d="M173 -197q-33 0 -52 13t-19 35q0 28 22 46q10 -10 25 -15.5t46 -5.5q29 0 56.5 15t37.5 60l17 79q-28 -18 -58.5 -29t-64.5 -11q-109 0 -109 117q0 18 3 41.5t7 42.5l71 335h-76l2 10q55 0 89 12t56 39t41 72h10l-26 -123h121l-2 -10h-121l-71 -332q-5 -25 -8.5 -47.5
t-3.5 -38.5q0 -45 18 -64.5t51 -19.5q41 0 85 27l-21 -106q-14 -71 -42 -106.5t-84 -35.5z" />
    <glyph glyph-name="uni01AC" unicode="&#x1ac;" horiz-adv-x="623" 
d="M92 0l2 10h23q33 0 59.5 11t36.5 56l134 627h-85q-56 0 -87.5 -28t-31.5 -76q0 -19 3 -29t8 -18q-19 -14 -38 -14q-22 0 -35 15t-13 32q0 52 44 90t143 38h426l-32 -175h-10q1 5 2 19t2 26.5t1 15.5q0 43 -20.5 73.5t-78.5 30.5h-97l-134 -626q-4 -16 -4 -28
q0 -26 20 -33t52 -7h23l-2 -10h-311z" />
    <glyph glyph-name="uni01AD" unicode="&#x1ad;" horiz-adv-x="367" 
d="M183 -10q-109 0 -109 117q0 18 3 41.5t7 42.5l71 335h-76l3 10q70 0 117 20.5t66 84.5q13 43 24 69t26 38t41 12q22 0 37.5 -13.5t15.5 -37.5q0 -25 -22 -43q-16 18 -44 18q-33 0 -51 -19.5t-28 -66.5l-13 -62h121l-2 -10h-121l-71 -332q-5 -25 -8.5 -48.5t-3.5 -44.5
q0 -79 65 -79q21 0 43 8t39 17l5 -9q-30 -21 -64 -34.5t-71 -13.5z" />
    <glyph glyph-name="uni01AE" unicode="&#x1ae;" horiz-adv-x="623" 
d="M296 -240q-61 0 -89.5 29t-28.5 88q0 18 3 41.5t7 42.5l158 743h-96q-44 0 -73 -17t-47 -45t-30 -60l-14 -43h-10l42 175h563l-32 -175h-10q1 5 2 19t2 26.5t1 15.5q0 43 -21.5 73.5t-78.5 30.5h-97l-161 -754q-6 -27 -10 -49.5t-4 -51.5q0 -42 16 -58t38 -16
q16 0 26 2.5t21 5.5l2 -10q-13 -6 -36 -9.5t-43 -3.5z" />
    <glyph glyph-name="Uhorn" unicode="&#x1af;" horiz-adv-x="778" 
d="M323 -10q-109 0 -168 45t-59 128q0 16 3.5 44t7.5 45l80 384q4 16 4 28q0 26 -20.5 33t-51.5 7h-13l3 10h291l-2 -10h-13q-33 0 -60.5 -12.5t-37.5 -59.5l-81 -385q-5 -25 -8.5 -51t-3.5 -60q0 -62 36.5 -99t102.5 -37q67 0 106 27.5t60 74t33 104.5l92 430q4 16 4 28
q0 26 -20 33t-52 7h-13l2 10h156l-34 -160q52 8 87.5 30t35.5 56q0 17 -11.5 26.5t-22.5 20t-11 31.5q0 25 16.5 38.5t42.5 13.5q27 0 42.5 -15.5t15.5 -40.5q0 -64 -53 -109.5t-144 -60.5l-72 -340q-21 -100 -86 -157t-184 -57z" />
    <glyph glyph-name="uhorn" unicode="&#x1b0;" horiz-adv-x="653" 
d="M456 -10q-40 0 -62 28t-22 67q0 11 1 27t3 32h-3q-25 -44 -53 -78.5t-63 -54.5t-81 -20q-59 0 -83 33.5t-24 77.5q0 25 6 54.5t12 55.5l46 207q3 14 6 33t3 27q0 30 -21 38.5t-49 8.5h-8l2 10h186l-66 -299q-4 -18 -8.5 -41.5t-8 -46.5t-3.5 -37q0 -42 12 -67t47 -25
q24 0 49.5 18t48.5 47t39 60.5t22 58.5l71 332h97l-27 -124q54 11 88.5 32t34.5 51q0 17 -11.5 27.5t-22.5 22t-11 31.5q0 25 16.5 38.5t42.5 13.5q27 0 42.5 -15.5t15.5 -40.5q0 -50 -28.5 -84.5t-74 -55.5t-94.5 -30l-40 -187q-3 -11 -6.5 -32t-6 -43t-2.5 -36
q0 -78 45 -78q17 0 31 6.5t34 20.5l5 -7q-22 -20 -55.5 -38t-71.5 -18z" />
    <glyph glyph-name="uni01B1" unicode="&#x1b1;" horiz-adv-x="753" 
d="M797 714l-14 -175h-10l-1 33q-1 33 -17 47.5t-64 14.5h-178l-15 -81q75 -8 123 -41.5t71 -85.5t23 -113q0 -35 -9 -77.5t-32.5 -86t-65 -80t-105.5 -58.5t-156 -22q-131 0 -203.5 57.5t-72.5 170.5q0 83 34.5 155.5t109.5 121t196 59.5l17 81h-181q-47 0 -71 -14.5
t-38 -47.5l-14 -33h-10l45 175h297l-36 -167q-65 -7 -111 -41t-74.5 -83.5t-41.5 -105t-13 -104.5q0 -64 15.5 -112t52.5 -75t101 -27q62 0 106 21.5t73.5 58.5t46 82.5t23.5 94t7 93.5q0 79 -27 133.5t-92 64.5l31 167h280z" />
    <glyph glyph-name="uni01B2" unicode="&#x1b2;" horiz-adv-x="719" 
d="M251 -10q-59 0 -94.5 20.5t-51 55t-15.5 75.5q0 25 3.5 47.5t7.5 39.5l86 408q4 16 4 28q0 26 -20.5 33t-51.5 7h-13l3 10h291l-2 -10h-13q-33 0 -60.5 -12.5t-37.5 -59.5l-90 -422q-5 -26 -8.5 -44.5t-3.5 -45.5q0 -50 29 -79.5t79 -29.5q61 0 115 36t98.5 94.5
t76.5 128.5t49.5 140.5t17.5 127.5q0 61 -20.5 83t-58.5 22q-17 0 -32.5 -4.5t-29.5 -11.5q0 21 9 42.5t29.5 36t57.5 14.5q50 0 74.5 -34.5t24.5 -90.5q0 -78 -23 -162t-64.5 -163t-98 -142t-124.5 -100.5t-143 -37.5z" />
    <glyph glyph-name="uni01B3" unicode="&#x1b3;" horiz-adv-x="633" 
d="M99 0l2 10h23q33 0 59.5 11t36.5 56l46 216l-116 358q-13 29 -20.5 41t-32.5 12h-13l2 10h270l-2 -10h-50q-49 0 -49 -27q0 -13 4 -26.5t9 -31.5l50 -166q10 -34 22 -75t22 -76q27 46 55.5 95.5t55.5 98.5q34 60 62.5 111t58.5 82t70 31q30 0 49 -15.5t19 -42.5
q0 -32 -18 -51t-41 -20q-3 20 -13.5 34.5t-36.5 14.5q-22 0 -38.5 -9t-33.5 -31.5t-40 -62t-57.5 -100t-86.5 -146.5l-46 -213q-4 -16 -4 -28q0 -26 20.5 -33t51.5 -7h23l-2 -10h-311z" />
    <glyph glyph-name="uni01B4" unicode="&#x1b4;" horiz-adv-x="556" 
d="M-12 -240q-31 0 -58.5 7t-44.5 15l3 10q20 -6 51.5 -9t58.5 -3q63 0 107.5 23t76.5 72t59 125h-53l-113 473q-7 29 -18 41t-34 12h-6l2 10h146l63 -288q12 -55 21 -105.5t14 -78.5h1q29 76 52 144t53 145q25 65 48 107.5t50 64t65 21.5q29 0 44.5 -14t15.5 -34t-12 -32
t-26 -17q-2 15 -13 24t-34 9q-18 0 -39.5 -12.5t-46.5 -48.5t-53 -107q-18 -46 -43 -112t-54 -152q-37 -107 -74 -170.5t-86 -91.5t-123 -28z" />
    <glyph glyph-name="uni01B5" unicode="&#x1b5;" horiz-adv-x="601" 
d="M-20 0l2 10l271 358h-140l2 10h145l247 326h-239q-68 0 -101.5 -32.5t-50.5 -85.5l-14 -47h-10l42 175h494l-2 -10l-247 -326h148l-2 -10h-154l-271 -358h261q54 0 86.5 17t51.5 46t30 67l11 35h10l-42 -175h-528z" />
    <glyph glyph-name="uni01B6" unicode="&#x1b6;" horiz-adv-x="520" 
d="M-1 0l2 10l184 261h-113l2 10h118l173 245h-130q-55 0 -88 -28.5t-52 -93.5l-3 -10h-10l40 142h350l-2 -10l-181 -245h119l-2 -10h-125l-193 -261h175q47 0 76 13.5t47 42t34 73.5l8 23h10l-39 -162h-400z" />
    <glyph glyph-name="uni01B7" unicode="&#x1b7;" horiz-adv-x="623" 
d="M243 -11q-79 0 -130.5 18t-76.5 46.5t-25 59.5q0 41 27 61.5t67 20.5q0 -89 32.5 -142.5t111.5 -53.5q51 0 88.5 30t58.5 82.5t21 121.5q0 48 -18.5 82.5t-61.5 53.5t-117 19h-20v5l320 240h-268q-30 0 -48 -4t-28.5 -17.5t-19.5 -40.5l-3 -9h-10l37 152h418l-8 -41
l-366 -275q161 -1 230.5 -40.5t69.5 -128.5q0 -65 -29 -119.5t-91 -87.5t-161 -33z" />
    <glyph glyph-name="uni01B8" unicode="&#x1b8;" horiz-adv-x="589" 
d="M276 -11q-118 0 -178.5 54t-60.5 139q0 70 36 123t105.5 82t169.5 26l-195 272l6 29h419l-32 -175h-10q1 7 1.5 15.5t0.5 12.5q0 28 -15.5 47t-55.5 19h-264l162 -226v-4h-33q-90 0 -143.5 -56.5t-53.5 -165.5q0 -51 16 -92t48.5 -65.5t84.5 -24.5q42 0 79 19.5t67 51.5
t54 69q8 -4 13.5 -14.5t5.5 -23.5q0 -25 -31.5 -51t-83.5 -43.5t-112 -17.5z" />
    <glyph glyph-name="uni01B9" unicode="&#x1b9;" horiz-adv-x="525" 
d="M234 -242q-80 0 -130.5 25t-74.5 68.5t-24 98.5q0 46 16.5 90.5t54 81.5t101 59t158.5 23l-224 295l8 37h391l-37 -176h-10q1 11 2.5 24t1.5 26q0 28 -17.5 38t-50.5 10h-244l192 -254l-3 -10h-19q-77 0 -124.5 -30t-69.5 -83t-22 -122q0 -102 38 -146.5t97 -44.5
q43 0 76.5 18.5t57 47t37.5 59.5q10 -7 10 -25q0 -22 -21 -47.5t-63.5 -44t-106.5 -18.5z" />
    <glyph glyph-name="uni01BA" unicode="&#x1ba;" horiz-adv-x="456" 
d="M152 -240q-92 0 -140 30t-48 76q0 38 18.5 59.5t57 34t99.5 21.5t92.5 32t43 57t11.5 78q0 29 -11.5 57.5t-43 47t-92.5 18.5h-15l3 14l235 171h-217q-27 0 -42.5 -10.5t-27.5 -35.5l-8 -16h-10l40 142h336l-9 -48l-286 -207q79 0 127.5 -13.5t74 -35t34.5 -47.5t9 -53
q0 -69 -50.5 -103.5t-154.5 -51.5q-65 -11 -90.5 -33t-25.5 -77q0 -51 33 -74t74 -23q60 0 95.5 32t57.5 85q11 -5 11 -25q0 -44 -44.5 -73t-136.5 -29z" />
    <glyph glyph-name="uni01BB" unicode="&#x1bb;" horiz-adv-x="595" 
d="M5 0l21 81l319 306h-215l2 10h221q52 61 68.5 116t16.5 107q0 70 -23.5 100t-67.5 30q-67 0 -100 -49t-43 -137q-31 0 -51 14t-20 45q0 35 25.5 66t74.5 51t118 20q94 0 141.5 -39t47.5 -107q0 -49 -29 -103.5t-90 -113.5h99l-2 -10h-106l-372 -307h313q46 0 67.5 23
t32.5 52l6 16h10l-40 -171h-424z" />
    <glyph glyph-name="uni01BC" unicode="&#x1bc;" horiz-adv-x="574" 
d="M197 -10q-63 0 -103 18.5t-59.5 47t-19.5 58.5q0 34 21.5 56t55.5 22q0 -106 28.5 -149t83.5 -43q53 0 94.5 31t65 88t23.5 136q0 81 -30 120t-86 39h-120l48 222q4 16 4 28q0 24 -18.5 32t-49.5 8h-7l2 10h419l-32 -175h-10q1 17 3 35.5t2 22.5q0 46 -24 76.5t-85 30.5
h-89l-60 -280h37q96 0 151 -38.5t55 -123.5q0 -75 -37 -136.5t-104.5 -98.5t-158.5 -37z" />
    <glyph glyph-name="uni01BD" unicode="&#x1bd;" horiz-adv-x="527" 
d="M207 -10q-61 0 -100 18t-58 45t-19 54q0 29 20.5 47.5t61.5 18.5q0 -49 14 -88t38 -62t55 -23q33 0 62 18t47 58t18 105t-27 97.5t-72 32.5h-127l26 125l4 24t2 18q0 28 -17.5 38t-51.5 10h-9l2 10h390l-29 -136h-10v15q0 67 -27.5 89t-67.5 22h-74l-43 -205h66
q60 0 95.5 -18.5t51 -48t15.5 -63.5q0 -89 -61 -145t-175 -56z" />
    <glyph glyph-name="uni01BE" unicode="&#x1be;" horiz-adv-x="439" 
d="M190 -10q-75 0 -120 30t-45 83q0 27 10.5 41t25.5 19.5t27 5.5q0 -45 11 -83.5t36 -62t67 -23.5q50 0 79 32.5t29 98.5q0 35 -17 60t-57 50q-35 23 -63.5 52.5t-28.5 74.5q0 12 3 26l28 132h-76l2 10q36 0 69 9.5t62.5 36t54.5 77.5h10l-26 -123h131l-2 -10h-131
l-25 -116q-1 -4 -1.5 -7.5t-0.5 -7.5q0 -26 20.5 -46.5t51.5 -43.5q38 -28 60.5 -60t22.5 -90q0 -73 -55.5 -119t-151.5 -46z" />
    <glyph glyph-name="uni01BF" unicode="&#x1bf;" horiz-adv-x="580" 
d="M15 -240q-2 8 -3 18t-1 20q0 31 6 68t14 75l102 485q5 20 7 34t2 19q0 30 -21 38.5t-49 8.5h-8l2 10h177l-24 -133h2q21 39 47 71.5t60 52t79 19.5q61 0 94 -46.5t33 -134.5q0 -65 -24 -131t-72 -121.5t-120 -89t-168 -33.5h-15l-14 -62q-8 -35 -12.5 -65.5t-3.5 -56.5
q0 -14 2 -25t4 -21h-96zM138 0q82 0 138.5 34.5t91 91t49.5 123.5t15 132q0 57 -15 96t-55 39q-28 0 -53 -18.5t-45 -45.5t-33 -54.5t-17 -45.5z" />
    <glyph glyph-name="uni01C0" unicode="&#x1c0;" horiz-adv-x="409" 
d="M138 0l161 760h20l-161 -760h-20z" />
    <glyph glyph-name="uni01C1" unicode="&#x1c1;" horiz-adv-x="647" 
d="M376 0l162 760h20l-162 -760h-20zM137 0l162 760h20l-162 -760h-20z" />
    <glyph glyph-name="uni01C2" unicode="&#x1c2;" horiz-adv-x="551" 
d="M207 0l61 286h-215l4 20h215l32 146h-215l4 20h215l61 288h20l-61 -288h216l-4 -20h-216l-32 -146h216l-4 -20h-216l-61 -286h-20z" />
    <glyph glyph-name="uni01C3" unicode="&#x1c3;" horiz-adv-x="333" 
d="M141 201l59 513h116l-160 -513h-15zM112 -8q-21 0 -33 11t-12 36q0 35 18 63t51 28q20 0 32.5 -11t12.5 -37q0 -35 -17 -62.5t-52 -27.5z" />
    <glyph glyph-name="uni01C4" unicode="&#x1c4;" horiz-adv-x="1318" 
d="M-19 0l2 10h13q34 0 61 12.5t37 59.5l117 554q1 7 2.5 14.5t1.5 13.5q0 27 -22.5 33.5t-49.5 6.5h-13l2 10h280q135 0 209.5 -69.5t74.5 -202.5q0 -89 -26 -169t-77 -141.5t-125.5 -96.5t-171.5 -35h-315zM178 11h87q101 0 173 56.5t110.5 156.5t38.5 229
q0 130 -46 190.5t-136 60.5h-79zM693 0l2 10l525 694h-239q-68 0 -101.5 -32.5t-50.5 -85.5l-14 -47h-10l42 175h494l-2 -10l-526 -694h261q54 0 86.5 17t51.5 46t30 67l11 35h10l-42 -175h-528zM1052 771q-13 37 -35 79t-42 71l2 10h10q29 -20 59.5 -47t52.5 -54
q34 27 78.5 54t84.5 47h10l-2 -10q-31 -29 -72 -70.5t-71 -79.5h-75z" />
    <glyph glyph-name="uni01C5" unicode="&#x1c5;" horiz-adv-x="1224" 
d="M-19 0l2 10h13q34 0 61 12.5t37 59.5l117 554q1 7 2.5 14.5t1.5 13.5q0 27 -22.5 33.5t-49.5 6.5h-13l2 10h280q135 0 209.5 -69.5t74.5 -202.5q0 -89 -26 -169t-77 -141.5t-125.5 -96.5t-171.5 -35h-315zM178 11h87q101 0 173 56.5t110.5 156.5t38.5 229
q0 130 -46 190.5t-136 60.5h-79zM722 0l2 10l364 516h-130q-55 0 -88 -28.5t-52 -93.5l-3 -10h-10l40 142h350l-2 -10l-382 -516h175q47 0 76 13.5t47 42t34 73.5l8 23h10l-39 -162h-400zM972 606q-13 37 -35 79t-42 71l2 10h10q29 -20 59.5 -47t52.5 -54q34 27 78.5 54
t84.5 47h10l-2 -10q-31 -29 -72 -70.5t-71 -79.5h-75z" />
    <glyph glyph-name="uni01C6" unicode="&#x1c6;" horiz-adv-x="1081" 
d="M162 -10q-44 0 -73 24t-42.5 65.5t-13.5 93.5q0 47 12.5 98.5t37.5 100t61 88t83 63t104 23.5q28 0 52 -7t43 -17q2 14 5 27t7 29l18 80q3 14 5.5 27t2.5 24q0 25 -18 33t-47 8h-13l2 10h184l-116 -545q-2 -11 -6 -32t-6.5 -43t-2.5 -36q0 -80 42 -80q17 0 37 10t39 24
l5 -8q-14 -13 -38 -27t-51 -23.5t-52 -9.5q-36 0 -57 22t-21 61q0 13 2.5 33t7.5 45h-3q-34 -77 -82.5 -119t-107.5 -42zM205 17q24 0 47.5 17t44.5 44t36.5 58.5t21.5 60.5l67 312q-13 10 -34.5 17.5t-47.5 7.5q-40 0 -72.5 -24.5t-57.5 -65.5t-41.5 -89.5t-25 -97
t-8.5 -88.5q0 -82 20 -117t50 -35zM579 0l2 10l364 516h-130q-55 0 -88 -28.5t-52 -93.5l-3 -10h-10l40 142h350l-2 -10l-382 -516h175q47 0 76 13.5t47 42t34 73.5l8 23h10l-39 -162h-400zM837 606q-13 37 -35 79t-42 71l2 10h10q29 -20 59.5 -47t52.5 -54q34 27 78.5 54
t84.5 47h10l-2 -10q-31 -29 -72 -70.5t-71 -79.5h-75z" />
    <glyph glyph-name="uni01C7" unicode="&#x1c7;" horiz-adv-x="977" 
d="M-18 0l2 10h13q33 0 59.5 12.5t36.5 59.5l118 554q4 16 4 28q0 26 -20.5 33t-51.5 7h-13l2 10h291l-2 -10h-13q-33 0 -59.5 -11.5t-36.5 -56.5l-134 -626h219q39 0 66.5 18t45.5 48t28 64l22 75h10l-52 -215h-535zM547 -240q-27 0 -45.5 3t-36.5 8l3 10q13 -5 31.5 -7
t33.5 -2q37 0 66 19.5t50.5 67t37.5 132.5l137 645q4 16 4 28q0 26 -20 33t-52 7h-13l2 10h291l-2 -10h-13q-34 0 -60.5 -12.5t-36.5 -59.5l-137 -640q-25 -118 -81.5 -175t-158.5 -57z" />
    <glyph glyph-name="uni01C8" unicode="&#x1c8;" horiz-adv-x="911" 
d="M-18 0l2 10h13q33 0 59.5 12.5t36.5 59.5l118 554q4 16 4 28q0 26 -20.5 33t-51.5 7h-13l2 10h291l-2 -10h-13q-33 0 -59.5 -11.5t-36.5 -56.5l-134 -626h219q39 0 66.5 18t45.5 48t28 64l22 75h10l-52 -215h-535zM845 636q-20 0 -33 11t-13 39q0 33 13.5 49t36.5 16
q19 0 32.5 -10.5t13.5 -39.5q0 -40 -16 -52.5t-34 -12.5zM538 -240q-15 0 -31.5 2.5t-26.5 5.5l2 10q8 -2 21.5 -4.5t24.5 -2.5q52 0 82 51t52 170l99 466q3 15 3 26q0 27 -16.5 34.5t-44.5 7.5h-13l2 10h179l-115 -544q-19 -89 -49.5 -139.5t-72.5 -71.5t-96 -21z" />
    <glyph glyph-name="uni01C9" unicode="&#x1c9;" horiz-adv-x="597" 
d="M156 -10q-40 0 -61.5 28t-21.5 67q0 21 4 50t9 58t9 49l89 416q3 14 4.5 27t1.5 18q0 30 -21 38.5t-49 8.5h-12l2 10h189l-116 -545q-3 -11 -6.5 -32t-6.5 -43t-3 -36q0 -37 10 -55t36 -18q17 0 35 7.5t37 19.5l5 -8q-22 -20 -59 -40t-75 -20zM531 636q-20 0 -33 11
t-13 39q0 33 13.5 49t36.5 16q19 0 32.5 -10.5t13.5 -39.5q0 -40 -16 -52.5t-34 -12.5zM224 -240q-15 0 -31.5 2.5t-26.5 5.5l2 10q8 -2 21.5 -4.5t24.5 -2.5q52 0 82 51t52 170l99 466q3 15 3 26q0 27 -16.5 34.5t-44.5 7.5h-13l2 10h179l-115 -544q-19 -89 -49.5 -139.5
t-72.5 -71.5t-96 -21z" />
    <glyph glyph-name="uni01CA" unicode="&#x1ca;" horiz-adv-x="1101" 
d="M-18 0l2 10h13q28 0 51.5 4.5t40.5 20t24 47.5l118 554q4 16 4 28q0 26 -25.5 33t-66.5 7h-13l2 10h195l255 -576l106 498q2 7 3 15.5t1 12.5q0 26 -29 33t-74 7h-13l2 10h251l-2 -10h-13q-27 0 -51 -4t-41.5 -19.5t-24.5 -48.5l-134 -632h-30l-288 652l-123 -574
q-4 -16 -4 -28q0 -26 29 -33t74 -7h13l-2 -10h-250zM671 -240q-27 0 -45.5 3t-36.5 8l3 10q13 -5 31.5 -7t33.5 -2q37 0 66 19.5t50.5 67t37.5 132.5l137 645q4 16 4 28q0 26 -20 33t-52 7h-13l2 10h291l-2 -10h-13q-34 0 -60.5 -12.5t-36.5 -59.5l-137 -640
q-25 -118 -81.5 -175t-158.5 -57z" />
    <glyph glyph-name="uni01CB" unicode="&#x1cb;" horiz-adv-x="1035" 
d="M-18 0l2 10h13q28 0 51.5 4.5t40.5 20t24 47.5l118 554q4 16 4 28q0 26 -25.5 33t-66.5 7h-13l2 10h195l255 -576l106 498q2 7 3 15.5t1 12.5q0 26 -29 33t-74 7h-13l2 10h251l-2 -10h-13q-27 0 -51 -4t-41.5 -19.5t-24.5 -48.5l-134 -632h-30l-288 652l-123 -574
q-4 -16 -4 -28q0 -26 29 -33t74 -7h13l-2 -10h-250zM969 636q-20 0 -33 11t-13 39q0 33 13.5 49t36.5 16q19 0 32.5 -10.5t13.5 -39.5q0 -40 -16 -52.5t-34 -12.5zM662 -240q-15 0 -31.5 2.5t-26.5 5.5l2 10q8 -2 21.5 -4.5t24.5 -2.5q52 0 82 51t52 170l99 466q3 15 3 26
q0 27 -16.5 34.5t-44.5 7.5h-13l2 10h179l-115 -544q-19 -89 -49.5 -139.5t-72.5 -71.5t-96 -21z" />
    <glyph glyph-name="uni01CC" unicode="&#x1cc;" horiz-adv-x="892" 
d="M462 -10q-44 0 -67.5 28t-23.5 72q0 46 19 135l17 78q5 20 13 57.5t8 68.5q0 17 -4 36t-17.5 33t-40.5 14t-52.5 -18t-46.5 -44t-34.5 -50t-15.5 -36l-78 -364h-93l91 434q3 14 4.5 27t1.5 18q0 30 -20.5 38.5t-49.5 8.5h-8l2 10h185l-27 -126h2q42 66 87 100.5t103 34.5
q59 0 83 -33.5t24 -77.5q0 -25 -6.5 -54.5t-11.5 -55.5l-26 -118q-6 -28 -9.5 -57t-3.5 -54q0 -66 47 -66q32 0 64 26l6 -8q-24 -20 -53.5 -38.5t-68.5 -18.5zM826 636q-20 0 -33 11t-13 39q0 33 13.5 49t36.5 16q19 0 32.5 -10.5t13.5 -39.5q0 -40 -16 -52.5t-34 -12.5z
M519 -240q-15 0 -31.5 2.5t-26.5 5.5l2 10q8 -2 21.5 -4.5t24.5 -2.5q52 0 82 51t52 170l99 466q3 15 3 26q0 27 -16.5 34.5t-44.5 7.5h-13l2 10h179l-115 -544q-19 -89 -49.5 -139.5t-72.5 -71.5t-96 -21z" />
    <glyph glyph-name="uni01CD" unicode="&#x1cd;" horiz-adv-x="700" 
d="M-62 0l2 10h19q19 0 33 6t27.5 22.5t32.5 49.5l363 626h64l94 -651q5 -31 17.5 -42t41.5 -11h13l-2 -10h-272l2 10h23q77 0 77 51q0 8 -0.5 17.5t-1.5 16.5l-21 164h-288l-91 -157q-11 -18 -15 -32t-4 -24q0 -36 56 -36h69l-2 -10h-237zM286 473l-118 -204h281l-25 195
q-4 30 -9 71t-9 79t-5 60q-11 -22 -32 -58t-43.5 -75t-39.5 -68zM395 771q-13 37 -35 79t-42 71l2 10h10q29 -20 59.5 -47t52.5 -54q34 27 78.5 54t84.5 47h10l-2 -10q-31 -29 -72 -70.5t-71 -79.5h-75z" />
    <glyph glyph-name="uni01CE" unicode="&#x1ce;" horiz-adv-x="580" 
d="M162 -10q-44 0 -73 24t-42.5 65.5t-13.5 93.5q0 47 12.5 98.5t37.5 100t61 88t83 63t104 23.5q41 0 65 -11.5t43 -29.5l53 30h32l-68 -320q-2 -11 -6 -32t-6.5 -43t-2.5 -36q0 -80 41 -80q16 0 35 9t41 25l6 -8q-14 -13 -38 -27t-51 -23.5t-52 -9.5q-36 0 -57 22t-21 61
q0 20 2 36.5t6 41.5h-1q-35 -77 -82.5 -119t-107.5 -42zM205 17q27 0 52 20t46.5 50.5t36 63t19.5 56.5l60 292q-11 18 -32 27t-44 9q-41 0 -73.5 -25t-58 -65.5t-42.5 -89.5t-25.5 -97.5t-8.5 -88.5q0 -82 20 -117t50 -35zM321 606q-13 37 -35 79t-42 71l2 10h10
q29 -20 59.5 -47t52.5 -54q34 27 78.5 54t84.5 47h10l-2 -10q-31 -29 -72 -70.5t-71 -79.5h-75z" />
    <glyph glyph-name="uni01CF" unicode="&#x1cf;" horiz-adv-x="349" 
d="M-19 0l1 10h13q34 0 61 12.5t37 59.5l118 554q4 16 4 28q0 26 -20.5 33t-51.5 7h-13l2 10h291l-2 -10h-13q-34 0 -60.5 -12.5t-36.5 -59.5l-118 -554q-4 -16 -4 -28q0 -26 20.5 -33t51.5 -7h13l-2 -10h-291zM252 771q-13 37 -35 79t-42 71l2 10h10q29 -20 59.5 -47
t52.5 -54q34 27 78.5 54t84.5 47h10l-2 -10q-31 -29 -72 -70.5t-71 -79.5h-75z" />
    <glyph glyph-name="uni01D0" unicode="&#x1d0;" horiz-adv-x="300" 
d="M155 -10q-40 0 -61.5 29t-21.5 74q0 21 4 48.5t9 54t9 46.5l46 216q3 15 3 26q0 25 -15 33.5t-46 8.5h-13l2 10h179l-68 -321q-2 -11 -6 -32t-6.5 -43t-2.5 -36q0 -73 43 -73q22 0 39 7.5t35 19.5l6 -8q-22 -20 -60 -40t-75 -20zM180 606q-13 37 -35 79t-42 71l2 10h10
q29 -20 59.5 -47t52.5 -54q34 27 78.5 54t84.5 47h10l-2 -10q-31 -29 -72 -70.5t-71 -79.5h-75z" />
    <glyph glyph-name="uni01D1" unicode="&#x1d1;" horiz-adv-x="742" 
d="M323 -11q-74 0 -133.5 31.5t-94 93.5t-34.5 152q0 58 16 121t48.5 123t80.5 108.5t112 77.5t143 29q69 0 128 -29t95 -89.5t36 -156.5q0 -55 -15.5 -118t-47 -123.5t-79 -110.5t-111.5 -79.5t-144 -29.5zM329 -1q58 0 103.5 32t79 84.5t55.5 116t32.5 127.5t10.5 118
q0 93 -20.5 144.5t-56 72.5t-80.5 21q-58 0 -104 -32t-79.5 -84.5t-55.5 -116t-33 -127.5t-11 -117q0 -94 21 -146t57 -72.5t81 -20.5zM429 771q-13 37 -35 79t-42 71l2 10h10q29 -20 59.5 -47t52.5 -54q34 27 78.5 54t84.5 47h10l-2 -10q-31 -29 -72 -70.5t-71 -79.5h-75z
" />
    <glyph glyph-name="uni01D2" unicode="&#x1d2;" horiz-adv-x="564" 
d="M230 -10q-85 0 -138.5 51.5t-53.5 155.5q0 55 18 116t55 114t93 86t132 33q52 0 95.5 -21t69 -67t25.5 -119q0 -43 -11 -90.5t-34 -93.5t-58 -83t-83 -59.5t-110 -22.5zM232 0q41 0 72 23.5t53.5 62.5t37 86t21 95t6.5 89q0 97 -23 138.5t-69 41.5q-40 0 -71 -23.5
t-53.5 -62.5t-36.5 -86.5t-20.5 -95.5t-6.5 -89q0 -98 24.5 -138.5t65.5 -40.5zM319 606q-13 37 -35 79t-42 71l2 10h10q29 -20 59.5 -47t52.5 -54q34 27 78.5 54t84.5 47h10l-2 -10q-31 -29 -72 -70.5t-71 -79.5h-75z" />
    <glyph glyph-name="uni01D3" unicode="&#x1d3;" horiz-adv-x="713" 
d="M329 -10q-109 0 -168 45t-59 128q0 16 3.5 44t7.5 45l81 384q4 16 4 28q0 26 -20 33t-52 7h-13l2 10h291l-1 -10h-13q-33 0 -60.5 -12.5t-37.5 -59.5l-82 -385q-5 -25 -8.5 -49.5t-3.5 -50.5q0 -71 34 -109t98 -38q82 0 134.5 27.5t81.5 74t41 104.5l92 430q4 16 4 28
q0 26 -20.5 33t-51.5 7h-13l2 10h200l-1 -10h-13q-33 0 -60.5 -12.5t-37.5 -59.5l-91 -428q-21 -100 -86 -157t-184 -57zM444 771q-13 37 -35 79t-42 71l2 10h10q29 -20 59.5 -47t52.5 -54q34 27 78.5 54t84.5 47h10l-2 -10q-31 -29 -72 -70.5t-71 -79.5h-75z" />
    <glyph glyph-name="uni01D4" unicode="&#x1d4;" horiz-adv-x="601" 
d="M457 -10q-40 0 -62 28t-22 67q0 11 1 27t3 32h-3q-26 -44 -53.5 -78.5t-62.5 -54.5t-81 -20q-59 0 -83 33.5t-24 77.5q0 25 6 54.5t12 55.5l46 207q3 14 6 33t3 27q0 30 -20.5 38.5t-49.5 8.5h-8l2 10h186l-66 -299q-4 -18 -8.5 -41.5t-8 -46.5t-3.5 -37q0 -42 12.5 -67
t46.5 -25q24 0 49.5 18t48.5 47t39 60.5t22 58.5l71 332h97l-69 -321q-2 -11 -6 -32t-6.5 -43t-2.5 -36q0 -78 45 -78q16 0 31 6.5t34 20.5l5 -7q-22 -20 -56 -38t-71 -18zM333 606q-13 37 -35 79t-42 71l2 10h10q29 -20 59.5 -47t52.5 -54q34 27 78.5 54t84.5 47h10l-2 -10
q-31 -29 -72 -70.5t-71 -79.5h-75z" />
    <glyph glyph-name="uni01D5" unicode="&#x1d5;" horiz-adv-x="713" 
d="M329 -10q-109 0 -168 45t-59 128q0 16 3.5 44t7.5 45l81 384q4 16 4 28q0 26 -20 33t-52 7h-13l2 10h291l-1 -10h-13q-33 0 -60.5 -12.5t-37.5 -59.5l-82 -385q-5 -25 -8.5 -49.5t-3.5 -50.5q0 -71 34 -109t98 -38q82 0 134.5 27.5t81.5 74t41 104.5l92 430q4 16 4 28
q0 26 -20.5 33t-51.5 7h-13l2 10h200l-1 -10h-13q-33 0 -60.5 -12.5t-37.5 -59.5l-91 -428q-21 -100 -86 -157t-184 -57zM683 991l-4 -20h-290l4 20h290zM610 797q-20 0 -31.5 12t-11.5 38q0 28 12.5 45.5t34.5 17.5q19 0 31 -12.5t12 -37.5q0 -35 -15 -49t-32 -14zM420 797
q-20 0 -31.5 12t-11.5 38q0 28 12.5 45.5t34.5 17.5q19 0 31 -12.5t12 -37.5q0 -35 -15 -49t-32 -14z" />
    <glyph glyph-name="uni01D6" unicode="&#x1d6;" horiz-adv-x="601" 
d="M457 -10q-40 0 -62 28t-22 67q0 11 1 27t3 32h-3q-26 -44 -53.5 -78.5t-62.5 -54.5t-81 -20q-59 0 -83 33.5t-24 77.5q0 25 6 54.5t12 55.5l46 207q3 14 6 33t3 27q0 30 -20.5 38.5t-49.5 8.5h-8l2 10h186l-66 -299q-4 -18 -8.5 -41.5t-8 -46.5t-3.5 -37q0 -42 12.5 -67
t46.5 -25q24 0 49.5 18t48.5 47t39 60.5t22 58.5l71 332h97l-69 -321q-2 -11 -6 -32t-6.5 -43t-2.5 -36q0 -78 45 -78q16 0 31 6.5t34 20.5l5 -7q-22 -20 -56 -38t-71 -18zM535 826l-4 -20h-290l4 20h290zM462 632q-20 0 -31.5 12t-11.5 38q0 28 12.5 45.5t34.5 17.5
q19 0 31 -12.5t12 -37.5q0 -35 -15 -49t-32 -14zM272 632q-20 0 -31.5 12t-11.5 38q0 28 12.5 45.5t34.5 17.5q19 0 31 -12.5t12 -37.5q0 -35 -15 -49t-32 -14z" />
    <glyph glyph-name="uni01D7" unicode="&#x1d7;" horiz-adv-x="713" 
d="M329 -10q-109 0 -168 45t-59 128q0 16 3.5 44t7.5 45l81 384q4 16 4 28q0 26 -20 33t-52 7h-13l2 10h291l-1 -10h-13q-33 0 -60.5 -12.5t-37.5 -59.5l-82 -385q-5 -25 -8.5 -49.5t-3.5 -50.5q0 -71 34 -109t98 -38q82 0 134.5 27.5t81.5 74t41 104.5l92 430q4 16 4 28
q0 26 -20.5 33t-51.5 7h-13l2 10h200l-1 -10h-13q-33 0 -60.5 -12.5t-37.5 -59.5l-91 -428q-21 -100 -86 -157t-184 -57zM485 886l2 10q27 32 53 68.5t49 71.5h90l-2 -10q-19 -17 -50.5 -42t-66.5 -51t-65 -47h-10zM414 766q-18 0 -29 12.5t-11 37.5q0 29 12 46t32 17
q17 0 28.5 -12t11.5 -38q0 -35 -14 -49t-30 -14zM604 766q-18 0 -29 12.5t-11 37.5q0 29 12 46t32 17q17 0 28.5 -12t11.5 -38q0 -35 -14 -49t-30 -14z" />
    <glyph glyph-name="uni01D8" unicode="&#x1d8;" horiz-adv-x="601" 
d="M457 -10q-40 0 -62 28t-22 67q0 11 1 27t3 32h-3q-26 -44 -53.5 -78.5t-62.5 -54.5t-81 -20q-59 0 -83 33.5t-24 77.5q0 25 6 54.5t12 55.5l46 207q3 14 6 33t3 27q0 30 -20.5 38.5t-49.5 8.5h-8l2 10h186l-66 -299q-4 -18 -8.5 -41.5t-8 -46.5t-3.5 -37q0 -42 12.5 -67
t46.5 -25q24 0 49.5 18t48.5 47t39 60.5t22 58.5l71 332h97l-69 -321q-2 -11 -6 -32t-6.5 -43t-2.5 -36q0 -78 45 -78q16 0 31 6.5t34 20.5l5 -7q-22 -20 -56 -38t-71 -18zM355 721l2 10q27 32 53 68.5t49 71.5h90l-2 -10q-19 -17 -50.5 -42t-66.5 -51t-65 -47h-10zM284 601
q-18 0 -29 12.5t-11 37.5q0 29 12 46t32 17q17 0 28.5 -12t11.5 -38q0 -35 -14 -49t-30 -14zM474 601q-18 0 -29 12.5t-11 37.5q0 29 12 46t32 17q17 0 28.5 -12t11.5 -38q0 -35 -14 -49t-30 -14z" />
    <glyph glyph-name="uni01D9" unicode="&#x1d9;" horiz-adv-x="713" 
d="M329 -10q-109 0 -168 45t-59 128q0 16 3.5 44t7.5 45l81 384q4 16 4 28q0 26 -20 33t-52 7h-13l2 10h291l-1 -10h-13q-33 0 -60.5 -12.5t-37.5 -59.5l-82 -385q-5 -25 -8.5 -49.5t-3.5 -50.5q0 -71 34 -109t98 -38q82 0 134.5 27.5t81.5 74t41 104.5l92 430q4 16 4 28
q0 26 -20.5 33t-51.5 7h-13l2 10h200l-1 -10h-13q-33 0 -60.5 -12.5t-37.5 -59.5l-91 -428q-21 -100 -86 -157t-184 -57zM458 896q-13 29 -36 65.5t-46 64.5l2 10h10q17 -9 39 -24.5t42.5 -32t33.5 -30.5q17 14 47 30.5t61 32t52 24.5h10l-2 -10q-35 -28 -73.5 -64.5
t-64.5 -65.5h-75zM392 766q-18 0 -29 12.5t-11 37.5q0 29 12 46t32 17q17 0 28.5 -12t11.5 -38q0 -35 -14 -49t-30 -14zM582 766q-18 0 -29 12.5t-11 37.5q0 29 12 46t32 17q17 0 28.5 -12t11.5 -38q0 -35 -14 -49t-30 -14z" />
    <glyph glyph-name="uni01DA" unicode="&#x1da;" horiz-adv-x="601" 
d="M457 -10q-40 0 -62 28t-22 67q0 11 1 27t3 32h-3q-26 -44 -53.5 -78.5t-62.5 -54.5t-81 -20q-59 0 -83 33.5t-24 77.5q0 25 6 54.5t12 55.5l46 207q3 14 6 33t3 27q0 30 -20.5 38.5t-49.5 8.5h-8l2 10h186l-66 -299q-4 -18 -8.5 -41.5t-8 -46.5t-3.5 -37q0 -42 12.5 -67
t46.5 -25q24 0 49.5 18t48.5 47t39 60.5t22 58.5l71 332h97l-69 -321q-2 -11 -6 -32t-6.5 -43t-2.5 -36q0 -78 45 -78q16 0 31 6.5t34 20.5l5 -7q-22 -20 -56 -38t-71 -18zM343 731q-13 29 -36 65.5t-46 64.5l2 10h10q17 -9 39 -24.5t42.5 -32t33.5 -30.5q17 14 47 30.5
t61 32t52 24.5h10l-2 -10q-35 -28 -73.5 -64.5t-64.5 -65.5h-75zM277 601q-18 0 -29 12.5t-11 37.5q0 29 12 46t32 17q17 0 28.5 -12t11.5 -38q0 -35 -14 -49t-30 -14zM467 601q-18 0 -29 12.5t-11 37.5q0 29 12 46t32 17q17 0 28.5 -12t11.5 -38q0 -35 -14 -49t-30 -14z
" />
    <glyph glyph-name="uni01DB" unicode="&#x1db;" horiz-adv-x="713" 
d="M329 -10q-109 0 -168 45t-59 128q0 16 3.5 44t7.5 45l81 384q4 16 4 28q0 26 -20 33t-52 7h-13l2 10h291l-1 -10h-13q-33 0 -60.5 -12.5t-37.5 -59.5l-82 -385q-5 -25 -8.5 -49.5t-3.5 -50.5q0 -71 34 -109t98 -38q82 0 134.5 27.5t81.5 74t41 104.5l92 430q4 16 4 28
q0 26 -20.5 33t-51.5 7h-13l2 10h200l-1 -10h-13q-33 0 -60.5 -12.5t-37.5 -59.5l-91 -428q-21 -100 -86 -157t-184 -57zM515 886q-23 21 -48.5 47t-48 51t-35.5 42l2 10h90q11 -35 24 -71.5t28 -68.5l-2 -10h-10zM406 766q-18 0 -29 12.5t-11 37.5q0 29 12 46t32 17
q17 0 28.5 -12t11.5 -38q0 -35 -14 -49t-30 -14zM596 766q-18 0 -29 12.5t-11 37.5q0 29 12 46t32 17q17 0 28.5 -12t11.5 -38q0 -35 -14 -49t-30 -14z" />
    <glyph glyph-name="uni01DC" unicode="&#x1dc;" horiz-adv-x="601" 
d="M457 -10q-40 0 -62 28t-22 67q0 11 1 27t3 32h-3q-26 -44 -53.5 -78.5t-62.5 -54.5t-81 -20q-59 0 -83 33.5t-24 77.5q0 25 6 54.5t12 55.5l46 207q3 14 6 33t3 27q0 30 -20.5 38.5t-49.5 8.5h-8l2 10h186l-66 -299q-4 -18 -8.5 -41.5t-8 -46.5t-3.5 -37q0 -42 12.5 -67
t46.5 -25q24 0 49.5 18t48.5 47t39 60.5t22 58.5l71 332h97l-69 -321q-2 -11 -6 -32t-6.5 -43t-2.5 -36q0 -78 45 -78q16 0 31 6.5t34 20.5l5 -7q-22 -20 -56 -38t-71 -18zM405 721q-23 21 -48.5 47t-48 51t-35.5 42l2 10h90q11 -35 24 -71.5t28 -68.5l-2 -10h-10zM296 601
q-18 0 -29 12.5t-11 37.5q0 29 12 46t32 17q17 0 28.5 -12t11.5 -38q0 -35 -14 -49t-30 -14zM486 601q-18 0 -29 12.5t-11 37.5q0 29 12 46t32 17q17 0 28.5 -12t11.5 -38q0 -35 -14 -49t-30 -14z" />
    <glyph glyph-name="uni01DD" unicode="&#x1dd;" horiz-adv-x="479" 
d="M246 546q53 0 97.5 -23t71 -68.5t26.5 -115.5q0 -55 -19 -116t-57 -114t-93.5 -86t-128.5 -33q-63 0 -98 30.5t-35 84.5q0 48 37.5 89.5t102.5 67.5t147 26h35q5 30 5 59q0 90 -25.5 139.5t-74.5 49.5q-57 0 -91 -35t-52 -90q-21 6 -21 30q0 19 18.5 44t56.5 43t98 18z
M330 278h-27q-88 0 -139 -49t-51 -131q0 -97 54 -97q30 0 56 24.5t47 65.5t36 90t24 97z" />
    <glyph glyph-name="uni01DE" unicode="&#x1de;" horiz-adv-x="700" 
d="M-62 0l2 10h19q19 0 33 6t27.5 22.5t32.5 49.5l363 626h64l94 -651q5 -31 17.5 -42t41.5 -11h13l-2 -10h-272l2 10h23q77 0 77 51q0 8 -0.5 17.5t-1.5 16.5l-21 164h-288l-91 -157q-11 -18 -15 -32t-4 -24q0 -36 56 -36h69l-2 -10h-237zM286 473l-118 -204h281l-25 195
q-4 30 -9 71t-9 79t-5 60q-11 -22 -32 -58t-43.5 -75t-39.5 -68zM620 991l-4 -20h-290l4 20h290zM547 797q-20 0 -31.5 12t-11.5 38q0 28 12.5 45.5t34.5 17.5q19 0 31 -12.5t12 -37.5q0 -35 -15 -49t-32 -14zM357 797q-20 0 -31.5 12t-11.5 38q0 28 12.5 45.5t34.5 17.5
q19 0 31 -12.5t12 -37.5q0 -35 -15 -49t-32 -14z" />
    <glyph glyph-name="uni01DF" unicode="&#x1df;" horiz-adv-x="580" 
d="M162 -10q-44 0 -73 24t-42.5 65.5t-13.5 93.5q0 47 12.5 98.5t37.5 100t61 88t83 63t104 23.5q41 0 65 -11.5t43 -29.5l53 30h32l-68 -320q-2 -11 -6 -32t-6.5 -43t-2.5 -36q0 -80 41 -80q16 0 35 9t41 25l6 -8q-14 -13 -38 -27t-51 -23.5t-52 -9.5q-36 0 -57 22t-21 61
q0 20 2 36.5t6 41.5h-1q-35 -77 -82.5 -119t-107.5 -42zM205 17q27 0 52 20t46.5 50.5t36 63t19.5 56.5l60 292q-11 18 -32 27t-44 9q-41 0 -73.5 -25t-58 -65.5t-42.5 -89.5t-25.5 -97.5t-8.5 -88.5q0 -82 20 -117t50 -35zM525 826l-4 -20h-290l4 20h290zM452 632
q-20 0 -31.5 12t-11.5 38q0 28 12.5 45.5t34.5 17.5q19 0 31 -12.5t12 -37.5q0 -35 -15 -49t-32 -14zM262 632q-20 0 -31.5 12t-11.5 38q0 28 12.5 45.5t34.5 17.5q19 0 31 -12.5t12 -37.5q0 -35 -15 -49t-32 -14z" />
    <glyph glyph-name="uni01E0" unicode="&#x1e0;" horiz-adv-x="700" 
d="M-62 0l2 10h19q19 0 33 6t27.5 22.5t32.5 49.5l363 626h64l94 -651q5 -31 17.5 -42t41.5 -11h13l-2 -10h-272l2 10h23q77 0 77 51q0 8 -0.5 17.5t-1.5 16.5l-21 164h-288l-91 -157q-11 -18 -15 -32t-4 -24q0 -36 56 -36h69l-2 -10h-237zM286 473l-118 -204h281l-25 195
q-4 30 -9 71t-9 79t-5 60q-11 -22 -32 -58t-43.5 -75t-39.5 -68zM337 965l4 20h290l-4 -20h-290zM450 766q-18 0 -29 12.5t-11 37.5q0 29 12 46t32 17q17 0 28.5 -12t11.5 -38q0 -35 -14 -49t-30 -14z" />
    <glyph glyph-name="uni01E1" unicode="&#x1e1;" horiz-adv-x="580" 
d="M162 -10q-44 0 -73 24t-42.5 65.5t-13.5 93.5q0 47 12.5 98.5t37.5 100t61 88t83 63t104 23.5q41 0 65 -11.5t43 -29.5l53 30h32l-68 -320q-2 -11 -6 -32t-6.5 -43t-2.5 -36q0 -80 41 -80q16 0 35 9t41 25l6 -8q-14 -13 -38 -27t-51 -23.5t-52 -9.5q-36 0 -57 22t-21 61
q0 20 2 36.5t6 41.5h-1q-35 -77 -82.5 -119t-107.5 -42zM205 17q27 0 52 20t46.5 50.5t36 63t19.5 56.5l60 292q-11 18 -32 27t-44 9q-41 0 -73.5 -25t-58 -65.5t-42.5 -89.5t-25.5 -97.5t-8.5 -88.5q0 -82 20 -117t50 -35zM260 800l4 20h290l-4 -20h-290zM373 601
q-18 0 -29 12.5t-11 37.5q0 29 12 46t32 17q17 0 28.5 -12t11.5 -38q0 -35 -14 -49t-30 -14z" />
    <glyph glyph-name="uni01E2" unicode="&#x1e2;" horiz-adv-x="943" 
d="M-62 0l2 10h21q19 0 33.5 6t30 23t39.5 49l456 616h-130l2 10h566l-32 -175h-10q1 7 3.5 28t2.5 30q0 29 -6.5 53.5t-29 39t-70.5 14.5h-168l-69 -324h251l-2 -10h-251l-76 -360h193q51 0 83.5 17t51.5 44.5t30 60.5l14 43h10l-44 -175h-536l2 10h13q33 0 60.5 11.5
t36.5 55.5l38 182h-249l-116 -157q-27 -37 -27 -59q0 -17 11.5 -25t39.5 -8h74l-2 -10h-246zM212 269h243l91 435h-16q-31 -44 -75.5 -106.5t-91.5 -124.5zM557 808l4 20h290l-4 -20h-290z" />
    </font>
</defs>
</svg>
