<?xml version="1.0" standalone="no"?>
<!DOCTYPE svg PUBLIC "-//W3C//DTD SVG 20010904//EN"
 "http://www.w3.org/TR/2001/REC-SVG-20010904/DTD/svg10.dtd">
<svg version="1.0" xmlns="http://www.w3.org/2000/svg"
 width="300.000000pt" height="300.000000pt" viewBox="0 0 300.000000 300.000000"
 preserveAspectRatio="xMidYMid meet">
<metadata>
Created by potrace 1.11, written by Peter Selinger 2001-2013
</metadata>
<g transform="translate(0.000000,300.000000) scale(0.100000,-0.100000)"
fill="#000000" stroke="none">
<path d="M1290 2290 c-121 -15 -159 -22 -245 -42 -741 -171 -1060 -731 -660
-1156 189 -201 469 -328 855 -387 84 -12 448 -14 518 -2 18 4 52 9 75 12 69
10 247 55 322 82 89 32 226 100 302 149 87 57 232 207 272 283 122 231 84 469
-107 672 -194 207 -513 345 -897 388 -84 10 -358 10 -435 1z m560 -60 c416
-73 750 -280 863 -537 171 -387 -189 -798 -810 -922 -154 -31 -168 -32 -358
-36 -389 -8 -733 82 -984 258 -155 109 -271 264 -297 399 -55 281 120 539 483
710 157 74 336 121 578 151 17 2 113 3 215 2 136 -2 218 -9 310 -25z"/>
<path d="M1253 2214 c-203 -29 -363 -76 -520 -154 -590 -293 -598 -817 -18
-1124 124 -66 346 -133 535 -161 71 -11 388 -14 465 -4 129 16 191 27 285 53
423 114 705 364 723 642 9 135 -52 282 -163 395 -183 185 -439 297 -805 354
-82 13 -410 12 -502 -1z m492 -39 c327 -48 585 -154 752 -309 355 -329 178
-764 -392 -965 -183 -65 -341 -92 -560 -96 -305 -5 -539 40 -771 150 -343 161
-503 412 -424 666 88 285 476 511 955 556 33 3 62 7 64 10 7 5 327 -5 376 -12z"/>
<path d="M924 1541 c1 -203 4 -373 9 -377 4 -4 32 -8 62 -9 66 -1 64 -4 62
127 l-2 96 40 4 c85 7 87 5 161 -110 37 -59 72 -109 76 -113 8 -6 137 -4 142
2 2 2 -30 55 -70 117 -41 62 -74 114 -74 117 0 2 13 11 28 19 119 62 169 225
107 351 -14 30 -43 68 -63 85 -62 51 -106 60 -302 60 l-176 0 0 -369z m355
241 c72 -36 101 -125 66 -203 -29 -64 -69 -82 -186 -84 -62 -1 -99 3 -101 9
-3 9 -2 246 1 284 2 20 178 16 220 -6z"/>
<path d="M1785 1893 c-3 -10 -38 -106 -76 -213 -39 -107 -78 -217 -89 -245
-56 -152 -97 -276 -91 -278 3 -2 35 -3 71 -2 l64 0 15 48 15 47 154 -2 154 -3
17 -45 16 -44 68 -1 c43 0 67 3 67 11 0 9 -182 525 -247 702 l-16 42 -57 0
c-46 0 -59 -4 -65 -17z m113 -315 c27 -84 52 -167 56 -184 l7 -30 -114 0 -115
1 13 40 c74 241 100 325 102 325 1 0 24 -69 51 -152z"/>
</g>
</svg>
